%FSLAX45Y45*%
G04 Gerber Fmt 4.5, Leading zero omitted, Abs format (unit mm)*
G04 Created by KiCad (PCBNEW (5.1.0)-1) date 2019-04-16 02:18:09*
%MOMM*%
%LPD*%
G04 APERTURE LIST*
%ADD10C,0.100000*%
%ADD11C,0.200000*%
%ADD12C,0.300000*%
G04 APERTURE END LIST*
D10*
X5715000Y-6731000D02*
X5715000Y-3810000D01*
X9969500Y-6731000D02*
X5715000Y-6731000D01*
X9969500Y-3810000D02*
X9969500Y-6731000D01*
X5715000Y-3810000D02*
X9969500Y-3810000D01*
D11*
D12*
X5996428Y-7201714D02*
X5996428Y-6901714D01*
X6067857Y-6901714D01*
X6110714Y-6916000D01*
X6139286Y-6944571D01*
X6153571Y-6973143D01*
X6167857Y-7030286D01*
X6167857Y-7073143D01*
X6153571Y-7130286D01*
X6139286Y-7158857D01*
X6110714Y-7187429D01*
X6067857Y-7201714D01*
X5996428Y-7201714D01*
X6296428Y-7201714D02*
X6296428Y-7001714D01*
X6296428Y-7058857D02*
X6310714Y-7030286D01*
X6325000Y-7016000D01*
X6353571Y-7001714D01*
X6382143Y-7001714D01*
X6482143Y-7201714D02*
X6482143Y-7001714D01*
X6482143Y-6901714D02*
X6467857Y-6916000D01*
X6482143Y-6930286D01*
X6496428Y-6916000D01*
X6482143Y-6901714D01*
X6482143Y-6930286D01*
X6667857Y-7201714D02*
X6639286Y-7187429D01*
X6625000Y-7158857D01*
X6625000Y-6901714D01*
X6825000Y-7201714D02*
X6796428Y-7187429D01*
X6782143Y-7158857D01*
X6782143Y-6901714D01*
X7167857Y-7201714D02*
X7167857Y-6901714D01*
X7267857Y-7116000D01*
X7367857Y-6901714D01*
X7367857Y-7201714D01*
X7639286Y-7201714D02*
X7639286Y-7044571D01*
X7625000Y-7016000D01*
X7596428Y-7001714D01*
X7539286Y-7001714D01*
X7510714Y-7016000D01*
X7639286Y-7187429D02*
X7610714Y-7201714D01*
X7539286Y-7201714D01*
X7510714Y-7187429D01*
X7496428Y-7158857D01*
X7496428Y-7130286D01*
X7510714Y-7101714D01*
X7539286Y-7087429D01*
X7610714Y-7087429D01*
X7639286Y-7073143D01*
X7782143Y-7001714D02*
X7782143Y-7301714D01*
X7782143Y-7016000D02*
X7810714Y-7001714D01*
X7867857Y-7001714D01*
X7896428Y-7016000D01*
X7910714Y-7030286D01*
X7925000Y-7058857D01*
X7925000Y-7144571D01*
X7910714Y-7173143D01*
X7896428Y-7187429D01*
X7867857Y-7201714D01*
X7810714Y-7201714D01*
X7782143Y-7187429D01*
X8053571Y-7173143D02*
X8067857Y-7187429D01*
X8053571Y-7201714D01*
X8039286Y-7187429D01*
X8053571Y-7173143D01*
X8053571Y-7201714D01*
X8053571Y-7016000D02*
X8067857Y-7030286D01*
X8053571Y-7044571D01*
X8039286Y-7030286D01*
X8053571Y-7016000D01*
X8053571Y-7044571D01*
M02*
