G04 #@! TF.GenerationSoftware,KiCad,Pcbnew,(5.1.0)-1*
G04 #@! TF.CreationDate,2019-04-16T02:17:24+07:00*
G04 #@! TF.ProjectId,Bano,42616e6f-2e6b-4696-9361-645f70636258,rev?*
G04 #@! TF.SameCoordinates,Original*
G04 #@! TF.FileFunction,Copper,L2,Bot*
G04 #@! TF.FilePolarity,Positive*
%FSLAX46Y46*%
G04 Gerber Fmt 4.6, Leading zero omitted, Abs format (unit mm)*
G04 Created by KiCad (PCBNEW (5.1.0)-1) date 2019-04-16 02:17:24*
%MOMM*%
%LPD*%
G04 APERTURE LIST*
%ADD10R,1.700000X1.700000*%
%ADD11O,1.700000X1.700000*%
%ADD12C,0.100000*%
%ADD13C,1.600000*%
%ADD14R,2.499360X2.499360*%
%ADD15C,2.499360*%
%ADD16C,2.600000*%
%ADD17C,1.300000*%
%ADD18C,0.500000*%
%ADD19C,0.254000*%
G04 APERTURE END LIST*
D10*
X64770000Y-57150000D03*
D11*
X64770000Y-54610000D03*
X64770000Y-52070000D03*
X64770000Y-49530000D03*
X64770000Y-46990000D03*
X64770000Y-44450000D03*
D12*
G36*
X68238504Y-62327204D02*
G01*
X68262773Y-62330804D01*
X68286571Y-62336765D01*
X68309671Y-62345030D01*
X68331849Y-62355520D01*
X68352893Y-62368133D01*
X68372598Y-62382747D01*
X68390777Y-62399223D01*
X68407253Y-62417402D01*
X68421867Y-62437107D01*
X68434480Y-62458151D01*
X68444970Y-62480329D01*
X68453235Y-62503429D01*
X68459196Y-62527227D01*
X68462796Y-62551496D01*
X68464000Y-62576000D01*
X68464000Y-64726000D01*
X68462796Y-64750504D01*
X68459196Y-64774773D01*
X68453235Y-64798571D01*
X68444970Y-64821671D01*
X68434480Y-64843849D01*
X68421867Y-64864893D01*
X68407253Y-64884598D01*
X68390777Y-64902777D01*
X68372598Y-64919253D01*
X68352893Y-64933867D01*
X68331849Y-64946480D01*
X68309671Y-64956970D01*
X68286571Y-64965235D01*
X68262773Y-64971196D01*
X68238504Y-64974796D01*
X68214000Y-64976000D01*
X67114000Y-64976000D01*
X67089496Y-64974796D01*
X67065227Y-64971196D01*
X67041429Y-64965235D01*
X67018329Y-64956970D01*
X66996151Y-64946480D01*
X66975107Y-64933867D01*
X66955402Y-64919253D01*
X66937223Y-64902777D01*
X66920747Y-64884598D01*
X66906133Y-64864893D01*
X66893520Y-64843849D01*
X66883030Y-64821671D01*
X66874765Y-64798571D01*
X66868804Y-64774773D01*
X66865204Y-64750504D01*
X66864000Y-64726000D01*
X66864000Y-62576000D01*
X66865204Y-62551496D01*
X66868804Y-62527227D01*
X66874765Y-62503429D01*
X66883030Y-62480329D01*
X66893520Y-62458151D01*
X66906133Y-62437107D01*
X66920747Y-62417402D01*
X66937223Y-62399223D01*
X66955402Y-62382747D01*
X66975107Y-62368133D01*
X66996151Y-62355520D01*
X67018329Y-62345030D01*
X67041429Y-62336765D01*
X67065227Y-62330804D01*
X67089496Y-62327204D01*
X67114000Y-62326000D01*
X68214000Y-62326000D01*
X68238504Y-62327204D01*
X68238504Y-62327204D01*
G37*
D13*
X67664000Y-63651000D03*
D12*
G36*
X68238504Y-58977204D02*
G01*
X68262773Y-58980804D01*
X68286571Y-58986765D01*
X68309671Y-58995030D01*
X68331849Y-59005520D01*
X68352893Y-59018133D01*
X68372598Y-59032747D01*
X68390777Y-59049223D01*
X68407253Y-59067402D01*
X68421867Y-59087107D01*
X68434480Y-59108151D01*
X68444970Y-59130329D01*
X68453235Y-59153429D01*
X68459196Y-59177227D01*
X68462796Y-59201496D01*
X68464000Y-59226000D01*
X68464000Y-61376000D01*
X68462796Y-61400504D01*
X68459196Y-61424773D01*
X68453235Y-61448571D01*
X68444970Y-61471671D01*
X68434480Y-61493849D01*
X68421867Y-61514893D01*
X68407253Y-61534598D01*
X68390777Y-61552777D01*
X68372598Y-61569253D01*
X68352893Y-61583867D01*
X68331849Y-61596480D01*
X68309671Y-61606970D01*
X68286571Y-61615235D01*
X68262773Y-61621196D01*
X68238504Y-61624796D01*
X68214000Y-61626000D01*
X67114000Y-61626000D01*
X67089496Y-61624796D01*
X67065227Y-61621196D01*
X67041429Y-61615235D01*
X67018329Y-61606970D01*
X66996151Y-61596480D01*
X66975107Y-61583867D01*
X66955402Y-61569253D01*
X66937223Y-61552777D01*
X66920747Y-61534598D01*
X66906133Y-61514893D01*
X66893520Y-61493849D01*
X66883030Y-61471671D01*
X66874765Y-61448571D01*
X66868804Y-61424773D01*
X66865204Y-61400504D01*
X66864000Y-61376000D01*
X66864000Y-59226000D01*
X66865204Y-59201496D01*
X66868804Y-59177227D01*
X66874765Y-59153429D01*
X66883030Y-59130329D01*
X66893520Y-59108151D01*
X66906133Y-59087107D01*
X66920747Y-59067402D01*
X66937223Y-59049223D01*
X66955402Y-59032747D01*
X66975107Y-59018133D01*
X66996151Y-59005520D01*
X67018329Y-58995030D01*
X67041429Y-58986765D01*
X67065227Y-58980804D01*
X67089496Y-58977204D01*
X67114000Y-58976000D01*
X68214000Y-58976000D01*
X68238504Y-58977204D01*
X68238504Y-58977204D01*
G37*
D13*
X67664000Y-60301000D03*
D14*
X63246000Y-60833000D03*
D15*
X63246000Y-64643000D03*
D10*
X97205000Y-46990000D03*
D11*
X97205000Y-44450000D03*
X97155000Y-53340000D03*
D10*
X97155000Y-50800000D03*
X97155000Y-57150000D03*
D11*
X97155000Y-59690000D03*
D16*
X79924873Y-44290000D03*
X84255000Y-46790000D03*
X89535000Y-50800000D03*
X90403241Y-55724039D03*
X73025000Y-60150503D03*
X78021954Y-60325000D03*
D14*
X68580000Y-44450000D03*
D15*
X71755000Y-44450000D03*
X74930000Y-44450000D03*
D17*
X91540000Y-45285000D03*
X91694012Y-58166000D03*
X80010000Y-53340000D03*
X81280000Y-48260000D03*
X74295000Y-50600000D03*
D18*
X92694011Y-46339011D02*
X92694011Y-57166001D01*
X91440000Y-45085000D02*
X92694011Y-46339011D01*
X92694011Y-57166001D02*
X91694012Y-58166000D01*
X68555319Y-62659681D02*
X67564000Y-63651000D01*
X91694012Y-58166000D02*
X87200331Y-62659681D01*
X87200331Y-62659681D02*
X68555319Y-62659681D01*
X66572000Y-64643000D02*
X67564000Y-63651000D01*
X63246000Y-64643000D02*
X66572000Y-64643000D01*
X78740000Y-50800000D02*
X81280000Y-48260000D01*
X74295000Y-50800000D02*
X78740000Y-50800000D01*
X68580000Y-46199680D02*
X68580000Y-44450000D01*
X73180320Y-50800000D02*
X68580000Y-46199680D01*
X74295000Y-50800000D02*
X77470000Y-50800000D01*
X77470000Y-50800000D02*
X80010000Y-53340000D01*
X74295000Y-50800000D02*
X73180320Y-50800000D01*
X67032000Y-60833000D02*
X67564000Y-60301000D01*
X63246000Y-60833000D02*
X67032000Y-60833000D01*
D19*
G36*
X99010001Y-66625000D02*
G01*
X57835000Y-66625000D01*
X57835000Y-59583320D01*
X61358248Y-59583320D01*
X61358248Y-62082680D01*
X61370508Y-62207162D01*
X61406818Y-62326860D01*
X61465783Y-62437174D01*
X61545135Y-62533865D01*
X61641826Y-62613217D01*
X61752140Y-62672182D01*
X61871838Y-62708492D01*
X61996320Y-62720752D01*
X64495680Y-62720752D01*
X64620162Y-62708492D01*
X64739860Y-62672182D01*
X64850174Y-62613217D01*
X64946865Y-62533865D01*
X65026217Y-62437174D01*
X65085182Y-62326860D01*
X65121492Y-62207162D01*
X65133752Y-62082680D01*
X65133752Y-61718000D01*
X66294677Y-61718000D01*
X66375595Y-61869386D01*
X66463090Y-61976000D01*
X66375595Y-62082614D01*
X66293528Y-62236150D01*
X66242992Y-62402746D01*
X66225928Y-62576000D01*
X66225928Y-63737494D01*
X66205422Y-63758000D01*
X64919384Y-63758000D01*
X64916182Y-63750269D01*
X64709926Y-63441587D01*
X64447413Y-63179074D01*
X64138731Y-62972818D01*
X63795741Y-62830747D01*
X63431625Y-62758320D01*
X63060375Y-62758320D01*
X62696259Y-62830747D01*
X62353269Y-62972818D01*
X62044587Y-63179074D01*
X61782074Y-63441587D01*
X61575818Y-63750269D01*
X61433747Y-64093259D01*
X61361320Y-64457375D01*
X61361320Y-64828625D01*
X61433747Y-65192741D01*
X61575818Y-65535731D01*
X61782074Y-65844413D01*
X62044587Y-66106926D01*
X62353269Y-66313182D01*
X62696259Y-66455253D01*
X63060375Y-66527680D01*
X63431625Y-66527680D01*
X63795741Y-66455253D01*
X64138731Y-66313182D01*
X64447413Y-66106926D01*
X64709926Y-65844413D01*
X64916182Y-65535731D01*
X64919384Y-65528000D01*
X66528531Y-65528000D01*
X66572000Y-65532281D01*
X66615469Y-65528000D01*
X66615477Y-65528000D01*
X66720280Y-65517678D01*
X66774150Y-65546472D01*
X66940746Y-65597008D01*
X67114000Y-65614072D01*
X68214000Y-65614072D01*
X68387254Y-65597008D01*
X68553850Y-65546472D01*
X68707386Y-65464405D01*
X68841962Y-65353962D01*
X68952405Y-65219386D01*
X69034472Y-65065850D01*
X69085008Y-64899254D01*
X69102072Y-64726000D01*
X69102072Y-63544681D01*
X87156862Y-63544681D01*
X87200331Y-63548962D01*
X87243800Y-63544681D01*
X87243808Y-63544681D01*
X87373821Y-63531876D01*
X87540644Y-63481270D01*
X87694390Y-63399092D01*
X87829148Y-63288498D01*
X87856865Y-63254725D01*
X91421590Y-59690000D01*
X95662815Y-59690000D01*
X95691487Y-59981111D01*
X95776401Y-60261034D01*
X95914294Y-60519014D01*
X96099866Y-60745134D01*
X96325986Y-60930706D01*
X96583966Y-61068599D01*
X96863889Y-61153513D01*
X97082050Y-61175000D01*
X97227950Y-61175000D01*
X97446111Y-61153513D01*
X97726034Y-61068599D01*
X97984014Y-60930706D01*
X98210134Y-60745134D01*
X98395706Y-60519014D01*
X98533599Y-60261034D01*
X98618513Y-59981111D01*
X98647185Y-59690000D01*
X98618513Y-59398889D01*
X98533599Y-59118966D01*
X98395706Y-58860986D01*
X98210134Y-58634866D01*
X98180313Y-58610393D01*
X98249180Y-58589502D01*
X98359494Y-58530537D01*
X98456185Y-58451185D01*
X98535537Y-58354494D01*
X98594502Y-58244180D01*
X98630812Y-58124482D01*
X98643072Y-58000000D01*
X98643072Y-56300000D01*
X98630812Y-56175518D01*
X98594502Y-56055820D01*
X98535537Y-55945506D01*
X98456185Y-55848815D01*
X98359494Y-55769463D01*
X98249180Y-55710498D01*
X98129482Y-55674188D01*
X98005000Y-55661928D01*
X96305000Y-55661928D01*
X96180518Y-55674188D01*
X96060820Y-55710498D01*
X95950506Y-55769463D01*
X95853815Y-55848815D01*
X95774463Y-55945506D01*
X95715498Y-56055820D01*
X95679188Y-56175518D01*
X95666928Y-56300000D01*
X95666928Y-58000000D01*
X95679188Y-58124482D01*
X95715498Y-58244180D01*
X95774463Y-58354494D01*
X95853815Y-58451185D01*
X95950506Y-58530537D01*
X96060820Y-58589502D01*
X96129687Y-58610393D01*
X96099866Y-58634866D01*
X95914294Y-58860986D01*
X95776401Y-59118966D01*
X95691487Y-59398889D01*
X95662815Y-59690000D01*
X91421590Y-59690000D01*
X91660591Y-59451000D01*
X91820573Y-59451000D01*
X92068833Y-59401619D01*
X92302688Y-59304753D01*
X92513152Y-59164125D01*
X92692137Y-58985140D01*
X92832765Y-58774676D01*
X92929631Y-58540821D01*
X92979012Y-58292561D01*
X92979012Y-58132579D01*
X93289060Y-57822531D01*
X93322828Y-57794818D01*
X93433422Y-57660060D01*
X93515600Y-57506314D01*
X93566206Y-57339491D01*
X93579011Y-57209478D01*
X93579011Y-57209468D01*
X93583292Y-57166002D01*
X93579011Y-57122536D01*
X93579011Y-53340000D01*
X95662815Y-53340000D01*
X95691487Y-53631111D01*
X95776401Y-53911034D01*
X95914294Y-54169014D01*
X96099866Y-54395134D01*
X96325986Y-54580706D01*
X96583966Y-54718599D01*
X96863889Y-54803513D01*
X97082050Y-54825000D01*
X97227950Y-54825000D01*
X97446111Y-54803513D01*
X97726034Y-54718599D01*
X97984014Y-54580706D01*
X98210134Y-54395134D01*
X98395706Y-54169014D01*
X98533599Y-53911034D01*
X98618513Y-53631111D01*
X98647185Y-53340000D01*
X98618513Y-53048889D01*
X98533599Y-52768966D01*
X98395706Y-52510986D01*
X98210134Y-52284866D01*
X98180313Y-52260393D01*
X98249180Y-52239502D01*
X98359494Y-52180537D01*
X98456185Y-52101185D01*
X98535537Y-52004494D01*
X98594502Y-51894180D01*
X98630812Y-51774482D01*
X98643072Y-51650000D01*
X98643072Y-49950000D01*
X98630812Y-49825518D01*
X98594502Y-49705820D01*
X98535537Y-49595506D01*
X98456185Y-49498815D01*
X98359494Y-49419463D01*
X98249180Y-49360498D01*
X98129482Y-49324188D01*
X98005000Y-49311928D01*
X96305000Y-49311928D01*
X96180518Y-49324188D01*
X96060820Y-49360498D01*
X95950506Y-49419463D01*
X95853815Y-49498815D01*
X95774463Y-49595506D01*
X95715498Y-49705820D01*
X95679188Y-49825518D01*
X95666928Y-49950000D01*
X95666928Y-51650000D01*
X95679188Y-51774482D01*
X95715498Y-51894180D01*
X95774463Y-52004494D01*
X95853815Y-52101185D01*
X95950506Y-52180537D01*
X96060820Y-52239502D01*
X96129687Y-52260393D01*
X96099866Y-52284866D01*
X95914294Y-52510986D01*
X95776401Y-52768966D01*
X95691487Y-53048889D01*
X95662815Y-53340000D01*
X93579011Y-53340000D01*
X93579011Y-46382476D01*
X93583292Y-46339010D01*
X93579011Y-46295544D01*
X93579011Y-46295534D01*
X93566206Y-46165521D01*
X93515600Y-45998698D01*
X93433422Y-45844952D01*
X93409221Y-45815463D01*
X93350543Y-45743964D01*
X93350541Y-45743962D01*
X93322828Y-45710194D01*
X93289061Y-45682482D01*
X92825000Y-45218421D01*
X92825000Y-45158439D01*
X92775619Y-44910179D01*
X92678753Y-44676324D01*
X92538125Y-44465860D01*
X92522265Y-44450000D01*
X95712815Y-44450000D01*
X95741487Y-44741111D01*
X95826401Y-45021034D01*
X95964294Y-45279014D01*
X96149866Y-45505134D01*
X96179687Y-45529607D01*
X96110820Y-45550498D01*
X96000506Y-45609463D01*
X95903815Y-45688815D01*
X95824463Y-45785506D01*
X95765498Y-45895820D01*
X95729188Y-46015518D01*
X95716928Y-46140000D01*
X95716928Y-47840000D01*
X95729188Y-47964482D01*
X95765498Y-48084180D01*
X95824463Y-48194494D01*
X95903815Y-48291185D01*
X96000506Y-48370537D01*
X96110820Y-48429502D01*
X96230518Y-48465812D01*
X96355000Y-48478072D01*
X98055000Y-48478072D01*
X98179482Y-48465812D01*
X98299180Y-48429502D01*
X98409494Y-48370537D01*
X98506185Y-48291185D01*
X98585537Y-48194494D01*
X98644502Y-48084180D01*
X98680812Y-47964482D01*
X98693072Y-47840000D01*
X98693072Y-46140000D01*
X98680812Y-46015518D01*
X98644502Y-45895820D01*
X98585537Y-45785506D01*
X98506185Y-45688815D01*
X98409494Y-45609463D01*
X98299180Y-45550498D01*
X98230313Y-45529607D01*
X98260134Y-45505134D01*
X98445706Y-45279014D01*
X98583599Y-45021034D01*
X98668513Y-44741111D01*
X98697185Y-44450000D01*
X98668513Y-44158889D01*
X98583599Y-43878966D01*
X98445706Y-43620986D01*
X98260134Y-43394866D01*
X98034014Y-43209294D01*
X97776034Y-43071401D01*
X97496111Y-42986487D01*
X97277950Y-42965000D01*
X97132050Y-42965000D01*
X96913889Y-42986487D01*
X96633966Y-43071401D01*
X96375986Y-43209294D01*
X96149866Y-43394866D01*
X95964294Y-43620986D01*
X95826401Y-43878966D01*
X95741487Y-44158889D01*
X95712815Y-44450000D01*
X92522265Y-44450000D01*
X92359140Y-44286875D01*
X92148676Y-44146247D01*
X91914821Y-44049381D01*
X91666561Y-44000000D01*
X91413439Y-44000000D01*
X91165179Y-44049381D01*
X90931324Y-44146247D01*
X90720860Y-44286875D01*
X90541875Y-44465860D01*
X90401247Y-44676324D01*
X90304381Y-44910179D01*
X90255000Y-45158439D01*
X90255000Y-45411561D01*
X90304381Y-45659821D01*
X90401247Y-45893676D01*
X90541875Y-46104140D01*
X90720860Y-46283125D01*
X90931324Y-46423753D01*
X91165179Y-46520619D01*
X91413439Y-46570000D01*
X91666561Y-46570000D01*
X91672283Y-46568862D01*
X91809011Y-46705590D01*
X91809012Y-54393306D01*
X91636732Y-54221026D01*
X91319807Y-54009264D01*
X90967660Y-53863400D01*
X90593822Y-53789039D01*
X90212660Y-53789039D01*
X89838822Y-53863400D01*
X89486675Y-54009264D01*
X89169750Y-54221026D01*
X88900228Y-54490548D01*
X88688466Y-54807473D01*
X88542602Y-55159620D01*
X88468241Y-55533458D01*
X88468241Y-55914620D01*
X88542602Y-56288458D01*
X88688466Y-56640605D01*
X88900228Y-56957530D01*
X89169750Y-57227052D01*
X89486675Y-57438814D01*
X89838822Y-57584678D01*
X90212660Y-57659039D01*
X90513127Y-57659039D01*
X90458393Y-57791179D01*
X90409012Y-58039439D01*
X90409012Y-58199421D01*
X86833753Y-61774681D01*
X79308777Y-61774681D01*
X79524967Y-61558491D01*
X79736729Y-61241566D01*
X79882593Y-60889419D01*
X79956954Y-60515581D01*
X79956954Y-60134419D01*
X79882593Y-59760581D01*
X79736729Y-59408434D01*
X79524967Y-59091509D01*
X79255445Y-58821987D01*
X78938520Y-58610225D01*
X78586373Y-58464361D01*
X78212535Y-58390000D01*
X77831373Y-58390000D01*
X77457535Y-58464361D01*
X77105388Y-58610225D01*
X76788463Y-58821987D01*
X76518941Y-59091509D01*
X76307179Y-59408434D01*
X76161315Y-59760581D01*
X76086954Y-60134419D01*
X76086954Y-60515581D01*
X76161315Y-60889419D01*
X76307179Y-61241566D01*
X76518941Y-61558491D01*
X76735131Y-61774681D01*
X74077154Y-61774681D01*
X74258491Y-61653516D01*
X74528013Y-61383994D01*
X74739775Y-61067069D01*
X74885639Y-60714922D01*
X74960000Y-60341084D01*
X74960000Y-59959922D01*
X74885639Y-59586084D01*
X74739775Y-59233937D01*
X74528013Y-58917012D01*
X74258491Y-58647490D01*
X73941566Y-58435728D01*
X73589419Y-58289864D01*
X73215581Y-58215503D01*
X72834419Y-58215503D01*
X72460581Y-58289864D01*
X72108434Y-58435728D01*
X71791509Y-58647490D01*
X71521987Y-58917012D01*
X71310225Y-59233937D01*
X71164361Y-59586084D01*
X71090000Y-59959922D01*
X71090000Y-60341084D01*
X71164361Y-60714922D01*
X71310225Y-61067069D01*
X71521987Y-61383994D01*
X71791509Y-61653516D01*
X71972846Y-61774681D01*
X69003026Y-61774681D01*
X69034472Y-61715850D01*
X69085008Y-61549254D01*
X69102072Y-61376000D01*
X69102072Y-59226000D01*
X69085008Y-59052746D01*
X69034472Y-58886150D01*
X68952405Y-58732614D01*
X68841962Y-58598038D01*
X68707386Y-58487595D01*
X68553850Y-58405528D01*
X68387254Y-58354992D01*
X68214000Y-58337928D01*
X67114000Y-58337928D01*
X66940746Y-58354992D01*
X66774150Y-58405528D01*
X66620614Y-58487595D01*
X66486038Y-58598038D01*
X66375595Y-58732614D01*
X66293528Y-58886150D01*
X66242992Y-59052746D01*
X66225928Y-59226000D01*
X66225928Y-59948000D01*
X65133752Y-59948000D01*
X65133752Y-59583320D01*
X65121492Y-59458838D01*
X65085182Y-59339140D01*
X65026217Y-59228826D01*
X64946865Y-59132135D01*
X64850174Y-59052783D01*
X64739860Y-58993818D01*
X64620162Y-58957508D01*
X64495680Y-58945248D01*
X61996320Y-58945248D01*
X61871838Y-58957508D01*
X61752140Y-58993818D01*
X61641826Y-59052783D01*
X61545135Y-59132135D01*
X61465783Y-59228826D01*
X61406818Y-59339140D01*
X61370508Y-59458838D01*
X61358248Y-59583320D01*
X57835000Y-59583320D01*
X57835000Y-44450000D01*
X63277815Y-44450000D01*
X63306487Y-44741111D01*
X63391401Y-45021034D01*
X63529294Y-45279014D01*
X63714866Y-45505134D01*
X63940986Y-45690706D01*
X63995791Y-45720000D01*
X63940986Y-45749294D01*
X63714866Y-45934866D01*
X63529294Y-46160986D01*
X63391401Y-46418966D01*
X63306487Y-46698889D01*
X63277815Y-46990000D01*
X63306487Y-47281111D01*
X63391401Y-47561034D01*
X63529294Y-47819014D01*
X63714866Y-48045134D01*
X63940986Y-48230706D01*
X63995791Y-48260000D01*
X63940986Y-48289294D01*
X63714866Y-48474866D01*
X63529294Y-48700986D01*
X63391401Y-48958966D01*
X63306487Y-49238889D01*
X63277815Y-49530000D01*
X63306487Y-49821111D01*
X63391401Y-50101034D01*
X63529294Y-50359014D01*
X63714866Y-50585134D01*
X63940986Y-50770706D01*
X63995791Y-50800000D01*
X63940986Y-50829294D01*
X63714866Y-51014866D01*
X63529294Y-51240986D01*
X63391401Y-51498966D01*
X63306487Y-51778889D01*
X63277815Y-52070000D01*
X63306487Y-52361111D01*
X63391401Y-52641034D01*
X63529294Y-52899014D01*
X63714866Y-53125134D01*
X63940986Y-53310706D01*
X63995791Y-53340000D01*
X63940986Y-53369294D01*
X63714866Y-53554866D01*
X63529294Y-53780986D01*
X63391401Y-54038966D01*
X63306487Y-54318889D01*
X63277815Y-54610000D01*
X63306487Y-54901111D01*
X63391401Y-55181034D01*
X63529294Y-55439014D01*
X63714866Y-55665134D01*
X63744687Y-55689607D01*
X63675820Y-55710498D01*
X63565506Y-55769463D01*
X63468815Y-55848815D01*
X63389463Y-55945506D01*
X63330498Y-56055820D01*
X63294188Y-56175518D01*
X63281928Y-56300000D01*
X63281928Y-58000000D01*
X63294188Y-58124482D01*
X63330498Y-58244180D01*
X63389463Y-58354494D01*
X63468815Y-58451185D01*
X63565506Y-58530537D01*
X63675820Y-58589502D01*
X63795518Y-58625812D01*
X63920000Y-58638072D01*
X65620000Y-58638072D01*
X65744482Y-58625812D01*
X65864180Y-58589502D01*
X65974494Y-58530537D01*
X66071185Y-58451185D01*
X66150537Y-58354494D01*
X66209502Y-58244180D01*
X66245812Y-58124482D01*
X66258072Y-58000000D01*
X66258072Y-56300000D01*
X66245812Y-56175518D01*
X66209502Y-56055820D01*
X66150537Y-55945506D01*
X66071185Y-55848815D01*
X65974494Y-55769463D01*
X65864180Y-55710498D01*
X65795313Y-55689607D01*
X65825134Y-55665134D01*
X66010706Y-55439014D01*
X66148599Y-55181034D01*
X66233513Y-54901111D01*
X66262185Y-54610000D01*
X66233513Y-54318889D01*
X66148599Y-54038966D01*
X66010706Y-53780986D01*
X65825134Y-53554866D01*
X65599014Y-53369294D01*
X65544209Y-53340000D01*
X65599014Y-53310706D01*
X65825134Y-53125134D01*
X66010706Y-52899014D01*
X66148599Y-52641034D01*
X66233513Y-52361111D01*
X66262185Y-52070000D01*
X66233513Y-51778889D01*
X66148599Y-51498966D01*
X66010706Y-51240986D01*
X65825134Y-51014866D01*
X65599014Y-50829294D01*
X65544209Y-50800000D01*
X65599014Y-50770706D01*
X65825134Y-50585134D01*
X66010706Y-50359014D01*
X66148599Y-50101034D01*
X66233513Y-49821111D01*
X66262185Y-49530000D01*
X66233513Y-49238889D01*
X66148599Y-48958966D01*
X66010706Y-48700986D01*
X65825134Y-48474866D01*
X65599014Y-48289294D01*
X65544209Y-48260000D01*
X65599014Y-48230706D01*
X65825134Y-48045134D01*
X66010706Y-47819014D01*
X66148599Y-47561034D01*
X66233513Y-47281111D01*
X66262185Y-46990000D01*
X66233513Y-46698889D01*
X66148599Y-46418966D01*
X66010706Y-46160986D01*
X65825134Y-45934866D01*
X65599014Y-45749294D01*
X65544209Y-45720000D01*
X65599014Y-45690706D01*
X65825134Y-45505134D01*
X66010706Y-45279014D01*
X66148599Y-45021034D01*
X66233513Y-44741111D01*
X66262185Y-44450000D01*
X66233513Y-44158889D01*
X66148599Y-43878966D01*
X66010706Y-43620986D01*
X65825134Y-43394866D01*
X65599014Y-43209294D01*
X65582225Y-43200320D01*
X66692248Y-43200320D01*
X66692248Y-45699680D01*
X66704508Y-45824162D01*
X66740818Y-45943860D01*
X66799783Y-46054174D01*
X66879135Y-46150865D01*
X66975826Y-46230217D01*
X67086140Y-46289182D01*
X67205838Y-46325492D01*
X67330320Y-46337752D01*
X67704317Y-46337752D01*
X67707805Y-46373169D01*
X67758411Y-46539992D01*
X67840589Y-46693738D01*
X67951183Y-46828497D01*
X67984956Y-46856214D01*
X72523790Y-51395049D01*
X72551503Y-51428817D01*
X72585271Y-51456530D01*
X72585273Y-51456532D01*
X72636979Y-51498966D01*
X72686261Y-51539411D01*
X72840007Y-51621589D01*
X72933664Y-51650000D01*
X73006829Y-51672195D01*
X73021626Y-51673652D01*
X73136843Y-51685000D01*
X73136851Y-51685000D01*
X73180320Y-51689281D01*
X73223789Y-51685000D01*
X73605877Y-51685000D01*
X73686324Y-51738753D01*
X73920179Y-51835619D01*
X74168439Y-51885000D01*
X74421561Y-51885000D01*
X74669821Y-51835619D01*
X74903676Y-51738753D01*
X74984123Y-51685000D01*
X77103422Y-51685000D01*
X78725000Y-53306579D01*
X78725000Y-53466561D01*
X78774381Y-53714821D01*
X78871247Y-53948676D01*
X79011875Y-54159140D01*
X79190860Y-54338125D01*
X79401324Y-54478753D01*
X79635179Y-54575619D01*
X79883439Y-54625000D01*
X80136561Y-54625000D01*
X80384821Y-54575619D01*
X80618676Y-54478753D01*
X80829140Y-54338125D01*
X81008125Y-54159140D01*
X81148753Y-53948676D01*
X81245619Y-53714821D01*
X81295000Y-53466561D01*
X81295000Y-53213439D01*
X81245619Y-52965179D01*
X81148753Y-52731324D01*
X81008125Y-52520860D01*
X80829140Y-52341875D01*
X80618676Y-52201247D01*
X80384821Y-52104381D01*
X80136561Y-52055000D01*
X79976579Y-52055000D01*
X79358699Y-51437121D01*
X79368817Y-51428817D01*
X79396534Y-51395044D01*
X80182159Y-50609419D01*
X87600000Y-50609419D01*
X87600000Y-50990581D01*
X87674361Y-51364419D01*
X87820225Y-51716566D01*
X88031987Y-52033491D01*
X88301509Y-52303013D01*
X88618434Y-52514775D01*
X88970581Y-52660639D01*
X89344419Y-52735000D01*
X89725581Y-52735000D01*
X90099419Y-52660639D01*
X90451566Y-52514775D01*
X90768491Y-52303013D01*
X91038013Y-52033491D01*
X91249775Y-51716566D01*
X91395639Y-51364419D01*
X91470000Y-50990581D01*
X91470000Y-50609419D01*
X91395639Y-50235581D01*
X91249775Y-49883434D01*
X91038013Y-49566509D01*
X90768491Y-49296987D01*
X90451566Y-49085225D01*
X90099419Y-48939361D01*
X89725581Y-48865000D01*
X89344419Y-48865000D01*
X88970581Y-48939361D01*
X88618434Y-49085225D01*
X88301509Y-49296987D01*
X88031987Y-49566509D01*
X87820225Y-49883434D01*
X87674361Y-50235581D01*
X87600000Y-50609419D01*
X80182159Y-50609419D01*
X81246579Y-49545000D01*
X81406561Y-49545000D01*
X81654821Y-49495619D01*
X81888676Y-49398753D01*
X82099140Y-49258125D01*
X82278125Y-49079140D01*
X82418753Y-48868676D01*
X82515619Y-48634821D01*
X82565000Y-48386561D01*
X82565000Y-48133439D01*
X82515619Y-47885179D01*
X82418753Y-47651324D01*
X82278125Y-47440860D01*
X82099140Y-47261875D01*
X81888676Y-47121247D01*
X81654821Y-47024381D01*
X81406561Y-46975000D01*
X81153439Y-46975000D01*
X80905179Y-47024381D01*
X80671324Y-47121247D01*
X80460860Y-47261875D01*
X80281875Y-47440860D01*
X80141247Y-47651324D01*
X80044381Y-47885179D01*
X79995000Y-48133439D01*
X79995000Y-48293421D01*
X78373422Y-49915000D01*
X77513469Y-49915000D01*
X77470000Y-49910719D01*
X77426531Y-49915000D01*
X75382755Y-49915000D01*
X75293125Y-49780860D01*
X75114140Y-49601875D01*
X74903676Y-49461247D01*
X74669821Y-49364381D01*
X74421561Y-49315000D01*
X74168439Y-49315000D01*
X73920179Y-49364381D01*
X73686324Y-49461247D01*
X73475860Y-49601875D01*
X73354817Y-49722918D01*
X70231318Y-46599419D01*
X82320000Y-46599419D01*
X82320000Y-46980581D01*
X82394361Y-47354419D01*
X82540225Y-47706566D01*
X82751987Y-48023491D01*
X83021509Y-48293013D01*
X83338434Y-48504775D01*
X83690581Y-48650639D01*
X84064419Y-48725000D01*
X84445581Y-48725000D01*
X84819419Y-48650639D01*
X85171566Y-48504775D01*
X85488491Y-48293013D01*
X85758013Y-48023491D01*
X85969775Y-47706566D01*
X86115639Y-47354419D01*
X86190000Y-46980581D01*
X86190000Y-46599419D01*
X86115639Y-46225581D01*
X85969775Y-45873434D01*
X85758013Y-45556509D01*
X85488491Y-45286987D01*
X85171566Y-45075225D01*
X84819419Y-44929361D01*
X84445581Y-44855000D01*
X84064419Y-44855000D01*
X83690581Y-44929361D01*
X83338434Y-45075225D01*
X83021509Y-45286987D01*
X82751987Y-45556509D01*
X82540225Y-45873434D01*
X82394361Y-46225581D01*
X82320000Y-46599419D01*
X70231318Y-46599419D01*
X69956639Y-46324741D01*
X70073860Y-46289182D01*
X70184174Y-46230217D01*
X70280865Y-46150865D01*
X70360217Y-46054174D01*
X70419182Y-45943860D01*
X70455492Y-45824162D01*
X70456239Y-45816578D01*
X70553587Y-45913926D01*
X70862269Y-46120182D01*
X71205259Y-46262253D01*
X71569375Y-46334680D01*
X71940625Y-46334680D01*
X72304741Y-46262253D01*
X72647731Y-46120182D01*
X72956413Y-45913926D01*
X73218926Y-45651413D01*
X73342500Y-45466473D01*
X73466074Y-45651413D01*
X73728587Y-45913926D01*
X74037269Y-46120182D01*
X74380259Y-46262253D01*
X74744375Y-46334680D01*
X75115625Y-46334680D01*
X75479741Y-46262253D01*
X75822731Y-46120182D01*
X76131413Y-45913926D01*
X76393926Y-45651413D01*
X76600182Y-45342731D01*
X76742253Y-44999741D01*
X76814680Y-44635625D01*
X76814680Y-44264375D01*
X76781869Y-44099419D01*
X77989873Y-44099419D01*
X77989873Y-44480581D01*
X78064234Y-44854419D01*
X78210098Y-45206566D01*
X78421860Y-45523491D01*
X78691382Y-45793013D01*
X79008307Y-46004775D01*
X79360454Y-46150639D01*
X79734292Y-46225000D01*
X80115454Y-46225000D01*
X80489292Y-46150639D01*
X80841439Y-46004775D01*
X81158364Y-45793013D01*
X81427886Y-45523491D01*
X81639648Y-45206566D01*
X81785512Y-44854419D01*
X81859873Y-44480581D01*
X81859873Y-44099419D01*
X81785512Y-43725581D01*
X81639648Y-43373434D01*
X81427886Y-43056509D01*
X81158364Y-42786987D01*
X80841439Y-42575225D01*
X80489292Y-42429361D01*
X80115454Y-42355000D01*
X79734292Y-42355000D01*
X79360454Y-42429361D01*
X79008307Y-42575225D01*
X78691382Y-42786987D01*
X78421860Y-43056509D01*
X78210098Y-43373434D01*
X78064234Y-43725581D01*
X77989873Y-44099419D01*
X76781869Y-44099419D01*
X76742253Y-43900259D01*
X76600182Y-43557269D01*
X76393926Y-43248587D01*
X76131413Y-42986074D01*
X75822731Y-42779818D01*
X75479741Y-42637747D01*
X75115625Y-42565320D01*
X74744375Y-42565320D01*
X74380259Y-42637747D01*
X74037269Y-42779818D01*
X73728587Y-42986074D01*
X73466074Y-43248587D01*
X73342500Y-43433527D01*
X73218926Y-43248587D01*
X72956413Y-42986074D01*
X72647731Y-42779818D01*
X72304741Y-42637747D01*
X71940625Y-42565320D01*
X71569375Y-42565320D01*
X71205259Y-42637747D01*
X70862269Y-42779818D01*
X70553587Y-42986074D01*
X70456239Y-43083422D01*
X70455492Y-43075838D01*
X70419182Y-42956140D01*
X70360217Y-42845826D01*
X70280865Y-42749135D01*
X70184174Y-42669783D01*
X70073860Y-42610818D01*
X69954162Y-42574508D01*
X69829680Y-42562248D01*
X67330320Y-42562248D01*
X67205838Y-42574508D01*
X67086140Y-42610818D01*
X66975826Y-42669783D01*
X66879135Y-42749135D01*
X66799783Y-42845826D01*
X66740818Y-42956140D01*
X66704508Y-43075838D01*
X66692248Y-43200320D01*
X65582225Y-43200320D01*
X65341034Y-43071401D01*
X65061111Y-42986487D01*
X64842950Y-42965000D01*
X64697050Y-42965000D01*
X64478889Y-42986487D01*
X64198966Y-43071401D01*
X63940986Y-43209294D01*
X63714866Y-43394866D01*
X63529294Y-43620986D01*
X63391401Y-43878966D01*
X63306487Y-44158889D01*
X63277815Y-44450000D01*
X57835000Y-44450000D01*
X57835000Y-38785000D01*
X99010000Y-38785000D01*
X99010001Y-66625000D01*
X99010001Y-66625000D01*
G37*
X99010001Y-66625000D02*
X57835000Y-66625000D01*
X57835000Y-59583320D01*
X61358248Y-59583320D01*
X61358248Y-62082680D01*
X61370508Y-62207162D01*
X61406818Y-62326860D01*
X61465783Y-62437174D01*
X61545135Y-62533865D01*
X61641826Y-62613217D01*
X61752140Y-62672182D01*
X61871838Y-62708492D01*
X61996320Y-62720752D01*
X64495680Y-62720752D01*
X64620162Y-62708492D01*
X64739860Y-62672182D01*
X64850174Y-62613217D01*
X64946865Y-62533865D01*
X65026217Y-62437174D01*
X65085182Y-62326860D01*
X65121492Y-62207162D01*
X65133752Y-62082680D01*
X65133752Y-61718000D01*
X66294677Y-61718000D01*
X66375595Y-61869386D01*
X66463090Y-61976000D01*
X66375595Y-62082614D01*
X66293528Y-62236150D01*
X66242992Y-62402746D01*
X66225928Y-62576000D01*
X66225928Y-63737494D01*
X66205422Y-63758000D01*
X64919384Y-63758000D01*
X64916182Y-63750269D01*
X64709926Y-63441587D01*
X64447413Y-63179074D01*
X64138731Y-62972818D01*
X63795741Y-62830747D01*
X63431625Y-62758320D01*
X63060375Y-62758320D01*
X62696259Y-62830747D01*
X62353269Y-62972818D01*
X62044587Y-63179074D01*
X61782074Y-63441587D01*
X61575818Y-63750269D01*
X61433747Y-64093259D01*
X61361320Y-64457375D01*
X61361320Y-64828625D01*
X61433747Y-65192741D01*
X61575818Y-65535731D01*
X61782074Y-65844413D01*
X62044587Y-66106926D01*
X62353269Y-66313182D01*
X62696259Y-66455253D01*
X63060375Y-66527680D01*
X63431625Y-66527680D01*
X63795741Y-66455253D01*
X64138731Y-66313182D01*
X64447413Y-66106926D01*
X64709926Y-65844413D01*
X64916182Y-65535731D01*
X64919384Y-65528000D01*
X66528531Y-65528000D01*
X66572000Y-65532281D01*
X66615469Y-65528000D01*
X66615477Y-65528000D01*
X66720280Y-65517678D01*
X66774150Y-65546472D01*
X66940746Y-65597008D01*
X67114000Y-65614072D01*
X68214000Y-65614072D01*
X68387254Y-65597008D01*
X68553850Y-65546472D01*
X68707386Y-65464405D01*
X68841962Y-65353962D01*
X68952405Y-65219386D01*
X69034472Y-65065850D01*
X69085008Y-64899254D01*
X69102072Y-64726000D01*
X69102072Y-63544681D01*
X87156862Y-63544681D01*
X87200331Y-63548962D01*
X87243800Y-63544681D01*
X87243808Y-63544681D01*
X87373821Y-63531876D01*
X87540644Y-63481270D01*
X87694390Y-63399092D01*
X87829148Y-63288498D01*
X87856865Y-63254725D01*
X91421590Y-59690000D01*
X95662815Y-59690000D01*
X95691487Y-59981111D01*
X95776401Y-60261034D01*
X95914294Y-60519014D01*
X96099866Y-60745134D01*
X96325986Y-60930706D01*
X96583966Y-61068599D01*
X96863889Y-61153513D01*
X97082050Y-61175000D01*
X97227950Y-61175000D01*
X97446111Y-61153513D01*
X97726034Y-61068599D01*
X97984014Y-60930706D01*
X98210134Y-60745134D01*
X98395706Y-60519014D01*
X98533599Y-60261034D01*
X98618513Y-59981111D01*
X98647185Y-59690000D01*
X98618513Y-59398889D01*
X98533599Y-59118966D01*
X98395706Y-58860986D01*
X98210134Y-58634866D01*
X98180313Y-58610393D01*
X98249180Y-58589502D01*
X98359494Y-58530537D01*
X98456185Y-58451185D01*
X98535537Y-58354494D01*
X98594502Y-58244180D01*
X98630812Y-58124482D01*
X98643072Y-58000000D01*
X98643072Y-56300000D01*
X98630812Y-56175518D01*
X98594502Y-56055820D01*
X98535537Y-55945506D01*
X98456185Y-55848815D01*
X98359494Y-55769463D01*
X98249180Y-55710498D01*
X98129482Y-55674188D01*
X98005000Y-55661928D01*
X96305000Y-55661928D01*
X96180518Y-55674188D01*
X96060820Y-55710498D01*
X95950506Y-55769463D01*
X95853815Y-55848815D01*
X95774463Y-55945506D01*
X95715498Y-56055820D01*
X95679188Y-56175518D01*
X95666928Y-56300000D01*
X95666928Y-58000000D01*
X95679188Y-58124482D01*
X95715498Y-58244180D01*
X95774463Y-58354494D01*
X95853815Y-58451185D01*
X95950506Y-58530537D01*
X96060820Y-58589502D01*
X96129687Y-58610393D01*
X96099866Y-58634866D01*
X95914294Y-58860986D01*
X95776401Y-59118966D01*
X95691487Y-59398889D01*
X95662815Y-59690000D01*
X91421590Y-59690000D01*
X91660591Y-59451000D01*
X91820573Y-59451000D01*
X92068833Y-59401619D01*
X92302688Y-59304753D01*
X92513152Y-59164125D01*
X92692137Y-58985140D01*
X92832765Y-58774676D01*
X92929631Y-58540821D01*
X92979012Y-58292561D01*
X92979012Y-58132579D01*
X93289060Y-57822531D01*
X93322828Y-57794818D01*
X93433422Y-57660060D01*
X93515600Y-57506314D01*
X93566206Y-57339491D01*
X93579011Y-57209478D01*
X93579011Y-57209468D01*
X93583292Y-57166002D01*
X93579011Y-57122536D01*
X93579011Y-53340000D01*
X95662815Y-53340000D01*
X95691487Y-53631111D01*
X95776401Y-53911034D01*
X95914294Y-54169014D01*
X96099866Y-54395134D01*
X96325986Y-54580706D01*
X96583966Y-54718599D01*
X96863889Y-54803513D01*
X97082050Y-54825000D01*
X97227950Y-54825000D01*
X97446111Y-54803513D01*
X97726034Y-54718599D01*
X97984014Y-54580706D01*
X98210134Y-54395134D01*
X98395706Y-54169014D01*
X98533599Y-53911034D01*
X98618513Y-53631111D01*
X98647185Y-53340000D01*
X98618513Y-53048889D01*
X98533599Y-52768966D01*
X98395706Y-52510986D01*
X98210134Y-52284866D01*
X98180313Y-52260393D01*
X98249180Y-52239502D01*
X98359494Y-52180537D01*
X98456185Y-52101185D01*
X98535537Y-52004494D01*
X98594502Y-51894180D01*
X98630812Y-51774482D01*
X98643072Y-51650000D01*
X98643072Y-49950000D01*
X98630812Y-49825518D01*
X98594502Y-49705820D01*
X98535537Y-49595506D01*
X98456185Y-49498815D01*
X98359494Y-49419463D01*
X98249180Y-49360498D01*
X98129482Y-49324188D01*
X98005000Y-49311928D01*
X96305000Y-49311928D01*
X96180518Y-49324188D01*
X96060820Y-49360498D01*
X95950506Y-49419463D01*
X95853815Y-49498815D01*
X95774463Y-49595506D01*
X95715498Y-49705820D01*
X95679188Y-49825518D01*
X95666928Y-49950000D01*
X95666928Y-51650000D01*
X95679188Y-51774482D01*
X95715498Y-51894180D01*
X95774463Y-52004494D01*
X95853815Y-52101185D01*
X95950506Y-52180537D01*
X96060820Y-52239502D01*
X96129687Y-52260393D01*
X96099866Y-52284866D01*
X95914294Y-52510986D01*
X95776401Y-52768966D01*
X95691487Y-53048889D01*
X95662815Y-53340000D01*
X93579011Y-53340000D01*
X93579011Y-46382476D01*
X93583292Y-46339010D01*
X93579011Y-46295544D01*
X93579011Y-46295534D01*
X93566206Y-46165521D01*
X93515600Y-45998698D01*
X93433422Y-45844952D01*
X93409221Y-45815463D01*
X93350543Y-45743964D01*
X93350541Y-45743962D01*
X93322828Y-45710194D01*
X93289061Y-45682482D01*
X92825000Y-45218421D01*
X92825000Y-45158439D01*
X92775619Y-44910179D01*
X92678753Y-44676324D01*
X92538125Y-44465860D01*
X92522265Y-44450000D01*
X95712815Y-44450000D01*
X95741487Y-44741111D01*
X95826401Y-45021034D01*
X95964294Y-45279014D01*
X96149866Y-45505134D01*
X96179687Y-45529607D01*
X96110820Y-45550498D01*
X96000506Y-45609463D01*
X95903815Y-45688815D01*
X95824463Y-45785506D01*
X95765498Y-45895820D01*
X95729188Y-46015518D01*
X95716928Y-46140000D01*
X95716928Y-47840000D01*
X95729188Y-47964482D01*
X95765498Y-48084180D01*
X95824463Y-48194494D01*
X95903815Y-48291185D01*
X96000506Y-48370537D01*
X96110820Y-48429502D01*
X96230518Y-48465812D01*
X96355000Y-48478072D01*
X98055000Y-48478072D01*
X98179482Y-48465812D01*
X98299180Y-48429502D01*
X98409494Y-48370537D01*
X98506185Y-48291185D01*
X98585537Y-48194494D01*
X98644502Y-48084180D01*
X98680812Y-47964482D01*
X98693072Y-47840000D01*
X98693072Y-46140000D01*
X98680812Y-46015518D01*
X98644502Y-45895820D01*
X98585537Y-45785506D01*
X98506185Y-45688815D01*
X98409494Y-45609463D01*
X98299180Y-45550498D01*
X98230313Y-45529607D01*
X98260134Y-45505134D01*
X98445706Y-45279014D01*
X98583599Y-45021034D01*
X98668513Y-44741111D01*
X98697185Y-44450000D01*
X98668513Y-44158889D01*
X98583599Y-43878966D01*
X98445706Y-43620986D01*
X98260134Y-43394866D01*
X98034014Y-43209294D01*
X97776034Y-43071401D01*
X97496111Y-42986487D01*
X97277950Y-42965000D01*
X97132050Y-42965000D01*
X96913889Y-42986487D01*
X96633966Y-43071401D01*
X96375986Y-43209294D01*
X96149866Y-43394866D01*
X95964294Y-43620986D01*
X95826401Y-43878966D01*
X95741487Y-44158889D01*
X95712815Y-44450000D01*
X92522265Y-44450000D01*
X92359140Y-44286875D01*
X92148676Y-44146247D01*
X91914821Y-44049381D01*
X91666561Y-44000000D01*
X91413439Y-44000000D01*
X91165179Y-44049381D01*
X90931324Y-44146247D01*
X90720860Y-44286875D01*
X90541875Y-44465860D01*
X90401247Y-44676324D01*
X90304381Y-44910179D01*
X90255000Y-45158439D01*
X90255000Y-45411561D01*
X90304381Y-45659821D01*
X90401247Y-45893676D01*
X90541875Y-46104140D01*
X90720860Y-46283125D01*
X90931324Y-46423753D01*
X91165179Y-46520619D01*
X91413439Y-46570000D01*
X91666561Y-46570000D01*
X91672283Y-46568862D01*
X91809011Y-46705590D01*
X91809012Y-54393306D01*
X91636732Y-54221026D01*
X91319807Y-54009264D01*
X90967660Y-53863400D01*
X90593822Y-53789039D01*
X90212660Y-53789039D01*
X89838822Y-53863400D01*
X89486675Y-54009264D01*
X89169750Y-54221026D01*
X88900228Y-54490548D01*
X88688466Y-54807473D01*
X88542602Y-55159620D01*
X88468241Y-55533458D01*
X88468241Y-55914620D01*
X88542602Y-56288458D01*
X88688466Y-56640605D01*
X88900228Y-56957530D01*
X89169750Y-57227052D01*
X89486675Y-57438814D01*
X89838822Y-57584678D01*
X90212660Y-57659039D01*
X90513127Y-57659039D01*
X90458393Y-57791179D01*
X90409012Y-58039439D01*
X90409012Y-58199421D01*
X86833753Y-61774681D01*
X79308777Y-61774681D01*
X79524967Y-61558491D01*
X79736729Y-61241566D01*
X79882593Y-60889419D01*
X79956954Y-60515581D01*
X79956954Y-60134419D01*
X79882593Y-59760581D01*
X79736729Y-59408434D01*
X79524967Y-59091509D01*
X79255445Y-58821987D01*
X78938520Y-58610225D01*
X78586373Y-58464361D01*
X78212535Y-58390000D01*
X77831373Y-58390000D01*
X77457535Y-58464361D01*
X77105388Y-58610225D01*
X76788463Y-58821987D01*
X76518941Y-59091509D01*
X76307179Y-59408434D01*
X76161315Y-59760581D01*
X76086954Y-60134419D01*
X76086954Y-60515581D01*
X76161315Y-60889419D01*
X76307179Y-61241566D01*
X76518941Y-61558491D01*
X76735131Y-61774681D01*
X74077154Y-61774681D01*
X74258491Y-61653516D01*
X74528013Y-61383994D01*
X74739775Y-61067069D01*
X74885639Y-60714922D01*
X74960000Y-60341084D01*
X74960000Y-59959922D01*
X74885639Y-59586084D01*
X74739775Y-59233937D01*
X74528013Y-58917012D01*
X74258491Y-58647490D01*
X73941566Y-58435728D01*
X73589419Y-58289864D01*
X73215581Y-58215503D01*
X72834419Y-58215503D01*
X72460581Y-58289864D01*
X72108434Y-58435728D01*
X71791509Y-58647490D01*
X71521987Y-58917012D01*
X71310225Y-59233937D01*
X71164361Y-59586084D01*
X71090000Y-59959922D01*
X71090000Y-60341084D01*
X71164361Y-60714922D01*
X71310225Y-61067069D01*
X71521987Y-61383994D01*
X71791509Y-61653516D01*
X71972846Y-61774681D01*
X69003026Y-61774681D01*
X69034472Y-61715850D01*
X69085008Y-61549254D01*
X69102072Y-61376000D01*
X69102072Y-59226000D01*
X69085008Y-59052746D01*
X69034472Y-58886150D01*
X68952405Y-58732614D01*
X68841962Y-58598038D01*
X68707386Y-58487595D01*
X68553850Y-58405528D01*
X68387254Y-58354992D01*
X68214000Y-58337928D01*
X67114000Y-58337928D01*
X66940746Y-58354992D01*
X66774150Y-58405528D01*
X66620614Y-58487595D01*
X66486038Y-58598038D01*
X66375595Y-58732614D01*
X66293528Y-58886150D01*
X66242992Y-59052746D01*
X66225928Y-59226000D01*
X66225928Y-59948000D01*
X65133752Y-59948000D01*
X65133752Y-59583320D01*
X65121492Y-59458838D01*
X65085182Y-59339140D01*
X65026217Y-59228826D01*
X64946865Y-59132135D01*
X64850174Y-59052783D01*
X64739860Y-58993818D01*
X64620162Y-58957508D01*
X64495680Y-58945248D01*
X61996320Y-58945248D01*
X61871838Y-58957508D01*
X61752140Y-58993818D01*
X61641826Y-59052783D01*
X61545135Y-59132135D01*
X61465783Y-59228826D01*
X61406818Y-59339140D01*
X61370508Y-59458838D01*
X61358248Y-59583320D01*
X57835000Y-59583320D01*
X57835000Y-44450000D01*
X63277815Y-44450000D01*
X63306487Y-44741111D01*
X63391401Y-45021034D01*
X63529294Y-45279014D01*
X63714866Y-45505134D01*
X63940986Y-45690706D01*
X63995791Y-45720000D01*
X63940986Y-45749294D01*
X63714866Y-45934866D01*
X63529294Y-46160986D01*
X63391401Y-46418966D01*
X63306487Y-46698889D01*
X63277815Y-46990000D01*
X63306487Y-47281111D01*
X63391401Y-47561034D01*
X63529294Y-47819014D01*
X63714866Y-48045134D01*
X63940986Y-48230706D01*
X63995791Y-48260000D01*
X63940986Y-48289294D01*
X63714866Y-48474866D01*
X63529294Y-48700986D01*
X63391401Y-48958966D01*
X63306487Y-49238889D01*
X63277815Y-49530000D01*
X63306487Y-49821111D01*
X63391401Y-50101034D01*
X63529294Y-50359014D01*
X63714866Y-50585134D01*
X63940986Y-50770706D01*
X63995791Y-50800000D01*
X63940986Y-50829294D01*
X63714866Y-51014866D01*
X63529294Y-51240986D01*
X63391401Y-51498966D01*
X63306487Y-51778889D01*
X63277815Y-52070000D01*
X63306487Y-52361111D01*
X63391401Y-52641034D01*
X63529294Y-52899014D01*
X63714866Y-53125134D01*
X63940986Y-53310706D01*
X63995791Y-53340000D01*
X63940986Y-53369294D01*
X63714866Y-53554866D01*
X63529294Y-53780986D01*
X63391401Y-54038966D01*
X63306487Y-54318889D01*
X63277815Y-54610000D01*
X63306487Y-54901111D01*
X63391401Y-55181034D01*
X63529294Y-55439014D01*
X63714866Y-55665134D01*
X63744687Y-55689607D01*
X63675820Y-55710498D01*
X63565506Y-55769463D01*
X63468815Y-55848815D01*
X63389463Y-55945506D01*
X63330498Y-56055820D01*
X63294188Y-56175518D01*
X63281928Y-56300000D01*
X63281928Y-58000000D01*
X63294188Y-58124482D01*
X63330498Y-58244180D01*
X63389463Y-58354494D01*
X63468815Y-58451185D01*
X63565506Y-58530537D01*
X63675820Y-58589502D01*
X63795518Y-58625812D01*
X63920000Y-58638072D01*
X65620000Y-58638072D01*
X65744482Y-58625812D01*
X65864180Y-58589502D01*
X65974494Y-58530537D01*
X66071185Y-58451185D01*
X66150537Y-58354494D01*
X66209502Y-58244180D01*
X66245812Y-58124482D01*
X66258072Y-58000000D01*
X66258072Y-56300000D01*
X66245812Y-56175518D01*
X66209502Y-56055820D01*
X66150537Y-55945506D01*
X66071185Y-55848815D01*
X65974494Y-55769463D01*
X65864180Y-55710498D01*
X65795313Y-55689607D01*
X65825134Y-55665134D01*
X66010706Y-55439014D01*
X66148599Y-55181034D01*
X66233513Y-54901111D01*
X66262185Y-54610000D01*
X66233513Y-54318889D01*
X66148599Y-54038966D01*
X66010706Y-53780986D01*
X65825134Y-53554866D01*
X65599014Y-53369294D01*
X65544209Y-53340000D01*
X65599014Y-53310706D01*
X65825134Y-53125134D01*
X66010706Y-52899014D01*
X66148599Y-52641034D01*
X66233513Y-52361111D01*
X66262185Y-52070000D01*
X66233513Y-51778889D01*
X66148599Y-51498966D01*
X66010706Y-51240986D01*
X65825134Y-51014866D01*
X65599014Y-50829294D01*
X65544209Y-50800000D01*
X65599014Y-50770706D01*
X65825134Y-50585134D01*
X66010706Y-50359014D01*
X66148599Y-50101034D01*
X66233513Y-49821111D01*
X66262185Y-49530000D01*
X66233513Y-49238889D01*
X66148599Y-48958966D01*
X66010706Y-48700986D01*
X65825134Y-48474866D01*
X65599014Y-48289294D01*
X65544209Y-48260000D01*
X65599014Y-48230706D01*
X65825134Y-48045134D01*
X66010706Y-47819014D01*
X66148599Y-47561034D01*
X66233513Y-47281111D01*
X66262185Y-46990000D01*
X66233513Y-46698889D01*
X66148599Y-46418966D01*
X66010706Y-46160986D01*
X65825134Y-45934866D01*
X65599014Y-45749294D01*
X65544209Y-45720000D01*
X65599014Y-45690706D01*
X65825134Y-45505134D01*
X66010706Y-45279014D01*
X66148599Y-45021034D01*
X66233513Y-44741111D01*
X66262185Y-44450000D01*
X66233513Y-44158889D01*
X66148599Y-43878966D01*
X66010706Y-43620986D01*
X65825134Y-43394866D01*
X65599014Y-43209294D01*
X65582225Y-43200320D01*
X66692248Y-43200320D01*
X66692248Y-45699680D01*
X66704508Y-45824162D01*
X66740818Y-45943860D01*
X66799783Y-46054174D01*
X66879135Y-46150865D01*
X66975826Y-46230217D01*
X67086140Y-46289182D01*
X67205838Y-46325492D01*
X67330320Y-46337752D01*
X67704317Y-46337752D01*
X67707805Y-46373169D01*
X67758411Y-46539992D01*
X67840589Y-46693738D01*
X67951183Y-46828497D01*
X67984956Y-46856214D01*
X72523790Y-51395049D01*
X72551503Y-51428817D01*
X72585271Y-51456530D01*
X72585273Y-51456532D01*
X72636979Y-51498966D01*
X72686261Y-51539411D01*
X72840007Y-51621589D01*
X72933664Y-51650000D01*
X73006829Y-51672195D01*
X73021626Y-51673652D01*
X73136843Y-51685000D01*
X73136851Y-51685000D01*
X73180320Y-51689281D01*
X73223789Y-51685000D01*
X73605877Y-51685000D01*
X73686324Y-51738753D01*
X73920179Y-51835619D01*
X74168439Y-51885000D01*
X74421561Y-51885000D01*
X74669821Y-51835619D01*
X74903676Y-51738753D01*
X74984123Y-51685000D01*
X77103422Y-51685000D01*
X78725000Y-53306579D01*
X78725000Y-53466561D01*
X78774381Y-53714821D01*
X78871247Y-53948676D01*
X79011875Y-54159140D01*
X79190860Y-54338125D01*
X79401324Y-54478753D01*
X79635179Y-54575619D01*
X79883439Y-54625000D01*
X80136561Y-54625000D01*
X80384821Y-54575619D01*
X80618676Y-54478753D01*
X80829140Y-54338125D01*
X81008125Y-54159140D01*
X81148753Y-53948676D01*
X81245619Y-53714821D01*
X81295000Y-53466561D01*
X81295000Y-53213439D01*
X81245619Y-52965179D01*
X81148753Y-52731324D01*
X81008125Y-52520860D01*
X80829140Y-52341875D01*
X80618676Y-52201247D01*
X80384821Y-52104381D01*
X80136561Y-52055000D01*
X79976579Y-52055000D01*
X79358699Y-51437121D01*
X79368817Y-51428817D01*
X79396534Y-51395044D01*
X80182159Y-50609419D01*
X87600000Y-50609419D01*
X87600000Y-50990581D01*
X87674361Y-51364419D01*
X87820225Y-51716566D01*
X88031987Y-52033491D01*
X88301509Y-52303013D01*
X88618434Y-52514775D01*
X88970581Y-52660639D01*
X89344419Y-52735000D01*
X89725581Y-52735000D01*
X90099419Y-52660639D01*
X90451566Y-52514775D01*
X90768491Y-52303013D01*
X91038013Y-52033491D01*
X91249775Y-51716566D01*
X91395639Y-51364419D01*
X91470000Y-50990581D01*
X91470000Y-50609419D01*
X91395639Y-50235581D01*
X91249775Y-49883434D01*
X91038013Y-49566509D01*
X90768491Y-49296987D01*
X90451566Y-49085225D01*
X90099419Y-48939361D01*
X89725581Y-48865000D01*
X89344419Y-48865000D01*
X88970581Y-48939361D01*
X88618434Y-49085225D01*
X88301509Y-49296987D01*
X88031987Y-49566509D01*
X87820225Y-49883434D01*
X87674361Y-50235581D01*
X87600000Y-50609419D01*
X80182159Y-50609419D01*
X81246579Y-49545000D01*
X81406561Y-49545000D01*
X81654821Y-49495619D01*
X81888676Y-49398753D01*
X82099140Y-49258125D01*
X82278125Y-49079140D01*
X82418753Y-48868676D01*
X82515619Y-48634821D01*
X82565000Y-48386561D01*
X82565000Y-48133439D01*
X82515619Y-47885179D01*
X82418753Y-47651324D01*
X82278125Y-47440860D01*
X82099140Y-47261875D01*
X81888676Y-47121247D01*
X81654821Y-47024381D01*
X81406561Y-46975000D01*
X81153439Y-46975000D01*
X80905179Y-47024381D01*
X80671324Y-47121247D01*
X80460860Y-47261875D01*
X80281875Y-47440860D01*
X80141247Y-47651324D01*
X80044381Y-47885179D01*
X79995000Y-48133439D01*
X79995000Y-48293421D01*
X78373422Y-49915000D01*
X77513469Y-49915000D01*
X77470000Y-49910719D01*
X77426531Y-49915000D01*
X75382755Y-49915000D01*
X75293125Y-49780860D01*
X75114140Y-49601875D01*
X74903676Y-49461247D01*
X74669821Y-49364381D01*
X74421561Y-49315000D01*
X74168439Y-49315000D01*
X73920179Y-49364381D01*
X73686324Y-49461247D01*
X73475860Y-49601875D01*
X73354817Y-49722918D01*
X70231318Y-46599419D01*
X82320000Y-46599419D01*
X82320000Y-46980581D01*
X82394361Y-47354419D01*
X82540225Y-47706566D01*
X82751987Y-48023491D01*
X83021509Y-48293013D01*
X83338434Y-48504775D01*
X83690581Y-48650639D01*
X84064419Y-48725000D01*
X84445581Y-48725000D01*
X84819419Y-48650639D01*
X85171566Y-48504775D01*
X85488491Y-48293013D01*
X85758013Y-48023491D01*
X85969775Y-47706566D01*
X86115639Y-47354419D01*
X86190000Y-46980581D01*
X86190000Y-46599419D01*
X86115639Y-46225581D01*
X85969775Y-45873434D01*
X85758013Y-45556509D01*
X85488491Y-45286987D01*
X85171566Y-45075225D01*
X84819419Y-44929361D01*
X84445581Y-44855000D01*
X84064419Y-44855000D01*
X83690581Y-44929361D01*
X83338434Y-45075225D01*
X83021509Y-45286987D01*
X82751987Y-45556509D01*
X82540225Y-45873434D01*
X82394361Y-46225581D01*
X82320000Y-46599419D01*
X70231318Y-46599419D01*
X69956639Y-46324741D01*
X70073860Y-46289182D01*
X70184174Y-46230217D01*
X70280865Y-46150865D01*
X70360217Y-46054174D01*
X70419182Y-45943860D01*
X70455492Y-45824162D01*
X70456239Y-45816578D01*
X70553587Y-45913926D01*
X70862269Y-46120182D01*
X71205259Y-46262253D01*
X71569375Y-46334680D01*
X71940625Y-46334680D01*
X72304741Y-46262253D01*
X72647731Y-46120182D01*
X72956413Y-45913926D01*
X73218926Y-45651413D01*
X73342500Y-45466473D01*
X73466074Y-45651413D01*
X73728587Y-45913926D01*
X74037269Y-46120182D01*
X74380259Y-46262253D01*
X74744375Y-46334680D01*
X75115625Y-46334680D01*
X75479741Y-46262253D01*
X75822731Y-46120182D01*
X76131413Y-45913926D01*
X76393926Y-45651413D01*
X76600182Y-45342731D01*
X76742253Y-44999741D01*
X76814680Y-44635625D01*
X76814680Y-44264375D01*
X76781869Y-44099419D01*
X77989873Y-44099419D01*
X77989873Y-44480581D01*
X78064234Y-44854419D01*
X78210098Y-45206566D01*
X78421860Y-45523491D01*
X78691382Y-45793013D01*
X79008307Y-46004775D01*
X79360454Y-46150639D01*
X79734292Y-46225000D01*
X80115454Y-46225000D01*
X80489292Y-46150639D01*
X80841439Y-46004775D01*
X81158364Y-45793013D01*
X81427886Y-45523491D01*
X81639648Y-45206566D01*
X81785512Y-44854419D01*
X81859873Y-44480581D01*
X81859873Y-44099419D01*
X81785512Y-43725581D01*
X81639648Y-43373434D01*
X81427886Y-43056509D01*
X81158364Y-42786987D01*
X80841439Y-42575225D01*
X80489292Y-42429361D01*
X80115454Y-42355000D01*
X79734292Y-42355000D01*
X79360454Y-42429361D01*
X79008307Y-42575225D01*
X78691382Y-42786987D01*
X78421860Y-43056509D01*
X78210098Y-43373434D01*
X78064234Y-43725581D01*
X77989873Y-44099419D01*
X76781869Y-44099419D01*
X76742253Y-43900259D01*
X76600182Y-43557269D01*
X76393926Y-43248587D01*
X76131413Y-42986074D01*
X75822731Y-42779818D01*
X75479741Y-42637747D01*
X75115625Y-42565320D01*
X74744375Y-42565320D01*
X74380259Y-42637747D01*
X74037269Y-42779818D01*
X73728587Y-42986074D01*
X73466074Y-43248587D01*
X73342500Y-43433527D01*
X73218926Y-43248587D01*
X72956413Y-42986074D01*
X72647731Y-42779818D01*
X72304741Y-42637747D01*
X71940625Y-42565320D01*
X71569375Y-42565320D01*
X71205259Y-42637747D01*
X70862269Y-42779818D01*
X70553587Y-42986074D01*
X70456239Y-43083422D01*
X70455492Y-43075838D01*
X70419182Y-42956140D01*
X70360217Y-42845826D01*
X70280865Y-42749135D01*
X70184174Y-42669783D01*
X70073860Y-42610818D01*
X69954162Y-42574508D01*
X69829680Y-42562248D01*
X67330320Y-42562248D01*
X67205838Y-42574508D01*
X67086140Y-42610818D01*
X66975826Y-42669783D01*
X66879135Y-42749135D01*
X66799783Y-42845826D01*
X66740818Y-42956140D01*
X66704508Y-43075838D01*
X66692248Y-43200320D01*
X65582225Y-43200320D01*
X65341034Y-43071401D01*
X65061111Y-42986487D01*
X64842950Y-42965000D01*
X64697050Y-42965000D01*
X64478889Y-42986487D01*
X64198966Y-43071401D01*
X63940986Y-43209294D01*
X63714866Y-43394866D01*
X63529294Y-43620986D01*
X63391401Y-43878966D01*
X63306487Y-44158889D01*
X63277815Y-44450000D01*
X57835000Y-44450000D01*
X57835000Y-38785000D01*
X99010000Y-38785000D01*
X99010001Y-66625000D01*
M02*
