M48
; DRILL file {KiCad (5.1.0)-1} date 16.04.2019 2:18:01
; FORMAT={-:-/ absolute / metric / decimal}
; #@! TF.CreationDate,2019-04-16T02:18:01+07:00
; #@! TF.GenerationSoftware,Kicad,Pcbnew,(5.1.0)-1
; #@! TF.FileFunction,Plated,1,2,PTH
FMAT,2
METRIC
T1C0.800
T2C1.000
T3C1.001
%
G90
G05
T1
X74.295Y-50.6
X80.01Y-53.34
X81.28Y-48.26
X91.54Y-45.285
X91.694Y-58.166
T2
X97.155Y-50.8
X97.155Y-53.34
X89.535Y-50.8
X90.403Y-55.724
X79.925Y-44.29
X84.255Y-46.79
X64.77Y-44.45
X64.77Y-46.99
X64.77Y-49.53
X64.77Y-52.07
X64.77Y-54.61
X64.77Y-57.15
X97.155Y-57.15
X97.155Y-59.69
X97.205Y-44.45
X97.205Y-46.99
X73.025Y-60.151
X78.022Y-60.325
T3
X68.58Y-44.45
X71.755Y-44.45
X74.93Y-44.45
X63.246Y-60.833
X63.246Y-64.643
T0
M30
