G04 #@! TF.GenerationSoftware,KiCad,Pcbnew,(5.1.0)-1*
G04 #@! TF.CreationDate,2019-04-16T02:17:24+07:00*
G04 #@! TF.ProjectId,Bano,42616e6f-2e6b-4696-9361-645f70636258,rev?*
G04 #@! TF.SameCoordinates,Original*
G04 #@! TF.FileFunction,Legend,Top*
G04 #@! TF.FilePolarity,Positive*
%FSLAX46Y46*%
G04 Gerber Fmt 4.6, Leading zero omitted, Abs format (unit mm)*
G04 Created by KiCad (PCBNEW (5.1.0)-1) date 2019-04-16 02:17:24*
%MOMM*%
%LPD*%
G04 APERTURE LIST*
%ADD10C,0.150000*%
%ADD11C,0.120000*%
G04 APERTURE END LIST*
D10*
X64470238Y-40727380D02*
X65089285Y-40727380D01*
X64755952Y-41108333D01*
X64898809Y-41108333D01*
X64994047Y-41155952D01*
X65041666Y-41203571D01*
X65089285Y-41298809D01*
X65089285Y-41536904D01*
X65041666Y-41632142D01*
X64994047Y-41679761D01*
X64898809Y-41727380D01*
X64613095Y-41727380D01*
X64517857Y-41679761D01*
X64470238Y-41632142D01*
X65994047Y-40727380D02*
X65517857Y-40727380D01*
X65470238Y-41203571D01*
X65517857Y-41155952D01*
X65613095Y-41108333D01*
X65851190Y-41108333D01*
X65946428Y-41155952D01*
X65994047Y-41203571D01*
X66041666Y-41298809D01*
X66041666Y-41536904D01*
X65994047Y-41632142D01*
X65946428Y-41679761D01*
X65851190Y-41727380D01*
X65613095Y-41727380D01*
X65517857Y-41679761D01*
X65470238Y-41632142D01*
X66660714Y-40727380D02*
X66755952Y-40727380D01*
X66851190Y-40775000D01*
X66898809Y-40822619D01*
X66946428Y-40917857D01*
X66994047Y-41108333D01*
X66994047Y-41346428D01*
X66946428Y-41536904D01*
X66898809Y-41632142D01*
X66851190Y-41679761D01*
X66755952Y-41727380D01*
X66660714Y-41727380D01*
X66565476Y-41679761D01*
X66517857Y-41632142D01*
X66470238Y-41536904D01*
X66422619Y-41346428D01*
X66422619Y-41108333D01*
X66470238Y-40917857D01*
X66517857Y-40822619D01*
X66565476Y-40775000D01*
X66660714Y-40727380D01*
X68184523Y-41727380D02*
X68184523Y-41060714D01*
X68184523Y-41155952D02*
X68232142Y-41108333D01*
X68327380Y-41060714D01*
X68470238Y-41060714D01*
X68565476Y-41108333D01*
X68613095Y-41203571D01*
X68613095Y-41727380D01*
X68613095Y-41203571D02*
X68660714Y-41108333D01*
X68755952Y-41060714D01*
X68898809Y-41060714D01*
X68994047Y-41108333D01*
X69041666Y-41203571D01*
X69041666Y-41727380D01*
X69470238Y-41441666D02*
X69946428Y-41441666D01*
X69375000Y-41727380D02*
X69708333Y-40727380D01*
X70041666Y-41727380D01*
X71136904Y-41727380D02*
X71136904Y-41060714D01*
X71136904Y-41155952D02*
X71184523Y-41108333D01*
X71279761Y-41060714D01*
X71422619Y-41060714D01*
X71517857Y-41108333D01*
X71565476Y-41203571D01*
X71565476Y-41727380D01*
X71565476Y-41203571D02*
X71613095Y-41108333D01*
X71708333Y-41060714D01*
X71851190Y-41060714D01*
X71946428Y-41108333D01*
X71994047Y-41203571D01*
X71994047Y-41727380D01*
X72898809Y-41727380D02*
X72898809Y-41203571D01*
X72851190Y-41108333D01*
X72755952Y-41060714D01*
X72565476Y-41060714D01*
X72470238Y-41108333D01*
X72898809Y-41679761D02*
X72803571Y-41727380D01*
X72565476Y-41727380D01*
X72470238Y-41679761D01*
X72422619Y-41584523D01*
X72422619Y-41489285D01*
X72470238Y-41394047D01*
X72565476Y-41346428D01*
X72803571Y-41346428D01*
X72898809Y-41298809D01*
X73279761Y-41727380D02*
X73803571Y-41060714D01*
X73279761Y-41060714D02*
X73803571Y-41727380D01*
X75375000Y-41679761D02*
X75279761Y-41727380D01*
X75089285Y-41727380D01*
X74994047Y-41679761D01*
X74946428Y-41632142D01*
X74898809Y-41536904D01*
X74898809Y-41251190D01*
X74946428Y-41155952D01*
X74994047Y-41108333D01*
X75089285Y-41060714D01*
X75279761Y-41060714D01*
X75375000Y-41108333D01*
X76232142Y-41060714D02*
X76232142Y-41727380D01*
X75803571Y-41060714D02*
X75803571Y-41584523D01*
X75851190Y-41679761D01*
X75946428Y-41727380D01*
X76089285Y-41727380D01*
X76184523Y-41679761D01*
X76232142Y-41632142D01*
X76708333Y-41727380D02*
X76708333Y-41060714D01*
X76708333Y-41251190D02*
X76755952Y-41155952D01*
X76803571Y-41108333D01*
X76898809Y-41060714D01*
X76994047Y-41060714D01*
X77327380Y-41727380D02*
X77327380Y-41060714D01*
X77327380Y-41251190D02*
X77375000Y-41155952D01*
X77422619Y-41108333D01*
X77517857Y-41060714D01*
X77613095Y-41060714D01*
X78327380Y-41679761D02*
X78232142Y-41727380D01*
X78041666Y-41727380D01*
X77946428Y-41679761D01*
X77898809Y-41584523D01*
X77898809Y-41203571D01*
X77946428Y-41108333D01*
X78041666Y-41060714D01*
X78232142Y-41060714D01*
X78327380Y-41108333D01*
X78375000Y-41203571D01*
X78375000Y-41298809D01*
X77898809Y-41394047D01*
X78803571Y-41060714D02*
X78803571Y-41727380D01*
X78803571Y-41155952D02*
X78851190Y-41108333D01*
X78946428Y-41060714D01*
X79089285Y-41060714D01*
X79184523Y-41108333D01*
X79232142Y-41203571D01*
X79232142Y-41727380D01*
X79565476Y-41060714D02*
X79946428Y-41060714D01*
X79708333Y-40727380D02*
X79708333Y-41584523D01*
X79755952Y-41679761D01*
X79851190Y-41727380D01*
X79946428Y-41727380D01*
X81422619Y-41679761D02*
X81327380Y-41727380D01*
X81136904Y-41727380D01*
X81041666Y-41679761D01*
X80994047Y-41584523D01*
X80994047Y-41203571D01*
X81041666Y-41108333D01*
X81136904Y-41060714D01*
X81327380Y-41060714D01*
X81422619Y-41108333D01*
X81470238Y-41203571D01*
X81470238Y-41298809D01*
X80994047Y-41394047D01*
X82327380Y-41727380D02*
X82327380Y-41203571D01*
X82279761Y-41108333D01*
X82184523Y-41060714D01*
X81994047Y-41060714D01*
X81898809Y-41108333D01*
X82327380Y-41679761D02*
X82232142Y-41727380D01*
X81994047Y-41727380D01*
X81898809Y-41679761D01*
X81851190Y-41584523D01*
X81851190Y-41489285D01*
X81898809Y-41394047D01*
X81994047Y-41346428D01*
X82232142Y-41346428D01*
X82327380Y-41298809D01*
X83232142Y-41679761D02*
X83136904Y-41727380D01*
X82946428Y-41727380D01*
X82851190Y-41679761D01*
X82803571Y-41632142D01*
X82755952Y-41536904D01*
X82755952Y-41251190D01*
X82803571Y-41155952D01*
X82851190Y-41108333D01*
X82946428Y-41060714D01*
X83136904Y-41060714D01*
X83232142Y-41108333D01*
X83660714Y-41727380D02*
X83660714Y-40727380D01*
X84089285Y-41727380D02*
X84089285Y-41203571D01*
X84041666Y-41108333D01*
X83946428Y-41060714D01*
X83803571Y-41060714D01*
X83708333Y-41108333D01*
X83660714Y-41155952D01*
X85803571Y-41727380D02*
X85327380Y-41727380D01*
X85327380Y-40727380D01*
X86136904Y-41203571D02*
X86470238Y-41203571D01*
X86613095Y-41727380D02*
X86136904Y-41727380D01*
X86136904Y-40727380D01*
X86613095Y-40727380D01*
X87041666Y-41727380D02*
X87041666Y-40727380D01*
X87279761Y-40727380D01*
X87422619Y-40775000D01*
X87517857Y-40870238D01*
X87565476Y-40965476D01*
X87613095Y-41155952D01*
X87613095Y-41298809D01*
X87565476Y-41489285D01*
X87517857Y-41584523D01*
X87422619Y-41679761D01*
X87279761Y-41727380D01*
X87041666Y-41727380D01*
X89232142Y-41679761D02*
X89136904Y-41727380D01*
X88946428Y-41727380D01*
X88851190Y-41679761D01*
X88803571Y-41632142D01*
X88755952Y-41536904D01*
X88755952Y-41251190D01*
X88803571Y-41155952D01*
X88851190Y-41108333D01*
X88946428Y-41060714D01*
X89136904Y-41060714D01*
X89232142Y-41108333D01*
X89660714Y-41727380D02*
X89660714Y-40727380D01*
X90089285Y-41727380D02*
X90089285Y-41203571D01*
X90041666Y-41108333D01*
X89946428Y-41060714D01*
X89803571Y-41060714D01*
X89708333Y-41108333D01*
X89660714Y-41155952D01*
X90994047Y-41727380D02*
X90994047Y-41203571D01*
X90946428Y-41108333D01*
X90851190Y-41060714D01*
X90660714Y-41060714D01*
X90565476Y-41108333D01*
X90994047Y-41679761D02*
X90898809Y-41727380D01*
X90660714Y-41727380D01*
X90565476Y-41679761D01*
X90517857Y-41584523D01*
X90517857Y-41489285D01*
X90565476Y-41394047D01*
X90660714Y-41346428D01*
X90898809Y-41346428D01*
X90994047Y-41298809D01*
X91470238Y-41060714D02*
X91470238Y-41727380D01*
X91470238Y-41155952D02*
X91517857Y-41108333D01*
X91613095Y-41060714D01*
X91755952Y-41060714D01*
X91851190Y-41108333D01*
X91898809Y-41203571D01*
X91898809Y-41727380D01*
X92374999Y-41060714D02*
X92374999Y-41727380D01*
X92374999Y-41155952D02*
X92422619Y-41108333D01*
X92517857Y-41060714D01*
X92660714Y-41060714D01*
X92755952Y-41108333D01*
X92803571Y-41203571D01*
X92803571Y-41727380D01*
X93660714Y-41679761D02*
X93565476Y-41727380D01*
X93374999Y-41727380D01*
X93279761Y-41679761D01*
X93232142Y-41584523D01*
X93232142Y-41203571D01*
X93279761Y-41108333D01*
X93374999Y-41060714D01*
X93565476Y-41060714D01*
X93660714Y-41108333D01*
X93708333Y-41203571D01*
X93708333Y-41298809D01*
X93232142Y-41394047D01*
X94279761Y-41727380D02*
X94184523Y-41679761D01*
X94136904Y-41584523D01*
X94136904Y-40727380D01*
X67708285Y-64857380D02*
X68041619Y-65857380D01*
X68374952Y-64857380D01*
X68708285Y-65762142D02*
X68755904Y-65809761D01*
X68708285Y-65857380D01*
X68660666Y-65809761D01*
X68708285Y-65762142D01*
X68708285Y-65857380D01*
X69041619Y-64857380D02*
X69374952Y-65857380D01*
X69708285Y-64857380D01*
X70041619Y-65762142D02*
X70089238Y-65809761D01*
X70041619Y-65857380D01*
X69994000Y-65809761D01*
X70041619Y-65762142D01*
X70041619Y-65857380D01*
X70517809Y-65857380D02*
X70517809Y-64857380D01*
X70898761Y-64857380D01*
X70994000Y-64905000D01*
X71041619Y-64952619D01*
X71089238Y-65047857D01*
X71089238Y-65190714D01*
X71041619Y-65285952D01*
X70994000Y-65333571D01*
X70898761Y-65381190D01*
X70517809Y-65381190D01*
X71946380Y-65857380D02*
X71946380Y-65333571D01*
X71898761Y-65238333D01*
X71803523Y-65190714D01*
X71613047Y-65190714D01*
X71517809Y-65238333D01*
X71946380Y-65809761D02*
X71851142Y-65857380D01*
X71613047Y-65857380D01*
X71517809Y-65809761D01*
X71470190Y-65714523D01*
X71470190Y-65619285D01*
X71517809Y-65524047D01*
X71613047Y-65476428D01*
X71851142Y-65476428D01*
X71946380Y-65428809D01*
X72422571Y-65190714D02*
X72422571Y-65857380D01*
X72422571Y-65285952D02*
X72470190Y-65238333D01*
X72565428Y-65190714D01*
X72708285Y-65190714D01*
X72803523Y-65238333D01*
X72851142Y-65333571D01*
X72851142Y-65857380D01*
X73184476Y-65190714D02*
X73565428Y-65190714D01*
X73327333Y-65857380D02*
X73327333Y-65000238D01*
X73374952Y-64905000D01*
X73470190Y-64857380D01*
X73565428Y-64857380D01*
X73898761Y-65857380D02*
X73898761Y-65190714D01*
X73898761Y-64857380D02*
X73851142Y-64905000D01*
X73898761Y-64952619D01*
X73946380Y-64905000D01*
X73898761Y-64857380D01*
X73898761Y-64952619D01*
X74517809Y-65857380D02*
X74422571Y-65809761D01*
X74374952Y-65714523D01*
X74374952Y-64857380D01*
X75041619Y-65857380D02*
X74946380Y-65809761D01*
X74898761Y-65762142D01*
X74851142Y-65666904D01*
X74851142Y-65381190D01*
X74898761Y-65285952D01*
X74946380Y-65238333D01*
X75041619Y-65190714D01*
X75184476Y-65190714D01*
X75279714Y-65238333D01*
X75327333Y-65285952D01*
X75374952Y-65381190D01*
X75374952Y-65666904D01*
X75327333Y-65762142D01*
X75279714Y-65809761D01*
X75184476Y-65857380D01*
X75041619Y-65857380D01*
X75708285Y-65190714D02*
X75946380Y-65857380D01*
X76184476Y-65190714D01*
X77184476Y-65381190D02*
X77136857Y-65333571D01*
X77041619Y-65285952D01*
X76946380Y-65285952D01*
X76851142Y-65333571D01*
X76803523Y-65381190D01*
X76755904Y-65476428D01*
X76755904Y-65571666D01*
X76803523Y-65666904D01*
X76851142Y-65714523D01*
X76946380Y-65762142D01*
X77041619Y-65762142D01*
X77136857Y-65714523D01*
X77184476Y-65666904D01*
X77184476Y-65285952D02*
X77184476Y-65666904D01*
X77232095Y-65714523D01*
X77279714Y-65714523D01*
X77374952Y-65666904D01*
X77422571Y-65571666D01*
X77422571Y-65333571D01*
X77327333Y-65190714D01*
X77184476Y-65095476D01*
X76993999Y-65047857D01*
X76803523Y-65095476D01*
X76660666Y-65190714D01*
X76565428Y-65333571D01*
X76517809Y-65524047D01*
X76565428Y-65714523D01*
X76660666Y-65857380D01*
X76803523Y-65952619D01*
X76993999Y-66000238D01*
X77184476Y-65952619D01*
X77327333Y-65857380D01*
X78279714Y-65190714D02*
X78279714Y-66000238D01*
X78232095Y-66095476D01*
X78184476Y-66143095D01*
X78089238Y-66190714D01*
X77946380Y-66190714D01*
X77851142Y-66143095D01*
X78279714Y-65809761D02*
X78184476Y-65857380D01*
X77993999Y-65857380D01*
X77898761Y-65809761D01*
X77851142Y-65762142D01*
X77803523Y-65666904D01*
X77803523Y-65381190D01*
X77851142Y-65285952D01*
X77898761Y-65238333D01*
X77993999Y-65190714D01*
X78184476Y-65190714D01*
X78279714Y-65238333D01*
X78755904Y-65857380D02*
X78755904Y-65190714D01*
X78755904Y-65285952D02*
X78803523Y-65238333D01*
X78898761Y-65190714D01*
X79041619Y-65190714D01*
X79136857Y-65238333D01*
X79184476Y-65333571D01*
X79184476Y-65857380D01*
X79184476Y-65333571D02*
X79232095Y-65238333D01*
X79327333Y-65190714D01*
X79470190Y-65190714D01*
X79565428Y-65238333D01*
X79613047Y-65333571D01*
X79613047Y-65857380D01*
X80517809Y-65857380D02*
X80517809Y-65333571D01*
X80470190Y-65238333D01*
X80374952Y-65190714D01*
X80184476Y-65190714D01*
X80089238Y-65238333D01*
X80517809Y-65809761D02*
X80422571Y-65857380D01*
X80184476Y-65857380D01*
X80089238Y-65809761D01*
X80041619Y-65714523D01*
X80041619Y-65619285D01*
X80089238Y-65524047D01*
X80184476Y-65476428D01*
X80422571Y-65476428D01*
X80517809Y-65428809D01*
X80994000Y-65857380D02*
X80994000Y-65190714D01*
X80994000Y-64857380D02*
X80946380Y-64905000D01*
X80994000Y-64952619D01*
X81041619Y-64905000D01*
X80994000Y-64857380D01*
X80994000Y-64952619D01*
X81613047Y-65857380D02*
X81517809Y-65809761D01*
X81470190Y-65714523D01*
X81470190Y-64857380D01*
X81994000Y-65762142D02*
X82041619Y-65809761D01*
X81994000Y-65857380D01*
X81946380Y-65809761D01*
X81994000Y-65762142D01*
X81994000Y-65857380D01*
X82898761Y-65809761D02*
X82803523Y-65857380D01*
X82613047Y-65857380D01*
X82517809Y-65809761D01*
X82470190Y-65762142D01*
X82422571Y-65666904D01*
X82422571Y-65381190D01*
X82470190Y-65285952D01*
X82517809Y-65238333D01*
X82613047Y-65190714D01*
X82803523Y-65190714D01*
X82898761Y-65238333D01*
X83470190Y-65857380D02*
X83374952Y-65809761D01*
X83327333Y-65762142D01*
X83279714Y-65666904D01*
X83279714Y-65381190D01*
X83327333Y-65285952D01*
X83374952Y-65238333D01*
X83470190Y-65190714D01*
X83613047Y-65190714D01*
X83708285Y-65238333D01*
X83755904Y-65285952D01*
X83803523Y-65381190D01*
X83803523Y-65666904D01*
X83755904Y-65762142D01*
X83708285Y-65809761D01*
X83613047Y-65857380D01*
X83470190Y-65857380D01*
X84232095Y-65857380D02*
X84232095Y-65190714D01*
X84232095Y-65285952D02*
X84279714Y-65238333D01*
X84374952Y-65190714D01*
X84517809Y-65190714D01*
X84613047Y-65238333D01*
X84660666Y-65333571D01*
X84660666Y-65857380D01*
X84660666Y-65333571D02*
X84708285Y-65238333D01*
X84803523Y-65190714D01*
X84946380Y-65190714D01*
X85041619Y-65238333D01*
X85089238Y-65333571D01*
X85089238Y-65857380D01*
X85613047Y-65809761D02*
X85613047Y-65857380D01*
X85565428Y-65952619D01*
X85517809Y-66000238D01*
X86755904Y-64952619D02*
X86803523Y-64905000D01*
X86898761Y-64857380D01*
X87136857Y-64857380D01*
X87232095Y-64905000D01*
X87279714Y-64952619D01*
X87327333Y-65047857D01*
X87327333Y-65143095D01*
X87279714Y-65285952D01*
X86708285Y-65857380D01*
X87327333Y-65857380D01*
X87946380Y-64857380D02*
X88041619Y-64857380D01*
X88136857Y-64905000D01*
X88184476Y-64952619D01*
X88232095Y-65047857D01*
X88279714Y-65238333D01*
X88279714Y-65476428D01*
X88232095Y-65666904D01*
X88184476Y-65762142D01*
X88136857Y-65809761D01*
X88041619Y-65857380D01*
X87946380Y-65857380D01*
X87851142Y-65809761D01*
X87803523Y-65762142D01*
X87755904Y-65666904D01*
X87708285Y-65476428D01*
X87708285Y-65238333D01*
X87755904Y-65047857D01*
X87803523Y-64952619D01*
X87851142Y-64905000D01*
X87946380Y-64857380D01*
X89232095Y-65857380D02*
X88660666Y-65857380D01*
X88946380Y-65857380D02*
X88946380Y-64857380D01*
X88851142Y-65000238D01*
X88755904Y-65095476D01*
X88660666Y-65143095D01*
X89708285Y-65857380D02*
X89898761Y-65857380D01*
X89993999Y-65809761D01*
X90041619Y-65762142D01*
X90136857Y-65619285D01*
X90184476Y-65428809D01*
X90184476Y-65047857D01*
X90136857Y-64952619D01*
X90089238Y-64905000D01*
X89993999Y-64857380D01*
X89803523Y-64857380D01*
X89708285Y-64905000D01*
X89660666Y-64952619D01*
X89613047Y-65047857D01*
X89613047Y-65285952D01*
X89660666Y-65381190D01*
X89708285Y-65428809D01*
X89803523Y-65476428D01*
X89993999Y-65476428D01*
X90089238Y-65428809D01*
X90136857Y-65381190D01*
X90184476Y-65285952D01*
X67795571Y-39663666D02*
X68271761Y-39663666D01*
X67700333Y-39949380D02*
X68033666Y-38949380D01*
X68367000Y-39949380D01*
X68700333Y-39949380D02*
X68700333Y-39282714D01*
X68700333Y-38949380D02*
X68652714Y-38997000D01*
X68700333Y-39044619D01*
X68747952Y-38997000D01*
X68700333Y-38949380D01*
X68700333Y-39044619D01*
X69176523Y-39949380D02*
X69176523Y-39282714D01*
X69176523Y-39473190D02*
X69224142Y-39377952D01*
X69271761Y-39330333D01*
X69367000Y-39282714D01*
X69462238Y-39282714D01*
X70224142Y-39901761D02*
X70128904Y-39949380D01*
X69938428Y-39949380D01*
X69843190Y-39901761D01*
X69795571Y-39854142D01*
X69747952Y-39758904D01*
X69747952Y-39473190D01*
X69795571Y-39377952D01*
X69843190Y-39330333D01*
X69938428Y-39282714D01*
X70128904Y-39282714D01*
X70224142Y-39330333D01*
X70652714Y-39949380D02*
X70652714Y-39282714D01*
X70652714Y-39473190D02*
X70700333Y-39377952D01*
X70747952Y-39330333D01*
X70843190Y-39282714D01*
X70938428Y-39282714D01*
X71700333Y-39949380D02*
X71700333Y-39425571D01*
X71652714Y-39330333D01*
X71557476Y-39282714D01*
X71367000Y-39282714D01*
X71271761Y-39330333D01*
X71700333Y-39901761D02*
X71605095Y-39949380D01*
X71367000Y-39949380D01*
X71271761Y-39901761D01*
X71224142Y-39806523D01*
X71224142Y-39711285D01*
X71271761Y-39616047D01*
X71367000Y-39568428D01*
X71605095Y-39568428D01*
X71700333Y-39520809D01*
X72033666Y-39282714D02*
X72414619Y-39282714D01*
X72176523Y-39949380D02*
X72176523Y-39092238D01*
X72224142Y-38997000D01*
X72319380Y-38949380D01*
X72414619Y-38949380D01*
X72605095Y-39282714D02*
X72986047Y-39282714D01*
X72747952Y-38949380D02*
X72747952Y-39806523D01*
X72795571Y-39901761D01*
X72890809Y-39949380D01*
X72986047Y-39949380D01*
X74081285Y-39949380D02*
X74081285Y-38949380D01*
X74462238Y-38949380D01*
X74557476Y-38997000D01*
X74605095Y-39044619D01*
X74652714Y-39139857D01*
X74652714Y-39282714D01*
X74605095Y-39377952D01*
X74557476Y-39425571D01*
X74462238Y-39473190D01*
X74081285Y-39473190D01*
X75224142Y-39949380D02*
X75128904Y-39901761D01*
X75081285Y-39854142D01*
X75033666Y-39758904D01*
X75033666Y-39473190D01*
X75081285Y-39377952D01*
X75128904Y-39330333D01*
X75224142Y-39282714D01*
X75367000Y-39282714D01*
X75462238Y-39330333D01*
X75509857Y-39377952D01*
X75557476Y-39473190D01*
X75557476Y-39758904D01*
X75509857Y-39854142D01*
X75462238Y-39901761D01*
X75367000Y-39949380D01*
X75224142Y-39949380D01*
X75938428Y-39901761D02*
X76033666Y-39949380D01*
X76224142Y-39949380D01*
X76319380Y-39901761D01*
X76367000Y-39806523D01*
X76367000Y-39758904D01*
X76319380Y-39663666D01*
X76224142Y-39616047D01*
X76081285Y-39616047D01*
X75986047Y-39568428D01*
X75938428Y-39473190D01*
X75938428Y-39425571D01*
X75986047Y-39330333D01*
X76081285Y-39282714D01*
X76224142Y-39282714D01*
X76319380Y-39330333D01*
X76795571Y-39949380D02*
X76795571Y-39282714D01*
X76795571Y-38949380D02*
X76747952Y-38997000D01*
X76795571Y-39044619D01*
X76843190Y-38997000D01*
X76795571Y-38949380D01*
X76795571Y-39044619D01*
X77128904Y-39282714D02*
X77509857Y-39282714D01*
X77271761Y-38949380D02*
X77271761Y-39806523D01*
X77319380Y-39901761D01*
X77414619Y-39949380D01*
X77509857Y-39949380D01*
X77843190Y-39949380D02*
X77843190Y-39282714D01*
X77843190Y-38949380D02*
X77795571Y-38997000D01*
X77843190Y-39044619D01*
X77890809Y-38997000D01*
X77843190Y-38949380D01*
X77843190Y-39044619D01*
X78462238Y-39949380D02*
X78367000Y-39901761D01*
X78319380Y-39854142D01*
X78271761Y-39758904D01*
X78271761Y-39473190D01*
X78319380Y-39377952D01*
X78367000Y-39330333D01*
X78462238Y-39282714D01*
X78605095Y-39282714D01*
X78700333Y-39330333D01*
X78747952Y-39377952D01*
X78795571Y-39473190D01*
X78795571Y-39758904D01*
X78747952Y-39854142D01*
X78700333Y-39901761D01*
X78605095Y-39949380D01*
X78462238Y-39949380D01*
X79224142Y-39282714D02*
X79224142Y-39949380D01*
X79224142Y-39377952D02*
X79271761Y-39330333D01*
X79367000Y-39282714D01*
X79509857Y-39282714D01*
X79605095Y-39330333D01*
X79652714Y-39425571D01*
X79652714Y-39949380D01*
X81367000Y-39949380D02*
X80890809Y-39949380D01*
X80890809Y-38949380D01*
X81700333Y-39949380D02*
X81700333Y-39282714D01*
X81700333Y-38949380D02*
X81652714Y-38997000D01*
X81700333Y-39044619D01*
X81747952Y-38997000D01*
X81700333Y-38949380D01*
X81700333Y-39044619D01*
X82605095Y-39282714D02*
X82605095Y-40092238D01*
X82557476Y-40187476D01*
X82509857Y-40235095D01*
X82414619Y-40282714D01*
X82271761Y-40282714D01*
X82176523Y-40235095D01*
X82605095Y-39901761D02*
X82509857Y-39949380D01*
X82319380Y-39949380D01*
X82224142Y-39901761D01*
X82176523Y-39854142D01*
X82128904Y-39758904D01*
X82128904Y-39473190D01*
X82176523Y-39377952D01*
X82224142Y-39330333D01*
X82319380Y-39282714D01*
X82509857Y-39282714D01*
X82605095Y-39330333D01*
X83081285Y-39949380D02*
X83081285Y-38949380D01*
X83509857Y-39949380D02*
X83509857Y-39425571D01*
X83462238Y-39330333D01*
X83367000Y-39282714D01*
X83224142Y-39282714D01*
X83128904Y-39330333D01*
X83081285Y-39377952D01*
X83843190Y-39282714D02*
X84224142Y-39282714D01*
X83986047Y-38949380D02*
X83986047Y-39806523D01*
X84033666Y-39901761D01*
X84128904Y-39949380D01*
X84224142Y-39949380D01*
X84509857Y-39901761D02*
X84605095Y-39949380D01*
X84795571Y-39949380D01*
X84890809Y-39901761D01*
X84938428Y-39806523D01*
X84938428Y-39758904D01*
X84890809Y-39663666D01*
X84795571Y-39616047D01*
X84652714Y-39616047D01*
X84557476Y-39568428D01*
X84509857Y-39473190D01*
X84509857Y-39425571D01*
X84557476Y-39330333D01*
X84652714Y-39282714D01*
X84795571Y-39282714D01*
X84890809Y-39330333D01*
X86557476Y-39949380D02*
X86557476Y-38949380D01*
X86557476Y-39901761D02*
X86462238Y-39949380D01*
X86271761Y-39949380D01*
X86176523Y-39901761D01*
X86128904Y-39854142D01*
X86081285Y-39758904D01*
X86081285Y-39473190D01*
X86128904Y-39377952D01*
X86176523Y-39330333D01*
X86271761Y-39282714D01*
X86462238Y-39282714D01*
X86557476Y-39330333D01*
X87033666Y-39949380D02*
X87033666Y-39282714D01*
X87033666Y-39473190D02*
X87081285Y-39377952D01*
X87128904Y-39330333D01*
X87224142Y-39282714D01*
X87319380Y-39282714D01*
X87652714Y-39949380D02*
X87652714Y-39282714D01*
X87652714Y-38949380D02*
X87605095Y-38997000D01*
X87652714Y-39044619D01*
X87700333Y-38997000D01*
X87652714Y-38949380D01*
X87652714Y-39044619D01*
X88033666Y-39282714D02*
X88271761Y-39949380D01*
X88509857Y-39282714D01*
X89271761Y-39901761D02*
X89176523Y-39949380D01*
X88986047Y-39949380D01*
X88890809Y-39901761D01*
X88843190Y-39806523D01*
X88843190Y-39425571D01*
X88890809Y-39330333D01*
X88986047Y-39282714D01*
X89176523Y-39282714D01*
X89271761Y-39330333D01*
X89319380Y-39425571D01*
X89319380Y-39520809D01*
X88843190Y-39616047D01*
X89747952Y-39949380D02*
X89747952Y-39282714D01*
X89747952Y-39473190D02*
X89795571Y-39377952D01*
X89843190Y-39330333D01*
X89938428Y-39282714D01*
X90033666Y-39282714D01*
D11*
X85760000Y-45600000D02*
X86960000Y-45600000D01*
X85760000Y-43750000D02*
X85760000Y-45600000D01*
X86960000Y-43750000D02*
X86960000Y-45600000D01*
X87030000Y-59000000D02*
X88230000Y-59000000D01*
X87030000Y-57150000D02*
X87030000Y-59000000D01*
X88230000Y-57150000D02*
X88230000Y-59000000D01*
X81980000Y-62195000D02*
X80130000Y-62195000D01*
X81980000Y-60995000D02*
X80130000Y-60995000D01*
X80130000Y-60995000D02*
X80130000Y-62195000D01*
X81786000Y-52634000D02*
X81786000Y-51704000D01*
X81786000Y-49474000D02*
X81786000Y-50404000D01*
X81786000Y-49474000D02*
X79626000Y-49474000D01*
X81786000Y-52634000D02*
X80326000Y-52634000D01*
X78230000Y-52634000D02*
X78230000Y-51704000D01*
X78230000Y-49474000D02*
X78230000Y-50404000D01*
X78230000Y-49474000D02*
X76070000Y-49474000D01*
X78230000Y-52634000D02*
X76770000Y-52634000D01*
X77198000Y-58410000D02*
X75738000Y-58410000D01*
X77198000Y-55250000D02*
X75038000Y-55250000D01*
X77198000Y-55250000D02*
X77198000Y-56180000D01*
X77198000Y-58410000D02*
X77198000Y-57480000D01*
X75953252Y-47550000D02*
X75430748Y-47550000D01*
X75953252Y-48970000D02*
X75430748Y-48970000D01*
X76724252Y-54558000D02*
X76201748Y-54558000D01*
X76724252Y-53138000D02*
X76201748Y-53138000D01*
X72950000Y-55116252D02*
X72950000Y-54593748D01*
X74370000Y-55116252D02*
X74370000Y-54593748D01*
X87891252Y-47700000D02*
X87368748Y-47700000D01*
X87891252Y-46280000D02*
X87368748Y-46280000D01*
X85106252Y-56440000D02*
X84583748Y-56440000D01*
X85106252Y-57860000D02*
X84583748Y-57860000D01*
X82678748Y-59765000D02*
X83201252Y-59765000D01*
X82678748Y-58345000D02*
X83201252Y-58345000D01*
D10*
X72425000Y-48725000D02*
X72375000Y-48725000D01*
X72425000Y-52875000D02*
X72280000Y-52875000D01*
X67275000Y-52875000D02*
X67420000Y-52875000D01*
X67275000Y-48725000D02*
X67420000Y-48725000D01*
X72425000Y-48725000D02*
X72425000Y-52875000D01*
X67275000Y-48725000D02*
X67275000Y-52875000D01*
X72375000Y-48725000D02*
X72375000Y-47325000D01*
D11*
X86010000Y-48594000D02*
X83580000Y-48594000D01*
X84250000Y-51664000D02*
X86010000Y-51664000D01*
X85970000Y-52415000D02*
X84210000Y-52415000D01*
X84210000Y-55485000D02*
X86640000Y-55485000D01*
X79678000Y-57440000D02*
X81438000Y-57440000D01*
X81438000Y-54370000D02*
X79008000Y-54370000D01*
D10*
X85512380Y-45188095D02*
X84512380Y-45188095D01*
X84512380Y-44950000D01*
X84560000Y-44807142D01*
X84655238Y-44711904D01*
X84750476Y-44664285D01*
X84940952Y-44616666D01*
X85083809Y-44616666D01*
X85274285Y-44664285D01*
X85369523Y-44711904D01*
X85464761Y-44807142D01*
X85512380Y-44950000D01*
X85512380Y-45188095D01*
X85512380Y-43664285D02*
X85512380Y-44235714D01*
X85512380Y-43950000D02*
X84512380Y-43950000D01*
X84655238Y-44045238D01*
X84750476Y-44140476D01*
X84798095Y-44235714D01*
X86782380Y-58588095D02*
X85782380Y-58588095D01*
X85782380Y-58350000D01*
X85830000Y-58207142D01*
X85925238Y-58111904D01*
X86020476Y-58064285D01*
X86210952Y-58016666D01*
X86353809Y-58016666D01*
X86544285Y-58064285D01*
X86639523Y-58111904D01*
X86734761Y-58207142D01*
X86782380Y-58350000D01*
X86782380Y-58588095D01*
X85877619Y-57635714D02*
X85830000Y-57588095D01*
X85782380Y-57492857D01*
X85782380Y-57254761D01*
X85830000Y-57159523D01*
X85877619Y-57111904D01*
X85972857Y-57064285D01*
X86068095Y-57064285D01*
X86210952Y-57111904D01*
X86782380Y-57683333D01*
X86782380Y-57064285D01*
X80541904Y-60747380D02*
X80541904Y-59747380D01*
X80780000Y-59747380D01*
X80922857Y-59795000D01*
X81018095Y-59890238D01*
X81065714Y-59985476D01*
X81113333Y-60175952D01*
X81113333Y-60318809D01*
X81065714Y-60509285D01*
X81018095Y-60604523D01*
X80922857Y-60699761D01*
X80780000Y-60747380D01*
X80541904Y-60747380D01*
X81446666Y-59747380D02*
X82065714Y-59747380D01*
X81732380Y-60128333D01*
X81875238Y-60128333D01*
X81970476Y-60175952D01*
X82018095Y-60223571D01*
X82065714Y-60318809D01*
X82065714Y-60556904D01*
X82018095Y-60652142D01*
X81970476Y-60699761D01*
X81875238Y-60747380D01*
X81589523Y-60747380D01*
X81494285Y-60699761D01*
X81446666Y-60652142D01*
X80930761Y-49101619D02*
X80835523Y-49054000D01*
X80740285Y-48958761D01*
X80597428Y-48815904D01*
X80502190Y-48768285D01*
X80406952Y-48768285D01*
X80454571Y-49006380D02*
X80359333Y-48958761D01*
X80264095Y-48863523D01*
X80216476Y-48673047D01*
X80216476Y-48339714D01*
X80264095Y-48149238D01*
X80359333Y-48054000D01*
X80454571Y-48006380D01*
X80645047Y-48006380D01*
X80740285Y-48054000D01*
X80835523Y-48149238D01*
X80883142Y-48339714D01*
X80883142Y-48673047D01*
X80835523Y-48863523D01*
X80740285Y-48958761D01*
X80645047Y-49006380D01*
X80454571Y-49006380D01*
X81835523Y-49006380D02*
X81264095Y-49006380D01*
X81549809Y-49006380D02*
X81549809Y-48006380D01*
X81454571Y-48149238D01*
X81359333Y-48244476D01*
X81264095Y-48292095D01*
X77374761Y-49101619D02*
X77279523Y-49054000D01*
X77184285Y-48958761D01*
X77041428Y-48815904D01*
X76946190Y-48768285D01*
X76850952Y-48768285D01*
X76898571Y-49006380D02*
X76803333Y-48958761D01*
X76708095Y-48863523D01*
X76660476Y-48673047D01*
X76660476Y-48339714D01*
X76708095Y-48149238D01*
X76803333Y-48054000D01*
X76898571Y-48006380D01*
X77089047Y-48006380D01*
X77184285Y-48054000D01*
X77279523Y-48149238D01*
X77327142Y-48339714D01*
X77327142Y-48673047D01*
X77279523Y-48863523D01*
X77184285Y-48958761D01*
X77089047Y-49006380D01*
X76898571Y-49006380D01*
X77708095Y-48101619D02*
X77755714Y-48054000D01*
X77850952Y-48006380D01*
X78089047Y-48006380D01*
X78184285Y-48054000D01*
X78231904Y-48101619D01*
X78279523Y-48196857D01*
X78279523Y-48292095D01*
X78231904Y-48434952D01*
X77660476Y-49006380D01*
X78279523Y-49006380D01*
X76342761Y-54877619D02*
X76247523Y-54830000D01*
X76152285Y-54734761D01*
X76009428Y-54591904D01*
X75914190Y-54544285D01*
X75818952Y-54544285D01*
X75866571Y-54782380D02*
X75771333Y-54734761D01*
X75676095Y-54639523D01*
X75628476Y-54449047D01*
X75628476Y-54115714D01*
X75676095Y-53925238D01*
X75771333Y-53830000D01*
X75866571Y-53782380D01*
X76057047Y-53782380D01*
X76152285Y-53830000D01*
X76247523Y-53925238D01*
X76295142Y-54115714D01*
X76295142Y-54449047D01*
X76247523Y-54639523D01*
X76152285Y-54734761D01*
X76057047Y-54782380D01*
X75866571Y-54782380D01*
X76628476Y-53782380D02*
X77247523Y-53782380D01*
X76914190Y-54163333D01*
X77057047Y-54163333D01*
X77152285Y-54210952D01*
X77199904Y-54258571D01*
X77247523Y-54353809D01*
X77247523Y-54591904D01*
X77199904Y-54687142D01*
X77152285Y-54734761D01*
X77057047Y-54782380D01*
X76771333Y-54782380D01*
X76676095Y-54734761D01*
X76628476Y-54687142D01*
X75525333Y-50362380D02*
X75192000Y-49886190D01*
X74953904Y-50362380D02*
X74953904Y-49362380D01*
X75334857Y-49362380D01*
X75430095Y-49410000D01*
X75477714Y-49457619D01*
X75525333Y-49552857D01*
X75525333Y-49695714D01*
X75477714Y-49790952D01*
X75430095Y-49838571D01*
X75334857Y-49886190D01*
X74953904Y-49886190D01*
X76477714Y-50362380D02*
X75906285Y-50362380D01*
X76192000Y-50362380D02*
X76192000Y-49362380D01*
X76096761Y-49505238D01*
X76001523Y-49600476D01*
X75906285Y-49648095D01*
X76296333Y-55950380D02*
X75963000Y-55474190D01*
X75724904Y-55950380D02*
X75724904Y-54950380D01*
X76105857Y-54950380D01*
X76201095Y-54998000D01*
X76248714Y-55045619D01*
X76296333Y-55140857D01*
X76296333Y-55283714D01*
X76248714Y-55378952D01*
X76201095Y-55426571D01*
X76105857Y-55474190D01*
X75724904Y-55474190D01*
X76677285Y-55045619D02*
X76724904Y-54998000D01*
X76820142Y-54950380D01*
X77058238Y-54950380D01*
X77153476Y-54998000D01*
X77201095Y-55045619D01*
X77248714Y-55140857D01*
X77248714Y-55236095D01*
X77201095Y-55378952D01*
X76629666Y-55950380D01*
X77248714Y-55950380D01*
X72462380Y-55021666D02*
X71986190Y-55355000D01*
X72462380Y-55593095D02*
X71462380Y-55593095D01*
X71462380Y-55212142D01*
X71510000Y-55116904D01*
X71557619Y-55069285D01*
X71652857Y-55021666D01*
X71795714Y-55021666D01*
X71890952Y-55069285D01*
X71938571Y-55116904D01*
X71986190Y-55212142D01*
X71986190Y-55593095D01*
X71462380Y-54688333D02*
X71462380Y-54069285D01*
X71843333Y-54402619D01*
X71843333Y-54259761D01*
X71890952Y-54164523D01*
X71938571Y-54116904D01*
X72033809Y-54069285D01*
X72271904Y-54069285D01*
X72367142Y-54116904D01*
X72414761Y-54164523D01*
X72462380Y-54259761D01*
X72462380Y-54545476D01*
X72414761Y-54640714D01*
X72367142Y-54688333D01*
X87463333Y-49092380D02*
X87130000Y-48616190D01*
X86891904Y-49092380D02*
X86891904Y-48092380D01*
X87272857Y-48092380D01*
X87368095Y-48140000D01*
X87415714Y-48187619D01*
X87463333Y-48282857D01*
X87463333Y-48425714D01*
X87415714Y-48520952D01*
X87368095Y-48568571D01*
X87272857Y-48616190D01*
X86891904Y-48616190D01*
X88320476Y-48425714D02*
X88320476Y-49092380D01*
X88082380Y-48044761D02*
X87844285Y-48759047D01*
X88463333Y-48759047D01*
X84678333Y-59252380D02*
X84345000Y-58776190D01*
X84106904Y-59252380D02*
X84106904Y-58252380D01*
X84487857Y-58252380D01*
X84583095Y-58300000D01*
X84630714Y-58347619D01*
X84678333Y-58442857D01*
X84678333Y-58585714D01*
X84630714Y-58680952D01*
X84583095Y-58728571D01*
X84487857Y-58776190D01*
X84106904Y-58776190D01*
X85583095Y-58252380D02*
X85106904Y-58252380D01*
X85059285Y-58728571D01*
X85106904Y-58680952D01*
X85202142Y-58633333D01*
X85440238Y-58633333D01*
X85535476Y-58680952D01*
X85583095Y-58728571D01*
X85630714Y-58823809D01*
X85630714Y-59061904D01*
X85583095Y-59157142D01*
X85535476Y-59204761D01*
X85440238Y-59252380D01*
X85202142Y-59252380D01*
X85106904Y-59204761D01*
X85059285Y-59157142D01*
X82773333Y-57857380D02*
X82440000Y-57381190D01*
X82201904Y-57857380D02*
X82201904Y-56857380D01*
X82582857Y-56857380D01*
X82678095Y-56905000D01*
X82725714Y-56952619D01*
X82773333Y-57047857D01*
X82773333Y-57190714D01*
X82725714Y-57285952D01*
X82678095Y-57333571D01*
X82582857Y-57381190D01*
X82201904Y-57381190D01*
X83630476Y-56857380D02*
X83440000Y-56857380D01*
X83344761Y-56905000D01*
X83297142Y-56952619D01*
X83201904Y-57095476D01*
X83154285Y-57285952D01*
X83154285Y-57666904D01*
X83201904Y-57762142D01*
X83249523Y-57809761D01*
X83344761Y-57857380D01*
X83535238Y-57857380D01*
X83630476Y-57809761D01*
X83678095Y-57762142D01*
X83725714Y-57666904D01*
X83725714Y-57428809D01*
X83678095Y-57333571D01*
X83630476Y-57285952D01*
X83535238Y-57238333D01*
X83344761Y-57238333D01*
X83249523Y-57285952D01*
X83201904Y-57333571D01*
X83154285Y-57428809D01*
X72802380Y-51561904D02*
X73611904Y-51561904D01*
X73707142Y-51514285D01*
X73754761Y-51466666D01*
X73802380Y-51371428D01*
X73802380Y-51180952D01*
X73754761Y-51085714D01*
X73707142Y-51038095D01*
X73611904Y-50990476D01*
X72802380Y-50990476D01*
X73802380Y-49990476D02*
X73802380Y-50561904D01*
X73802380Y-50276190D02*
X72802380Y-50276190D01*
X72945238Y-50371428D01*
X73040476Y-50466666D01*
X73088095Y-50561904D01*
X84368095Y-47106380D02*
X84368095Y-47915904D01*
X84415714Y-48011142D01*
X84463333Y-48058761D01*
X84558571Y-48106380D01*
X84749047Y-48106380D01*
X84844285Y-48058761D01*
X84891904Y-48011142D01*
X84939523Y-47915904D01*
X84939523Y-47106380D01*
X85368095Y-47201619D02*
X85415714Y-47154000D01*
X85510952Y-47106380D01*
X85749047Y-47106380D01*
X85844285Y-47154000D01*
X85891904Y-47201619D01*
X85939523Y-47296857D01*
X85939523Y-47392095D01*
X85891904Y-47534952D01*
X85320476Y-48106380D01*
X85939523Y-48106380D01*
X84328095Y-55877380D02*
X84328095Y-56686904D01*
X84375714Y-56782142D01*
X84423333Y-56829761D01*
X84518571Y-56877380D01*
X84709047Y-56877380D01*
X84804285Y-56829761D01*
X84851904Y-56782142D01*
X84899523Y-56686904D01*
X84899523Y-55877380D01*
X85280476Y-55877380D02*
X85899523Y-55877380D01*
X85566190Y-56258333D01*
X85709047Y-56258333D01*
X85804285Y-56305952D01*
X85851904Y-56353571D01*
X85899523Y-56448809D01*
X85899523Y-56686904D01*
X85851904Y-56782142D01*
X85804285Y-56829761D01*
X85709047Y-56877380D01*
X85423333Y-56877380D01*
X85328095Y-56829761D01*
X85280476Y-56782142D01*
X79796095Y-52882380D02*
X79796095Y-53691904D01*
X79843714Y-53787142D01*
X79891333Y-53834761D01*
X79986571Y-53882380D01*
X80177047Y-53882380D01*
X80272285Y-53834761D01*
X80319904Y-53787142D01*
X80367523Y-53691904D01*
X80367523Y-52882380D01*
X81272285Y-53215714D02*
X81272285Y-53882380D01*
X81034190Y-52834761D02*
X80796095Y-53549047D01*
X81415142Y-53549047D01*
M02*
