G04 #@! TF.GenerationSoftware,KiCad,Pcbnew,(5.1.0)-1*
G04 #@! TF.CreationDate,2019-04-16T02:17:24+07:00*
G04 #@! TF.ProjectId,Bano,42616e6f-2e6b-4696-9361-645f70636258,rev?*
G04 #@! TF.SameCoordinates,Original*
G04 #@! TF.FileFunction,Legend,Bot*
G04 #@! TF.FilePolarity,Positive*
%FSLAX46Y46*%
G04 Gerber Fmt 4.6, Leading zero omitted, Abs format (unit mm)*
G04 Created by KiCad (PCBNEW (5.1.0)-1) date 2019-04-16 02:17:24*
%MOMM*%
%LPD*%
G04 APERTURE LIST*
%ADD10C,0.150000*%
%ADD11C,0.120000*%
G04 APERTURE END LIST*
D10*
X99694952Y-53284428D02*
X98933047Y-53284428D01*
X99694952Y-50744428D02*
X98933047Y-50744428D01*
X99314000Y-51125380D02*
X99314000Y-50363476D01*
X62356904Y-43950000D02*
X62452142Y-43902380D01*
X62595000Y-43902380D01*
X62737857Y-43950000D01*
X62833095Y-44045238D01*
X62880714Y-44140476D01*
X62928333Y-44330952D01*
X62928333Y-44473809D01*
X62880714Y-44664285D01*
X62833095Y-44759523D01*
X62737857Y-44854761D01*
X62595000Y-44902380D01*
X62499761Y-44902380D01*
X62356904Y-44854761D01*
X62309285Y-44807142D01*
X62309285Y-44473809D01*
X62499761Y-44473809D01*
X61880714Y-44902380D02*
X61880714Y-43902380D01*
X61309285Y-44902380D01*
X61309285Y-43902380D01*
X60833095Y-44902380D02*
X60833095Y-43902380D01*
X60595000Y-43902380D01*
X60452142Y-43950000D01*
X60356904Y-44045238D01*
X60309285Y-44140476D01*
X60261666Y-44330952D01*
X60261666Y-44473809D01*
X60309285Y-44664285D01*
X60356904Y-44759523D01*
X60452142Y-44854761D01*
X60595000Y-44902380D01*
X60833095Y-44902380D01*
X62928333Y-46442380D02*
X62595000Y-47442380D01*
X62261666Y-46442380D01*
X61356904Y-47347142D02*
X61404523Y-47394761D01*
X61547380Y-47442380D01*
X61642619Y-47442380D01*
X61785476Y-47394761D01*
X61880714Y-47299523D01*
X61928333Y-47204285D01*
X61975952Y-47013809D01*
X61975952Y-46870952D01*
X61928333Y-46680476D01*
X61880714Y-46585238D01*
X61785476Y-46490000D01*
X61642619Y-46442380D01*
X61547380Y-46442380D01*
X61404523Y-46490000D01*
X61356904Y-46537619D01*
X60356904Y-47347142D02*
X60404523Y-47394761D01*
X60547380Y-47442380D01*
X60642619Y-47442380D01*
X60785476Y-47394761D01*
X60880714Y-47299523D01*
X60928333Y-47204285D01*
X60975952Y-47013809D01*
X60975952Y-46870952D01*
X60928333Y-46680476D01*
X60880714Y-46585238D01*
X60785476Y-46490000D01*
X60642619Y-46442380D01*
X60547380Y-46442380D01*
X60404523Y-46490000D01*
X60356904Y-46537619D01*
D11*
X62865000Y-48895000D02*
X60452000Y-48895000D01*
D10*
X62269619Y-50236380D02*
X62602952Y-49760190D01*
X62841047Y-50236380D02*
X62841047Y-49236380D01*
X62460095Y-49236380D01*
X62364857Y-49284000D01*
X62317238Y-49331619D01*
X62269619Y-49426857D01*
X62269619Y-49569714D01*
X62317238Y-49664952D01*
X62364857Y-49712571D01*
X62460095Y-49760190D01*
X62841047Y-49760190D01*
X61888666Y-50188761D02*
X61745809Y-50236380D01*
X61507714Y-50236380D01*
X61412476Y-50188761D01*
X61364857Y-50141142D01*
X61317238Y-50045904D01*
X61317238Y-49950666D01*
X61364857Y-49855428D01*
X61412476Y-49807809D01*
X61507714Y-49760190D01*
X61698190Y-49712571D01*
X61793428Y-49664952D01*
X61841047Y-49617333D01*
X61888666Y-49522095D01*
X61888666Y-49426857D01*
X61841047Y-49331619D01*
X61793428Y-49284000D01*
X61698190Y-49236380D01*
X61460095Y-49236380D01*
X61317238Y-49284000D01*
X61031523Y-49236380D02*
X60460095Y-49236380D01*
X60745809Y-50236380D02*
X60745809Y-49236380D01*
X62785428Y-52649380D02*
X62785428Y-51649380D01*
X62452095Y-52363666D01*
X62118761Y-51649380D01*
X62118761Y-52649380D01*
X61452095Y-51649380D02*
X61261619Y-51649380D01*
X61166380Y-51697000D01*
X61071142Y-51792238D01*
X61023523Y-51982714D01*
X61023523Y-52316047D01*
X61071142Y-52506523D01*
X61166380Y-52601761D01*
X61261619Y-52649380D01*
X61452095Y-52649380D01*
X61547333Y-52601761D01*
X61642571Y-52506523D01*
X61690190Y-52316047D01*
X61690190Y-51982714D01*
X61642571Y-51792238D01*
X61547333Y-51697000D01*
X61452095Y-51649380D01*
X60642571Y-52601761D02*
X60499714Y-52649380D01*
X60261619Y-52649380D01*
X60166380Y-52601761D01*
X60118761Y-52554142D01*
X60071142Y-52458904D01*
X60071142Y-52363666D01*
X60118761Y-52268428D01*
X60166380Y-52220809D01*
X60261619Y-52173190D01*
X60452095Y-52125571D01*
X60547333Y-52077952D01*
X60594952Y-52030333D01*
X60642571Y-51935095D01*
X60642571Y-51839857D01*
X60594952Y-51744619D01*
X60547333Y-51697000D01*
X60452095Y-51649380D01*
X60214000Y-51649380D01*
X60071142Y-51697000D01*
X59642571Y-52649380D02*
X59642571Y-51649380D01*
X62785428Y-55062380D02*
X62785428Y-54062380D01*
X62452095Y-54776666D01*
X62118761Y-54062380D01*
X62118761Y-55062380D01*
X61642571Y-55062380D02*
X61642571Y-54062380D01*
X61214000Y-55014761D02*
X61071142Y-55062380D01*
X60833047Y-55062380D01*
X60737809Y-55014761D01*
X60690190Y-54967142D01*
X60642571Y-54871904D01*
X60642571Y-54776666D01*
X60690190Y-54681428D01*
X60737809Y-54633809D01*
X60833047Y-54586190D01*
X61023523Y-54538571D01*
X61118761Y-54490952D01*
X61166380Y-54443333D01*
X61214000Y-54348095D01*
X61214000Y-54252857D01*
X61166380Y-54157619D01*
X61118761Y-54110000D01*
X61023523Y-54062380D01*
X60785428Y-54062380D01*
X60642571Y-54110000D01*
X60023523Y-54062380D02*
X59833047Y-54062380D01*
X59737809Y-54110000D01*
X59642571Y-54205238D01*
X59594952Y-54395714D01*
X59594952Y-54729047D01*
X59642571Y-54919523D01*
X59737809Y-55014761D01*
X59833047Y-55062380D01*
X60023523Y-55062380D01*
X60118761Y-55014761D01*
X60214000Y-54919523D01*
X60261619Y-54729047D01*
X60261619Y-54395714D01*
X60214000Y-54205238D01*
X60118761Y-54110000D01*
X60023523Y-54062380D01*
X62245714Y-57554761D02*
X62102857Y-57602380D01*
X61864761Y-57602380D01*
X61769523Y-57554761D01*
X61721904Y-57507142D01*
X61674285Y-57411904D01*
X61674285Y-57316666D01*
X61721904Y-57221428D01*
X61769523Y-57173809D01*
X61864761Y-57126190D01*
X62055238Y-57078571D01*
X62150476Y-57030952D01*
X62198095Y-56983333D01*
X62245714Y-56888095D01*
X62245714Y-56792857D01*
X62198095Y-56697619D01*
X62150476Y-56650000D01*
X62055238Y-56602380D01*
X61817142Y-56602380D01*
X61674285Y-56650000D01*
X60674285Y-57507142D02*
X60721904Y-57554761D01*
X60864761Y-57602380D01*
X60960000Y-57602380D01*
X61102857Y-57554761D01*
X61198095Y-57459523D01*
X61245714Y-57364285D01*
X61293333Y-57173809D01*
X61293333Y-57030952D01*
X61245714Y-56840476D01*
X61198095Y-56745238D01*
X61102857Y-56650000D01*
X60960000Y-56602380D01*
X60864761Y-56602380D01*
X60721904Y-56650000D01*
X60674285Y-56697619D01*
X60245714Y-57602380D02*
X60245714Y-56602380D01*
X59674285Y-57602380D02*
X60102857Y-57030952D01*
X59674285Y-56602380D02*
X60245714Y-57173809D01*
X72135952Y-41473428D02*
X71374047Y-41473428D01*
X71755000Y-41854380D02*
X71755000Y-41092476D01*
X68960952Y-41600428D02*
X68199047Y-41600428D01*
X75215714Y-41933761D02*
X75072857Y-41981380D01*
X74834761Y-41981380D01*
X74739523Y-41933761D01*
X74691904Y-41886142D01*
X74644285Y-41790904D01*
X74644285Y-41695666D01*
X74691904Y-41600428D01*
X74739523Y-41552809D01*
X74834761Y-41505190D01*
X75025238Y-41457571D01*
X75120476Y-41409952D01*
X75168095Y-41362333D01*
X75215714Y-41267095D01*
X75215714Y-41171857D01*
X75168095Y-41076619D01*
X75120476Y-41029000D01*
X75025238Y-40981380D01*
X74787142Y-40981380D01*
X74644285Y-41029000D01*
X99694952Y-59634428D02*
X98933047Y-59634428D01*
X99567952Y-44394428D02*
X98806047Y-44394428D01*
X99694952Y-57094428D02*
X98933047Y-57094428D01*
X99314000Y-57475380D02*
X99314000Y-56713476D01*
X99694952Y-47061428D02*
X98933047Y-47061428D01*
X99314000Y-47442380D02*
X99314000Y-46680476D01*
X98147047Y-62936380D02*
X98623238Y-62936380D01*
X98623238Y-61936380D01*
X97813714Y-62412571D02*
X97480380Y-62412571D01*
X97337523Y-62936380D02*
X97813714Y-62936380D01*
X97813714Y-61936380D01*
X97337523Y-61936380D01*
X96908952Y-62936380D02*
X96908952Y-61936380D01*
X96670857Y-61936380D01*
X96528000Y-61984000D01*
X96432761Y-62079238D01*
X96385142Y-62174476D01*
X96337523Y-62364952D01*
X96337523Y-62507809D01*
X96385142Y-62698285D01*
X96432761Y-62793523D01*
X96528000Y-62888761D01*
X96670857Y-62936380D01*
X96908952Y-62936380D01*
X96004190Y-61936380D02*
X95385142Y-61936380D01*
X95718476Y-62317333D01*
X95575619Y-62317333D01*
X95480380Y-62364952D01*
X95432761Y-62412571D01*
X95385142Y-62507809D01*
X95385142Y-62745904D01*
X95432761Y-62841142D01*
X95480380Y-62888761D01*
X95575619Y-62936380D01*
X95861333Y-62936380D01*
X95956571Y-62888761D01*
X96004190Y-62841142D01*
X98274047Y-42362380D02*
X98750238Y-42362380D01*
X98750238Y-41362380D01*
X97940714Y-41838571D02*
X97607380Y-41838571D01*
X97464523Y-42362380D02*
X97940714Y-42362380D01*
X97940714Y-41362380D01*
X97464523Y-41362380D01*
X97035952Y-42362380D02*
X97035952Y-41362380D01*
X96797857Y-41362380D01*
X96655000Y-41410000D01*
X96559761Y-41505238D01*
X96512142Y-41600476D01*
X96464523Y-41790952D01*
X96464523Y-41933809D01*
X96512142Y-42124285D01*
X96559761Y-42219523D01*
X96655000Y-42314761D01*
X96797857Y-42362380D01*
X97035952Y-42362380D01*
X95512142Y-42362380D02*
X96083571Y-42362380D01*
X95797857Y-42362380D02*
X95797857Y-41362380D01*
X95893095Y-41505238D01*
X95988333Y-41600476D01*
X96083571Y-41648095D01*
D11*
X63310000Y-57510000D02*
X63660000Y-57510000D01*
X63310000Y-56790000D02*
X63660000Y-56790000D01*
X63310000Y-54970000D02*
X63720000Y-54970000D01*
X63310000Y-54250000D02*
X63720000Y-54250000D01*
X63310000Y-52430000D02*
X63720000Y-52430000D01*
X63310000Y-51710000D02*
X63720000Y-51710000D01*
X63310000Y-49890000D02*
X63720000Y-49890000D01*
X63310000Y-49170000D02*
X63720000Y-49170000D01*
X63310000Y-47350000D02*
X63720000Y-47350000D01*
X63310000Y-46630000D02*
X63720000Y-46630000D01*
X63310000Y-44810000D02*
X63720000Y-44810000D01*
X63310000Y-44090000D02*
X63720000Y-44090000D01*
X54680000Y-55880000D02*
X63310000Y-55880000D01*
X54680000Y-53340000D02*
X63310000Y-53340000D01*
X54680000Y-50800000D02*
X63310000Y-50800000D01*
X54680000Y-48260000D02*
X63310000Y-48260000D01*
X54680000Y-45720000D02*
X63310000Y-45720000D01*
X54680000Y-58480000D02*
X63310000Y-58480000D01*
X63310000Y-58480000D02*
X63310000Y-43120000D01*
X54680000Y-43120000D02*
X63310000Y-43120000D01*
X54680000Y-58480000D02*
X54680000Y-43120000D01*
X65880000Y-58480000D02*
X65880000Y-57150000D01*
X64770000Y-58480000D02*
X65880000Y-58480000D01*
X65404000Y-59716000D02*
X66604000Y-59716000D01*
X69924000Y-59716000D02*
X68724000Y-59716000D01*
X69924000Y-63171563D02*
X69924000Y-59716000D01*
X65404000Y-63171563D02*
X65404000Y-59716000D01*
X66468437Y-64236000D02*
X66604000Y-64236000D01*
X68859563Y-64236000D02*
X68724000Y-64236000D01*
X68859563Y-64236000D02*
X69924000Y-63171563D01*
X66468437Y-64236000D02*
X65404000Y-63171563D01*
X95875000Y-45720000D02*
X98535000Y-45720000D01*
X95875000Y-45720000D02*
X95875000Y-43120000D01*
X95875000Y-43120000D02*
X98535000Y-43120000D01*
X98535000Y-45720000D02*
X98535000Y-43120000D01*
X98535000Y-48320000D02*
X98535000Y-46990000D01*
X97205000Y-48320000D02*
X98535000Y-48320000D01*
X97155000Y-49470000D02*
X95825000Y-49470000D01*
X95825000Y-49470000D02*
X95825000Y-50800000D01*
X95825000Y-52070000D02*
X95825000Y-54670000D01*
X98485000Y-54670000D02*
X95825000Y-54670000D01*
X98485000Y-52070000D02*
X98485000Y-54670000D01*
X98485000Y-52070000D02*
X95825000Y-52070000D01*
X98485000Y-58420000D02*
X95825000Y-58420000D01*
X98485000Y-58420000D02*
X98485000Y-61020000D01*
X98485000Y-61020000D02*
X95825000Y-61020000D01*
X95825000Y-58420000D02*
X95825000Y-61020000D01*
X95825000Y-55820000D02*
X95825000Y-57150000D01*
X97155000Y-55820000D02*
X95825000Y-55820000D01*
X87209936Y-45540000D02*
G75*
G03X87209936Y-45540000I-5120000J0D01*
G01*
X95089120Y-53262019D02*
G75*
G03X95089120Y-53262019I-5120000J0D01*
G01*
X80643477Y-60237752D02*
G75*
G03X80643477Y-60237752I-5120000J0D01*
G01*
D10*
X63151904Y-42203666D02*
X62675714Y-42203666D01*
X63247142Y-42489380D02*
X62913809Y-41489380D01*
X62580476Y-42489380D01*
X62390000Y-41489380D02*
X62056666Y-42489380D01*
X61723333Y-41489380D01*
X60818571Y-42489380D02*
X61151904Y-42013190D01*
X61390000Y-42489380D02*
X61390000Y-41489380D01*
X61009047Y-41489380D01*
X60913809Y-41537000D01*
X60866190Y-41584619D01*
X60818571Y-41679857D01*
X60818571Y-41822714D01*
X60866190Y-41917952D01*
X60913809Y-41965571D01*
X61009047Y-42013190D01*
X61390000Y-42013190D01*
X59628095Y-42489380D02*
X59628095Y-41489380D01*
X59199523Y-42441761D02*
X59056666Y-42489380D01*
X58818571Y-42489380D01*
X58723333Y-42441761D01*
X58675714Y-42394142D01*
X58628095Y-42298904D01*
X58628095Y-42203666D01*
X58675714Y-42108428D01*
X58723333Y-42060809D01*
X58818571Y-42013190D01*
X59009047Y-41965571D01*
X59104285Y-41917952D01*
X59151904Y-41870333D01*
X59199523Y-41775095D01*
X59199523Y-41679857D01*
X59151904Y-41584619D01*
X59104285Y-41537000D01*
X59009047Y-41489380D01*
X58770952Y-41489380D01*
X58628095Y-41537000D01*
X58199523Y-42489380D02*
X58199523Y-41489380D01*
X57818571Y-41489380D01*
X57723333Y-41537000D01*
X57675714Y-41584619D01*
X57628095Y-41679857D01*
X57628095Y-41822714D01*
X57675714Y-41917952D01*
X57723333Y-41965571D01*
X57818571Y-42013190D01*
X58199523Y-42013190D01*
X70566143Y-61809333D02*
X70613762Y-61761714D01*
X70661381Y-61618857D01*
X70661381Y-61523619D01*
X70613762Y-61380761D01*
X70518524Y-61285523D01*
X70423286Y-61237904D01*
X70232810Y-61190285D01*
X70089953Y-61190285D01*
X69899477Y-61237904D01*
X69804239Y-61285523D01*
X69709001Y-61380761D01*
X69661381Y-61523619D01*
X69661381Y-61618857D01*
X69709001Y-61761714D01*
X69756620Y-61809333D01*
X70661381Y-62761714D02*
X70661381Y-62190285D01*
X70661381Y-62476000D02*
X69661381Y-62476000D01*
X69804239Y-62380761D01*
X69899477Y-62285523D01*
X69947096Y-62190285D01*
X66365428Y-59277666D02*
X66365428Y-60039571D01*
X66746380Y-61277666D02*
X65746380Y-61277666D01*
X65746380Y-61658619D01*
X65794000Y-61753857D01*
X65841619Y-61801476D01*
X65936857Y-61849095D01*
X66079714Y-61849095D01*
X66174952Y-61801476D01*
X66222571Y-61753857D01*
X66270190Y-61658619D01*
X66270190Y-61277666D01*
X65746380Y-62182428D02*
X66746380Y-62420523D01*
X66032095Y-62611000D01*
X66746380Y-62801476D01*
X65746380Y-63039571D01*
X66746380Y-63991952D02*
X66270190Y-63658619D01*
X66746380Y-63420523D02*
X65746380Y-63420523D01*
X65746380Y-63801476D01*
X65794000Y-63896714D01*
X65841619Y-63944333D01*
X65936857Y-63991952D01*
X66079714Y-63991952D01*
X66174952Y-63944333D01*
X66222571Y-63896714D01*
X66270190Y-63801476D01*
X66270190Y-63420523D01*
X66365428Y-65182428D02*
X66365428Y-65944333D01*
X66746380Y-65563380D02*
X65984476Y-65563380D01*
X97538333Y-49212380D02*
X97538333Y-49926666D01*
X97585952Y-50069523D01*
X97681190Y-50164761D01*
X97824047Y-50212380D01*
X97919285Y-50212380D01*
X97157380Y-49212380D02*
X96538333Y-49212380D01*
X96871666Y-49593333D01*
X96728809Y-49593333D01*
X96633571Y-49640952D01*
X96585952Y-49688571D01*
X96538333Y-49783809D01*
X96538333Y-50021904D01*
X96585952Y-50117142D01*
X96633571Y-50164761D01*
X96728809Y-50212380D01*
X97014523Y-50212380D01*
X97109761Y-50164761D01*
X97157380Y-50117142D01*
X97488333Y-47482380D02*
X97488333Y-48196666D01*
X97535952Y-48339523D01*
X97631190Y-48434761D01*
X97774047Y-48482380D01*
X97869285Y-48482380D01*
X96583571Y-47815714D02*
X96583571Y-48482380D01*
X96821666Y-47434761D02*
X97059761Y-48149047D01*
X96440714Y-48149047D01*
X97488333Y-53832380D02*
X97488333Y-54546666D01*
X97535952Y-54689523D01*
X97631190Y-54784761D01*
X97774047Y-54832380D01*
X97869285Y-54832380D01*
X96535952Y-53832380D02*
X97012142Y-53832380D01*
X97059761Y-54308571D01*
X97012142Y-54260952D01*
X96916904Y-54213333D01*
X96678809Y-54213333D01*
X96583571Y-54260952D01*
X96535952Y-54308571D01*
X96488333Y-54403809D01*
X96488333Y-54641904D01*
X96535952Y-54737142D01*
X96583571Y-54784761D01*
X96678809Y-54832380D01*
X96916904Y-54832380D01*
X97012142Y-54784761D01*
X97059761Y-54737142D01*
X85133083Y-40602447D02*
X85545476Y-40840542D01*
X86045476Y-39974517D01*
X84390775Y-40173876D02*
X84885647Y-40459590D01*
X84638211Y-40316733D02*
X85138211Y-39450708D01*
X85149261Y-39622045D01*
X85184121Y-39752142D01*
X85242790Y-39841001D01*
X83397505Y-54590009D02*
X83480194Y-55058965D01*
X84465002Y-54885317D01*
X84238907Y-54151525D02*
X84277534Y-54096361D01*
X84307892Y-53994301D01*
X84266547Y-53759823D01*
X84203113Y-53674300D01*
X84147949Y-53635674D01*
X84045889Y-53605316D01*
X83952097Y-53621854D01*
X83819680Y-53693556D01*
X83356160Y-54355531D01*
X83248663Y-53745888D01*
X75456132Y-66941865D02*
X75932032Y-66958484D01*
X75966932Y-65959093D01*
X75253081Y-65934165D02*
X74634411Y-65912561D01*
X74954246Y-66304914D01*
X74811476Y-66299929D01*
X74714634Y-66344195D01*
X74665382Y-66390123D01*
X74614468Y-66483641D01*
X74606159Y-66721591D01*
X74650425Y-66818433D01*
X74696353Y-66867685D01*
X74789871Y-66918599D01*
X75075411Y-66928570D01*
X75172253Y-66884304D01*
X75221505Y-66838376D01*
X74088333Y-40584380D02*
X74421666Y-40108190D01*
X74659761Y-40584380D02*
X74659761Y-39584380D01*
X74278809Y-39584380D01*
X74183571Y-39632000D01*
X74135952Y-39679619D01*
X74088333Y-39774857D01*
X74088333Y-39917714D01*
X74135952Y-40012952D01*
X74183571Y-40060571D01*
X74278809Y-40108190D01*
X74659761Y-40108190D01*
X73278809Y-40536761D02*
X73374047Y-40584380D01*
X73564523Y-40584380D01*
X73659761Y-40536761D01*
X73707380Y-40441523D01*
X73707380Y-40060571D01*
X73659761Y-39965333D01*
X73564523Y-39917714D01*
X73374047Y-39917714D01*
X73278809Y-39965333D01*
X73231190Y-40060571D01*
X73231190Y-40155809D01*
X73707380Y-40251047D01*
X72374047Y-40536761D02*
X72469285Y-40584380D01*
X72659761Y-40584380D01*
X72755000Y-40536761D01*
X72802619Y-40489142D01*
X72850238Y-40393904D01*
X72850238Y-40108190D01*
X72802619Y-40012952D01*
X72755000Y-39965333D01*
X72659761Y-39917714D01*
X72469285Y-39917714D01*
X72374047Y-39965333D01*
X71564523Y-40536761D02*
X71659761Y-40584380D01*
X71850238Y-40584380D01*
X71945476Y-40536761D01*
X71993095Y-40441523D01*
X71993095Y-40060571D01*
X71945476Y-39965333D01*
X71850238Y-39917714D01*
X71659761Y-39917714D01*
X71564523Y-39965333D01*
X71516904Y-40060571D01*
X71516904Y-40155809D01*
X71993095Y-40251047D01*
X71088333Y-40584380D02*
X71088333Y-39917714D01*
X71088333Y-39584380D02*
X71135952Y-39632000D01*
X71088333Y-39679619D01*
X71040714Y-39632000D01*
X71088333Y-39584380D01*
X71088333Y-39679619D01*
X70707380Y-39917714D02*
X70469285Y-40584380D01*
X70231190Y-39917714D01*
X69469285Y-40536761D02*
X69564523Y-40584380D01*
X69754999Y-40584380D01*
X69850238Y-40536761D01*
X69897857Y-40441523D01*
X69897857Y-40060571D01*
X69850238Y-39965333D01*
X69754999Y-39917714D01*
X69564523Y-39917714D01*
X69469285Y-39965333D01*
X69421666Y-40060571D01*
X69421666Y-40155809D01*
X69897857Y-40251047D01*
X68993095Y-40584380D02*
X68993095Y-39917714D01*
X68993095Y-40108190D02*
X68945476Y-40012952D01*
X68897857Y-39965333D01*
X68802619Y-39917714D01*
X68707380Y-39917714D01*
M02*
