G04 #@! TF.GenerationSoftware,KiCad,Pcbnew,(5.1.0)-1*
G04 #@! TF.CreationDate,2019-06-17T22:32:11+07:00*
G04 #@! TF.ProjectId,RCswitch2,52437377-6974-4636-9832-2e6b69636164,rev?*
G04 #@! TF.SameCoordinates,Original*
G04 #@! TF.FileFunction,Legend,Bot*
G04 #@! TF.FilePolarity,Positive*
%FSLAX46Y46*%
G04 Gerber Fmt 4.6, Leading zero omitted, Abs format (unit mm)*
G04 Created by KiCad (PCBNEW (5.1.0)-1) date 2019-06-17 22:32:11*
%MOMM*%
%LPD*%
G04 APERTURE LIST*
%ADD10C,0.300000*%
%ADD11C,0.100000*%
%ADD12C,0.250000*%
%ADD13C,0.120000*%
%ADD14C,0.150000*%
%ADD15R,1.882000X2.102000*%
%ADD16C,1.252000*%
%ADD17R,1.802000X1.802000*%
%ADD18O,1.802000X1.802000*%
%ADD19C,1.842000*%
%ADD20O,2.302000X1.842000*%
G04 APERTURE END LIST*
D10*
X50994571Y-45541857D02*
X50994571Y-45827571D01*
X51066000Y-45970428D01*
X51208857Y-46113285D01*
X51494571Y-46184714D01*
X51994571Y-46184714D01*
X52280285Y-46113285D01*
X52423142Y-45970428D01*
X52494571Y-45827571D01*
X52494571Y-45541857D01*
X52423142Y-45399000D01*
X52280285Y-45256142D01*
X51994571Y-45184714D01*
X51494571Y-45184714D01*
X51208857Y-45256142D01*
X51066000Y-45399000D01*
X50994571Y-45541857D01*
X50994571Y-46827571D02*
X52208857Y-46827571D01*
X52351714Y-46899000D01*
X52423142Y-46970428D01*
X52494571Y-47113285D01*
X52494571Y-47399000D01*
X52423142Y-47541857D01*
X52351714Y-47613285D01*
X52208857Y-47684714D01*
X50994571Y-47684714D01*
X50994571Y-48184714D02*
X50994571Y-49041857D01*
X52494571Y-48613285D02*
X50994571Y-48613285D01*
X52494571Y-49541857D02*
X50994571Y-49541857D01*
X50994571Y-50113285D01*
X51066000Y-50256142D01*
X51137428Y-50327571D01*
X51280285Y-50399000D01*
X51494571Y-50399000D01*
X51637428Y-50327571D01*
X51708857Y-50256142D01*
X51780285Y-50113285D01*
X51780285Y-49541857D01*
X50994571Y-51041857D02*
X52208857Y-51041857D01*
X52351714Y-51113285D01*
X52423142Y-51184714D01*
X52494571Y-51327571D01*
X52494571Y-51613285D01*
X52423142Y-51756142D01*
X52351714Y-51827571D01*
X52208857Y-51899000D01*
X50994571Y-51899000D01*
X50994571Y-52399000D02*
X50994571Y-53256142D01*
X52494571Y-52827571D02*
X50994571Y-52827571D01*
X27856571Y-48796142D02*
X26356571Y-48796142D01*
X27856571Y-49510428D02*
X26356571Y-49510428D01*
X27856571Y-50367571D01*
X26356571Y-50367571D01*
X27856571Y-51081857D02*
X26356571Y-51081857D01*
X26356571Y-51653285D01*
X26428000Y-51796142D01*
X26499428Y-51867571D01*
X26642285Y-51939000D01*
X26856571Y-51939000D01*
X26999428Y-51867571D01*
X27070857Y-51796142D01*
X27142285Y-51653285D01*
X27142285Y-51081857D01*
X26356571Y-52581857D02*
X27570857Y-52581857D01*
X27713714Y-52653285D01*
X27785142Y-52724714D01*
X27856571Y-52867571D01*
X27856571Y-53153285D01*
X27785142Y-53296142D01*
X27713714Y-53367571D01*
X27570857Y-53439000D01*
X26356571Y-53439000D01*
X26356571Y-53939000D02*
X26356571Y-54796142D01*
X27856571Y-54367571D02*
X26356571Y-54367571D01*
D11*
X29281380Y-43037190D02*
X28281380Y-43037190D01*
X29281380Y-43513380D02*
X28281380Y-43513380D01*
X29281380Y-44084809D01*
X28281380Y-44084809D01*
D10*
X50228428Y-57003142D02*
X49085571Y-57003142D01*
X49657000Y-57574571D02*
X49657000Y-56431714D01*
X50355428Y-47986142D02*
X49212571Y-47986142D01*
X49784000Y-48557571D02*
X49784000Y-47414714D01*
X33464428Y-47605142D02*
X32321571Y-47605142D01*
X32893000Y-48176571D02*
X32893000Y-47033714D01*
D12*
X28360714Y-47617571D02*
X29360714Y-47617571D01*
X28408333Y-47617571D02*
X28360714Y-47712809D01*
X28360714Y-47903285D01*
X28408333Y-47998523D01*
X28455952Y-48046142D01*
X28551190Y-48093761D01*
X28836904Y-48093761D01*
X28932142Y-48046142D01*
X28979761Y-47998523D01*
X29027380Y-47903285D01*
X29027380Y-47712809D01*
X28979761Y-47617571D01*
X28360714Y-48522333D02*
X29360714Y-48522333D01*
X28408333Y-48522333D02*
X28360714Y-48617571D01*
X28360714Y-48808047D01*
X28408333Y-48903285D01*
X28455952Y-48950904D01*
X28551190Y-48998523D01*
X28836904Y-48998523D01*
X28932142Y-48950904D01*
X28979761Y-48903285D01*
X29027380Y-48808047D01*
X29027380Y-48617571D01*
X28979761Y-48522333D01*
X29027380Y-49427095D02*
X28360714Y-49427095D01*
X28455952Y-49427095D02*
X28408333Y-49474714D01*
X28360714Y-49569952D01*
X28360714Y-49712809D01*
X28408333Y-49808047D01*
X28503571Y-49855666D01*
X29027380Y-49855666D01*
X28503571Y-49855666D02*
X28408333Y-49903285D01*
X28360714Y-49998523D01*
X28360714Y-50141380D01*
X28408333Y-50236619D01*
X28503571Y-50284238D01*
X29027380Y-50284238D01*
X28646428Y-51522333D02*
X28646428Y-52284238D01*
X29027380Y-51903285D02*
X28265476Y-51903285D01*
X28360714Y-53950904D02*
X29170238Y-53950904D01*
X29265476Y-53903285D01*
X29313095Y-53855666D01*
X29360714Y-53760428D01*
X29360714Y-53617571D01*
X29313095Y-53522333D01*
X28979761Y-53950904D02*
X29027380Y-53855666D01*
X29027380Y-53665190D01*
X28979761Y-53569952D01*
X28932142Y-53522333D01*
X28836904Y-53474714D01*
X28551190Y-53474714D01*
X28455952Y-53522333D01*
X28408333Y-53569952D01*
X28360714Y-53665190D01*
X28360714Y-53855666D01*
X28408333Y-53950904D01*
X28360714Y-54427095D02*
X29027380Y-54427095D01*
X28455952Y-54427095D02*
X28408333Y-54474714D01*
X28360714Y-54569952D01*
X28360714Y-54712809D01*
X28408333Y-54808047D01*
X28503571Y-54855666D01*
X29027380Y-54855666D01*
X29027380Y-55760428D02*
X28027380Y-55760428D01*
X28979761Y-55760428D02*
X29027380Y-55665190D01*
X29027380Y-55474714D01*
X28979761Y-55379476D01*
X28932142Y-55331857D01*
X28836904Y-55284238D01*
X28551190Y-55284238D01*
X28455952Y-55331857D01*
X28408333Y-55379476D01*
X28360714Y-55474714D01*
X28360714Y-55665190D01*
X28408333Y-55760428D01*
D13*
X41589000Y-46422000D02*
X41589000Y-48657000D01*
X33849000Y-46422000D02*
X41589000Y-46422000D01*
X33849000Y-52892000D02*
X33849000Y-46422000D01*
X41589000Y-52892000D02*
X33849000Y-52892000D01*
X41589000Y-50657000D02*
X41589000Y-52892000D01*
X41589000Y-48657000D02*
G75*
G03X41589000Y-50657000I0J-1000000D01*
G01*
X42089000Y-52204252D02*
X42089000Y-51681748D01*
X43509000Y-52204252D02*
X43509000Y-51681748D01*
X43509000Y-47871748D02*
X43509000Y-48394252D01*
X42089000Y-47871748D02*
X42089000Y-48394252D01*
X32572000Y-55686000D02*
X29912000Y-55686000D01*
X32572000Y-50546000D02*
X32572000Y-55686000D01*
X29912000Y-50546000D02*
X29912000Y-55686000D01*
X32572000Y-50546000D02*
X29912000Y-50546000D01*
X32572000Y-49276000D02*
X32572000Y-47946000D01*
X32572000Y-47946000D02*
X31242000Y-47946000D01*
X33129000Y-46719000D02*
X27109000Y-46719000D01*
X27109000Y-46719000D02*
X27109000Y-41419000D01*
X27109000Y-41419000D02*
X33129000Y-41419000D01*
X33129000Y-41419000D02*
X33129000Y-46719000D01*
X32099000Y-47009000D02*
X28099000Y-47009000D01*
X27109000Y-45339000D02*
X28109000Y-45339000D01*
X28109000Y-45339000D02*
X28109000Y-42799000D01*
X28109000Y-42799000D02*
X27109000Y-42799000D01*
X28109000Y-45339000D02*
X28639000Y-45089000D01*
X28639000Y-45089000D02*
X28639000Y-43049000D01*
X28639000Y-43049000D02*
X28109000Y-42799000D01*
X27109000Y-45089000D02*
X28109000Y-45089000D01*
X27109000Y-43049000D02*
X28109000Y-43049000D01*
X33129000Y-46139000D02*
X32529000Y-46139000D01*
X32529000Y-46139000D02*
X32529000Y-44539000D01*
X32529000Y-44539000D02*
X33129000Y-44539000D01*
X33129000Y-43599000D02*
X32529000Y-43599000D01*
X32529000Y-43599000D02*
X32529000Y-41999000D01*
X32529000Y-41999000D02*
X33129000Y-41999000D01*
X50274000Y-55736000D02*
X44254000Y-55736000D01*
X44254000Y-55736000D02*
X44254000Y-50436000D01*
X44254000Y-50436000D02*
X50274000Y-50436000D01*
X50274000Y-50436000D02*
X50274000Y-55736000D01*
X49244000Y-56026000D02*
X45244000Y-56026000D01*
X44254000Y-54356000D02*
X45254000Y-54356000D01*
X45254000Y-54356000D02*
X45254000Y-51816000D01*
X45254000Y-51816000D02*
X44254000Y-51816000D01*
X45254000Y-54356000D02*
X45784000Y-54106000D01*
X45784000Y-54106000D02*
X45784000Y-52066000D01*
X45784000Y-52066000D02*
X45254000Y-51816000D01*
X44254000Y-54106000D02*
X45254000Y-54106000D01*
X44254000Y-52066000D02*
X45254000Y-52066000D01*
X50274000Y-55156000D02*
X49674000Y-55156000D01*
X49674000Y-55156000D02*
X49674000Y-53556000D01*
X49674000Y-53556000D02*
X50274000Y-53556000D01*
X50274000Y-52616000D02*
X49674000Y-52616000D01*
X49674000Y-52616000D02*
X49674000Y-51016000D01*
X49674000Y-51016000D02*
X50274000Y-51016000D01*
X50274000Y-46846000D02*
X44254000Y-46846000D01*
X44254000Y-46846000D02*
X44254000Y-41546000D01*
X44254000Y-41546000D02*
X50274000Y-41546000D01*
X50274000Y-41546000D02*
X50274000Y-46846000D01*
X49244000Y-47136000D02*
X45244000Y-47136000D01*
X44254000Y-45466000D02*
X45254000Y-45466000D01*
X45254000Y-45466000D02*
X45254000Y-42926000D01*
X45254000Y-42926000D02*
X44254000Y-42926000D01*
X45254000Y-45466000D02*
X45784000Y-45216000D01*
X45784000Y-45216000D02*
X45784000Y-43176000D01*
X45784000Y-43176000D02*
X45254000Y-42926000D01*
X44254000Y-45216000D02*
X45254000Y-45216000D01*
X44254000Y-43176000D02*
X45254000Y-43176000D01*
X50274000Y-46266000D02*
X49674000Y-46266000D01*
X49674000Y-46266000D02*
X49674000Y-44666000D01*
X49674000Y-44666000D02*
X50274000Y-44666000D01*
X50274000Y-43726000D02*
X49674000Y-43726000D01*
X49674000Y-43726000D02*
X49674000Y-42126000D01*
X49674000Y-42126000D02*
X50274000Y-42126000D01*
D14*
X33107380Y-44323095D02*
X33916904Y-44323095D01*
X34012142Y-44370714D01*
X34059761Y-44418333D01*
X34107380Y-44513571D01*
X34107380Y-44704047D01*
X34059761Y-44799285D01*
X34012142Y-44846904D01*
X33916904Y-44894523D01*
X33107380Y-44894523D01*
X33202619Y-45323095D02*
X33155000Y-45370714D01*
X33107380Y-45465952D01*
X33107380Y-45704047D01*
X33155000Y-45799285D01*
X33202619Y-45846904D01*
X33297857Y-45894523D01*
X33393095Y-45894523D01*
X33535952Y-45846904D01*
X34107380Y-45275476D01*
X34107380Y-45894523D01*
X41727380Y-52275333D02*
X41251190Y-51942000D01*
X41727380Y-51703904D02*
X40727380Y-51703904D01*
X40727380Y-52084857D01*
X40775000Y-52180095D01*
X40822619Y-52227714D01*
X40917857Y-52275333D01*
X41060714Y-52275333D01*
X41155952Y-52227714D01*
X41203571Y-52180095D01*
X41251190Y-52084857D01*
X41251190Y-51703904D01*
X40822619Y-52656285D02*
X40775000Y-52703904D01*
X40727380Y-52799142D01*
X40727380Y-53037238D01*
X40775000Y-53132476D01*
X40822619Y-53180095D01*
X40917857Y-53227714D01*
X41013095Y-53227714D01*
X41155952Y-53180095D01*
X41727380Y-52608666D01*
X41727380Y-53227714D01*
X41632142Y-47585333D02*
X41679761Y-47537714D01*
X41727380Y-47394857D01*
X41727380Y-47299619D01*
X41679761Y-47156761D01*
X41584523Y-47061523D01*
X41489285Y-47013904D01*
X41298809Y-46966285D01*
X41155952Y-46966285D01*
X40965476Y-47013904D01*
X40870238Y-47061523D01*
X40775000Y-47156761D01*
X40727380Y-47299619D01*
X40727380Y-47394857D01*
X40775000Y-47537714D01*
X40822619Y-47585333D01*
X41727380Y-48537714D02*
X41727380Y-47966285D01*
X41727380Y-48252000D02*
X40727380Y-48252000D01*
X40870238Y-48156761D01*
X40965476Y-48061523D01*
X41013095Y-47966285D01*
X30567380Y-56689666D02*
X31281666Y-56689666D01*
X31424523Y-56642047D01*
X31519761Y-56546809D01*
X31567380Y-56403952D01*
X31567380Y-56308714D01*
X31567380Y-57689666D02*
X31567380Y-57118238D01*
X31567380Y-57403952D02*
X30567380Y-57403952D01*
X30710238Y-57308714D01*
X30805476Y-57213476D01*
X30853095Y-57118238D01*
X29678380Y-39925666D02*
X30392666Y-39925666D01*
X30535523Y-39878047D01*
X30630761Y-39782809D01*
X30678380Y-39639952D01*
X30678380Y-39544714D01*
X29773619Y-40354238D02*
X29726000Y-40401857D01*
X29678380Y-40497095D01*
X29678380Y-40735190D01*
X29726000Y-40830428D01*
X29773619Y-40878047D01*
X29868857Y-40925666D01*
X29964095Y-40925666D01*
X30106952Y-40878047D01*
X30678380Y-40306619D01*
X30678380Y-40925666D01*
X51141380Y-55038666D02*
X51855666Y-55038666D01*
X51998523Y-54991047D01*
X52093761Y-54895809D01*
X52141380Y-54752952D01*
X52141380Y-54657714D01*
X51141380Y-55419619D02*
X51141380Y-56038666D01*
X51522333Y-55705333D01*
X51522333Y-55848190D01*
X51569952Y-55943428D01*
X51617571Y-55991047D01*
X51712809Y-56038666D01*
X51950904Y-56038666D01*
X52046142Y-55991047D01*
X52093761Y-55943428D01*
X52141380Y-55848190D01*
X52141380Y-55562476D01*
X52093761Y-55467238D01*
X52046142Y-55419619D01*
X51014380Y-41957666D02*
X51728666Y-41957666D01*
X51871523Y-41910047D01*
X51966761Y-41814809D01*
X52014380Y-41671952D01*
X52014380Y-41576714D01*
X51347714Y-42862428D02*
X52014380Y-42862428D01*
X50966761Y-42624333D02*
X51681047Y-42386238D01*
X51681047Y-43005285D01*
%LPC*%
D15*
X40259000Y-44892000D03*
X35179000Y-54422000D03*
X37719000Y-44892000D03*
X37719000Y-54422000D03*
X35179000Y-44892000D03*
X40259000Y-54422000D03*
D11*
G36*
X43304505Y-50293311D02*
G01*
X43330925Y-50297230D01*
X43356835Y-50303720D01*
X43381983Y-50312718D01*
X43406128Y-50324138D01*
X43429038Y-50337869D01*
X43450492Y-50353780D01*
X43470282Y-50371718D01*
X43488220Y-50391508D01*
X43504131Y-50412962D01*
X43517862Y-50435872D01*
X43529282Y-50460017D01*
X43538280Y-50485165D01*
X43544770Y-50511075D01*
X43548689Y-50537495D01*
X43550000Y-50564173D01*
X43550000Y-51271827D01*
X43548689Y-51298505D01*
X43544770Y-51324925D01*
X43538280Y-51350835D01*
X43529282Y-51375983D01*
X43517862Y-51400128D01*
X43504131Y-51423038D01*
X43488220Y-51444492D01*
X43470282Y-51464282D01*
X43450492Y-51482220D01*
X43429038Y-51498131D01*
X43406128Y-51511862D01*
X43381983Y-51523282D01*
X43356835Y-51532280D01*
X43330925Y-51538770D01*
X43304505Y-51542689D01*
X43277827Y-51544000D01*
X42320173Y-51544000D01*
X42293495Y-51542689D01*
X42267075Y-51538770D01*
X42241165Y-51532280D01*
X42216017Y-51523282D01*
X42191872Y-51511862D01*
X42168962Y-51498131D01*
X42147508Y-51482220D01*
X42127718Y-51464282D01*
X42109780Y-51444492D01*
X42093869Y-51423038D01*
X42080138Y-51400128D01*
X42068718Y-51375983D01*
X42059720Y-51350835D01*
X42053230Y-51324925D01*
X42049311Y-51298505D01*
X42048000Y-51271827D01*
X42048000Y-50564173D01*
X42049311Y-50537495D01*
X42053230Y-50511075D01*
X42059720Y-50485165D01*
X42068718Y-50460017D01*
X42080138Y-50435872D01*
X42093869Y-50412962D01*
X42109780Y-50391508D01*
X42127718Y-50371718D01*
X42147508Y-50353780D01*
X42168962Y-50337869D01*
X42191872Y-50324138D01*
X42216017Y-50312718D01*
X42241165Y-50303720D01*
X42267075Y-50297230D01*
X42293495Y-50293311D01*
X42320173Y-50292000D01*
X43277827Y-50292000D01*
X43304505Y-50293311D01*
X43304505Y-50293311D01*
G37*
D16*
X42799000Y-50918000D03*
D11*
G36*
X43304505Y-52343311D02*
G01*
X43330925Y-52347230D01*
X43356835Y-52353720D01*
X43381983Y-52362718D01*
X43406128Y-52374138D01*
X43429038Y-52387869D01*
X43450492Y-52403780D01*
X43470282Y-52421718D01*
X43488220Y-52441508D01*
X43504131Y-52462962D01*
X43517862Y-52485872D01*
X43529282Y-52510017D01*
X43538280Y-52535165D01*
X43544770Y-52561075D01*
X43548689Y-52587495D01*
X43550000Y-52614173D01*
X43550000Y-53321827D01*
X43548689Y-53348505D01*
X43544770Y-53374925D01*
X43538280Y-53400835D01*
X43529282Y-53425983D01*
X43517862Y-53450128D01*
X43504131Y-53473038D01*
X43488220Y-53494492D01*
X43470282Y-53514282D01*
X43450492Y-53532220D01*
X43429038Y-53548131D01*
X43406128Y-53561862D01*
X43381983Y-53573282D01*
X43356835Y-53582280D01*
X43330925Y-53588770D01*
X43304505Y-53592689D01*
X43277827Y-53594000D01*
X42320173Y-53594000D01*
X42293495Y-53592689D01*
X42267075Y-53588770D01*
X42241165Y-53582280D01*
X42216017Y-53573282D01*
X42191872Y-53561862D01*
X42168962Y-53548131D01*
X42147508Y-53532220D01*
X42127718Y-53514282D01*
X42109780Y-53494492D01*
X42093869Y-53473038D01*
X42080138Y-53450128D01*
X42068718Y-53425983D01*
X42059720Y-53400835D01*
X42053230Y-53374925D01*
X42049311Y-53348505D01*
X42048000Y-53321827D01*
X42048000Y-52614173D01*
X42049311Y-52587495D01*
X42053230Y-52561075D01*
X42059720Y-52535165D01*
X42068718Y-52510017D01*
X42080138Y-52485872D01*
X42093869Y-52462962D01*
X42109780Y-52441508D01*
X42127718Y-52421718D01*
X42147508Y-52403780D01*
X42168962Y-52387869D01*
X42191872Y-52374138D01*
X42216017Y-52362718D01*
X42241165Y-52353720D01*
X42267075Y-52347230D01*
X42293495Y-52343311D01*
X42320173Y-52342000D01*
X43277827Y-52342000D01*
X43304505Y-52343311D01*
X43304505Y-52343311D01*
G37*
D16*
X42799000Y-52968000D03*
D11*
G36*
X43304505Y-48533311D02*
G01*
X43330925Y-48537230D01*
X43356835Y-48543720D01*
X43381983Y-48552718D01*
X43406128Y-48564138D01*
X43429038Y-48577869D01*
X43450492Y-48593780D01*
X43470282Y-48611718D01*
X43488220Y-48631508D01*
X43504131Y-48652962D01*
X43517862Y-48675872D01*
X43529282Y-48700017D01*
X43538280Y-48725165D01*
X43544770Y-48751075D01*
X43548689Y-48777495D01*
X43550000Y-48804173D01*
X43550000Y-49511827D01*
X43548689Y-49538505D01*
X43544770Y-49564925D01*
X43538280Y-49590835D01*
X43529282Y-49615983D01*
X43517862Y-49640128D01*
X43504131Y-49663038D01*
X43488220Y-49684492D01*
X43470282Y-49704282D01*
X43450492Y-49722220D01*
X43429038Y-49738131D01*
X43406128Y-49751862D01*
X43381983Y-49763282D01*
X43356835Y-49772280D01*
X43330925Y-49778770D01*
X43304505Y-49782689D01*
X43277827Y-49784000D01*
X42320173Y-49784000D01*
X42293495Y-49782689D01*
X42267075Y-49778770D01*
X42241165Y-49772280D01*
X42216017Y-49763282D01*
X42191872Y-49751862D01*
X42168962Y-49738131D01*
X42147508Y-49722220D01*
X42127718Y-49704282D01*
X42109780Y-49684492D01*
X42093869Y-49663038D01*
X42080138Y-49640128D01*
X42068718Y-49615983D01*
X42059720Y-49590835D01*
X42053230Y-49564925D01*
X42049311Y-49538505D01*
X42048000Y-49511827D01*
X42048000Y-48804173D01*
X42049311Y-48777495D01*
X42053230Y-48751075D01*
X42059720Y-48725165D01*
X42068718Y-48700017D01*
X42080138Y-48675872D01*
X42093869Y-48652962D01*
X42109780Y-48631508D01*
X42127718Y-48611718D01*
X42147508Y-48593780D01*
X42168962Y-48577869D01*
X42191872Y-48564138D01*
X42216017Y-48552718D01*
X42241165Y-48543720D01*
X42267075Y-48537230D01*
X42293495Y-48533311D01*
X42320173Y-48532000D01*
X43277827Y-48532000D01*
X43304505Y-48533311D01*
X43304505Y-48533311D01*
G37*
D16*
X42799000Y-49158000D03*
D11*
G36*
X43304505Y-46483311D02*
G01*
X43330925Y-46487230D01*
X43356835Y-46493720D01*
X43381983Y-46502718D01*
X43406128Y-46514138D01*
X43429038Y-46527869D01*
X43450492Y-46543780D01*
X43470282Y-46561718D01*
X43488220Y-46581508D01*
X43504131Y-46602962D01*
X43517862Y-46625872D01*
X43529282Y-46650017D01*
X43538280Y-46675165D01*
X43544770Y-46701075D01*
X43548689Y-46727495D01*
X43550000Y-46754173D01*
X43550000Y-47461827D01*
X43548689Y-47488505D01*
X43544770Y-47514925D01*
X43538280Y-47540835D01*
X43529282Y-47565983D01*
X43517862Y-47590128D01*
X43504131Y-47613038D01*
X43488220Y-47634492D01*
X43470282Y-47654282D01*
X43450492Y-47672220D01*
X43429038Y-47688131D01*
X43406128Y-47701862D01*
X43381983Y-47713282D01*
X43356835Y-47722280D01*
X43330925Y-47728770D01*
X43304505Y-47732689D01*
X43277827Y-47734000D01*
X42320173Y-47734000D01*
X42293495Y-47732689D01*
X42267075Y-47728770D01*
X42241165Y-47722280D01*
X42216017Y-47713282D01*
X42191872Y-47701862D01*
X42168962Y-47688131D01*
X42147508Y-47672220D01*
X42127718Y-47654282D01*
X42109780Y-47634492D01*
X42093869Y-47613038D01*
X42080138Y-47590128D01*
X42068718Y-47565983D01*
X42059720Y-47540835D01*
X42053230Y-47514925D01*
X42049311Y-47488505D01*
X42048000Y-47461827D01*
X42048000Y-46754173D01*
X42049311Y-46727495D01*
X42053230Y-46701075D01*
X42059720Y-46675165D01*
X42068718Y-46650017D01*
X42080138Y-46625872D01*
X42093869Y-46602962D01*
X42109780Y-46581508D01*
X42127718Y-46561718D01*
X42147508Y-46543780D01*
X42168962Y-46527869D01*
X42191872Y-46514138D01*
X42216017Y-46502718D01*
X42241165Y-46493720D01*
X42267075Y-46487230D01*
X42293495Y-46483311D01*
X42320173Y-46482000D01*
X43277827Y-46482000D01*
X43304505Y-46483311D01*
X43304505Y-46483311D01*
G37*
D16*
X42799000Y-47108000D03*
D17*
X31242000Y-49276000D03*
D18*
X31242000Y-51816000D03*
X31242000Y-54356000D03*
D11*
G36*
X31011287Y-44419274D02*
G01*
X31036977Y-44423085D01*
X31062171Y-44429396D01*
X31086625Y-44438146D01*
X31110103Y-44449250D01*
X31132380Y-44462602D01*
X31153241Y-44478074D01*
X31172485Y-44495515D01*
X31189926Y-44514759D01*
X31205398Y-44535620D01*
X31218750Y-44557897D01*
X31229854Y-44581375D01*
X31238604Y-44605829D01*
X31244915Y-44631023D01*
X31248726Y-44656713D01*
X31250000Y-44682654D01*
X31250000Y-45995346D01*
X31248726Y-46021287D01*
X31244915Y-46046977D01*
X31238604Y-46072171D01*
X31229854Y-46096625D01*
X31218750Y-46120103D01*
X31205398Y-46142380D01*
X31189926Y-46163241D01*
X31172485Y-46182485D01*
X31153241Y-46199926D01*
X31132380Y-46215398D01*
X31110103Y-46228750D01*
X31086625Y-46239854D01*
X31062171Y-46248604D01*
X31036977Y-46254915D01*
X31011287Y-46258726D01*
X30985346Y-46260000D01*
X29212654Y-46260000D01*
X29186713Y-46258726D01*
X29161023Y-46254915D01*
X29135829Y-46248604D01*
X29111375Y-46239854D01*
X29087897Y-46228750D01*
X29065620Y-46215398D01*
X29044759Y-46199926D01*
X29025515Y-46182485D01*
X29008074Y-46163241D01*
X28992602Y-46142380D01*
X28979250Y-46120103D01*
X28968146Y-46096625D01*
X28959396Y-46072171D01*
X28953085Y-46046977D01*
X28949274Y-46021287D01*
X28948000Y-45995346D01*
X28948000Y-44682654D01*
X28949274Y-44656713D01*
X28953085Y-44631023D01*
X28959396Y-44605829D01*
X28968146Y-44581375D01*
X28979250Y-44557897D01*
X28992602Y-44535620D01*
X29008074Y-44514759D01*
X29025515Y-44495515D01*
X29044759Y-44478074D01*
X29065620Y-44462602D01*
X29087897Y-44449250D01*
X29111375Y-44438146D01*
X29135829Y-44429396D01*
X29161023Y-44423085D01*
X29186713Y-44419274D01*
X29212654Y-44418000D01*
X30985346Y-44418000D01*
X31011287Y-44419274D01*
X31011287Y-44419274D01*
G37*
D19*
X30099000Y-45339000D03*
D20*
X30099000Y-42799000D03*
D11*
G36*
X48156287Y-53436274D02*
G01*
X48181977Y-53440085D01*
X48207171Y-53446396D01*
X48231625Y-53455146D01*
X48255103Y-53466250D01*
X48277380Y-53479602D01*
X48298241Y-53495074D01*
X48317485Y-53512515D01*
X48334926Y-53531759D01*
X48350398Y-53552620D01*
X48363750Y-53574897D01*
X48374854Y-53598375D01*
X48383604Y-53622829D01*
X48389915Y-53648023D01*
X48393726Y-53673713D01*
X48395000Y-53699654D01*
X48395000Y-55012346D01*
X48393726Y-55038287D01*
X48389915Y-55063977D01*
X48383604Y-55089171D01*
X48374854Y-55113625D01*
X48363750Y-55137103D01*
X48350398Y-55159380D01*
X48334926Y-55180241D01*
X48317485Y-55199485D01*
X48298241Y-55216926D01*
X48277380Y-55232398D01*
X48255103Y-55245750D01*
X48231625Y-55256854D01*
X48207171Y-55265604D01*
X48181977Y-55271915D01*
X48156287Y-55275726D01*
X48130346Y-55277000D01*
X46357654Y-55277000D01*
X46331713Y-55275726D01*
X46306023Y-55271915D01*
X46280829Y-55265604D01*
X46256375Y-55256854D01*
X46232897Y-55245750D01*
X46210620Y-55232398D01*
X46189759Y-55216926D01*
X46170515Y-55199485D01*
X46153074Y-55180241D01*
X46137602Y-55159380D01*
X46124250Y-55137103D01*
X46113146Y-55113625D01*
X46104396Y-55089171D01*
X46098085Y-55063977D01*
X46094274Y-55038287D01*
X46093000Y-55012346D01*
X46093000Y-53699654D01*
X46094274Y-53673713D01*
X46098085Y-53648023D01*
X46104396Y-53622829D01*
X46113146Y-53598375D01*
X46124250Y-53574897D01*
X46137602Y-53552620D01*
X46153074Y-53531759D01*
X46170515Y-53512515D01*
X46189759Y-53495074D01*
X46210620Y-53479602D01*
X46232897Y-53466250D01*
X46256375Y-53455146D01*
X46280829Y-53446396D01*
X46306023Y-53440085D01*
X46331713Y-53436274D01*
X46357654Y-53435000D01*
X48130346Y-53435000D01*
X48156287Y-53436274D01*
X48156287Y-53436274D01*
G37*
D19*
X47244000Y-54356000D03*
D20*
X47244000Y-51816000D03*
D11*
G36*
X48156287Y-44546274D02*
G01*
X48181977Y-44550085D01*
X48207171Y-44556396D01*
X48231625Y-44565146D01*
X48255103Y-44576250D01*
X48277380Y-44589602D01*
X48298241Y-44605074D01*
X48317485Y-44622515D01*
X48334926Y-44641759D01*
X48350398Y-44662620D01*
X48363750Y-44684897D01*
X48374854Y-44708375D01*
X48383604Y-44732829D01*
X48389915Y-44758023D01*
X48393726Y-44783713D01*
X48395000Y-44809654D01*
X48395000Y-46122346D01*
X48393726Y-46148287D01*
X48389915Y-46173977D01*
X48383604Y-46199171D01*
X48374854Y-46223625D01*
X48363750Y-46247103D01*
X48350398Y-46269380D01*
X48334926Y-46290241D01*
X48317485Y-46309485D01*
X48298241Y-46326926D01*
X48277380Y-46342398D01*
X48255103Y-46355750D01*
X48231625Y-46366854D01*
X48207171Y-46375604D01*
X48181977Y-46381915D01*
X48156287Y-46385726D01*
X48130346Y-46387000D01*
X46357654Y-46387000D01*
X46331713Y-46385726D01*
X46306023Y-46381915D01*
X46280829Y-46375604D01*
X46256375Y-46366854D01*
X46232897Y-46355750D01*
X46210620Y-46342398D01*
X46189759Y-46326926D01*
X46170515Y-46309485D01*
X46153074Y-46290241D01*
X46137602Y-46269380D01*
X46124250Y-46247103D01*
X46113146Y-46223625D01*
X46104396Y-46199171D01*
X46098085Y-46173977D01*
X46094274Y-46148287D01*
X46093000Y-46122346D01*
X46093000Y-44809654D01*
X46094274Y-44783713D01*
X46098085Y-44758023D01*
X46104396Y-44732829D01*
X46113146Y-44708375D01*
X46124250Y-44684897D01*
X46137602Y-44662620D01*
X46153074Y-44641759D01*
X46170515Y-44622515D01*
X46189759Y-44605074D01*
X46210620Y-44589602D01*
X46232897Y-44576250D01*
X46256375Y-44565146D01*
X46280829Y-44556396D01*
X46306023Y-44550085D01*
X46331713Y-44546274D01*
X46357654Y-44545000D01*
X48130346Y-44545000D01*
X48156287Y-44546274D01*
X48156287Y-44546274D01*
G37*
D19*
X47244000Y-45466000D03*
D20*
X47244000Y-42926000D03*
M02*
