%FSLAX45Y45*%
G04 Gerber Fmt 4.5, Leading zero omitted, Abs format (unit mm)*
G04 Created by KiCad (PCBNEW (5.1.0)-1) date 2019-06-17 22:32:15*
%MOMM*%
%LPD*%
G04 APERTURE LIST*
%ADD10C,0.120000*%
%ADD11C,0.200000*%
%ADD12C,0.300000*%
G04 APERTURE END LIST*
D10*
X2578100Y-5829300D02*
X2578100Y-3860800D01*
X5308600Y-5829300D02*
X2578100Y-5829300D01*
X5308600Y-3860800D02*
X5308600Y-5829300D01*
X2578100Y-3860800D02*
X5308600Y-3860800D01*
D11*
D12*
X2858528Y-6301014D02*
X2858528Y-6001014D01*
X2929957Y-6001014D01*
X2972814Y-6015300D01*
X3001386Y-6043871D01*
X3015671Y-6072443D01*
X3029957Y-6129586D01*
X3029957Y-6172443D01*
X3015671Y-6229586D01*
X3001386Y-6258157D01*
X2972814Y-6286729D01*
X2929957Y-6301014D01*
X2858528Y-6301014D01*
X3158528Y-6301014D02*
X3158528Y-6101014D01*
X3158528Y-6158157D02*
X3172814Y-6129586D01*
X3187100Y-6115300D01*
X3215671Y-6101014D01*
X3244243Y-6101014D01*
X3344243Y-6301014D02*
X3344243Y-6101014D01*
X3344243Y-6001014D02*
X3329957Y-6015300D01*
X3344243Y-6029586D01*
X3358528Y-6015300D01*
X3344243Y-6001014D01*
X3344243Y-6029586D01*
X3529957Y-6301014D02*
X3501386Y-6286729D01*
X3487100Y-6258157D01*
X3487100Y-6001014D01*
X3687100Y-6301014D02*
X3658528Y-6286729D01*
X3644243Y-6258157D01*
X3644243Y-6001014D01*
X4029957Y-6301014D02*
X4029957Y-6001014D01*
X4129957Y-6215300D01*
X4229957Y-6001014D01*
X4229957Y-6301014D01*
X4501386Y-6301014D02*
X4501386Y-6143871D01*
X4487100Y-6115300D01*
X4458528Y-6101014D01*
X4401386Y-6101014D01*
X4372814Y-6115300D01*
X4501386Y-6286729D02*
X4472814Y-6301014D01*
X4401386Y-6301014D01*
X4372814Y-6286729D01*
X4358528Y-6258157D01*
X4358528Y-6229586D01*
X4372814Y-6201014D01*
X4401386Y-6186729D01*
X4472814Y-6186729D01*
X4501386Y-6172443D01*
X4644243Y-6101014D02*
X4644243Y-6401014D01*
X4644243Y-6115300D02*
X4672814Y-6101014D01*
X4729957Y-6101014D01*
X4758528Y-6115300D01*
X4772814Y-6129586D01*
X4787100Y-6158157D01*
X4787100Y-6243871D01*
X4772814Y-6272443D01*
X4758528Y-6286729D01*
X4729957Y-6301014D01*
X4672814Y-6301014D01*
X4644243Y-6286729D01*
X4915671Y-6272443D02*
X4929957Y-6286729D01*
X4915671Y-6301014D01*
X4901386Y-6286729D01*
X4915671Y-6272443D01*
X4915671Y-6301014D01*
X4915671Y-6115300D02*
X4929957Y-6129586D01*
X4915671Y-6143871D01*
X4901386Y-6129586D01*
X4915671Y-6115300D01*
X4915671Y-6143871D01*
M02*
