G04 #@! TF.GenerationSoftware,KiCad,Pcbnew,(5.1.0)-1*
G04 #@! TF.CreationDate,2019-06-17T22:32:11+07:00*
G04 #@! TF.ProjectId,RCswitch2,52437377-6974-4636-9832-2e6b69636164,rev?*
G04 #@! TF.SameCoordinates,Original*
G04 #@! TF.FileFunction,Soldermask,Bot*
G04 #@! TF.FilePolarity,Negative*
%FSLAX46Y46*%
G04 Gerber Fmt 4.6, Leading zero omitted, Abs format (unit mm)*
G04 Created by KiCad (PCBNEW (5.1.0)-1) date 2019-06-17 22:32:11*
%MOMM*%
%LPD*%
G04 APERTURE LIST*
%ADD10C,0.100000*%
G04 APERTURE END LIST*
D10*
G36*
X36120000Y-55473000D02*
G01*
X34238000Y-55473000D01*
X34238000Y-53371000D01*
X36120000Y-53371000D01*
X36120000Y-55473000D01*
X36120000Y-55473000D01*
G37*
G36*
X41200000Y-55473000D02*
G01*
X39318000Y-55473000D01*
X39318000Y-53371000D01*
X41200000Y-53371000D01*
X41200000Y-55473000D01*
X41200000Y-55473000D01*
G37*
G36*
X38660000Y-55473000D02*
G01*
X36778000Y-55473000D01*
X36778000Y-53371000D01*
X38660000Y-53371000D01*
X38660000Y-55473000D01*
X38660000Y-55473000D01*
G37*
G36*
X48253561Y-53438966D02*
G01*
X48286383Y-53448923D01*
X48316632Y-53465092D01*
X48343148Y-53486852D01*
X48364908Y-53513368D01*
X48381077Y-53543617D01*
X48391034Y-53576439D01*
X48395000Y-53616713D01*
X48395000Y-55095287D01*
X48391034Y-55135561D01*
X48381077Y-55168383D01*
X48364908Y-55198632D01*
X48343148Y-55225148D01*
X48316632Y-55246908D01*
X48286383Y-55263077D01*
X48253561Y-55273034D01*
X48213287Y-55277000D01*
X46274713Y-55277000D01*
X46234439Y-55273034D01*
X46201617Y-55263077D01*
X46171368Y-55246908D01*
X46144852Y-55225148D01*
X46123092Y-55198632D01*
X46106923Y-55168383D01*
X46096966Y-55135561D01*
X46093000Y-55095287D01*
X46093000Y-53616713D01*
X46096966Y-53576439D01*
X46106923Y-53543617D01*
X46123092Y-53513368D01*
X46144852Y-53486852D01*
X46171368Y-53465092D01*
X46201617Y-53448923D01*
X46234439Y-53438966D01*
X46274713Y-53435000D01*
X48213287Y-53435000D01*
X48253561Y-53438966D01*
X48253561Y-53438966D01*
G37*
G36*
X31352442Y-53461518D02*
G01*
X31418627Y-53468037D01*
X31588466Y-53519557D01*
X31744991Y-53603222D01*
X31780729Y-53632552D01*
X31882186Y-53715814D01*
X31965448Y-53817271D01*
X31994778Y-53853009D01*
X32078443Y-54009534D01*
X32129963Y-54179373D01*
X32147359Y-54356000D01*
X32129963Y-54532627D01*
X32078443Y-54702466D01*
X31994778Y-54858991D01*
X31965448Y-54894729D01*
X31882186Y-54996186D01*
X31799581Y-55063977D01*
X31744991Y-55108778D01*
X31588466Y-55192443D01*
X31418627Y-55243963D01*
X31352442Y-55250482D01*
X31286260Y-55257000D01*
X31197740Y-55257000D01*
X31131558Y-55250482D01*
X31065373Y-55243963D01*
X30895534Y-55192443D01*
X30739009Y-55108778D01*
X30684419Y-55063977D01*
X30601814Y-54996186D01*
X30518552Y-54894729D01*
X30489222Y-54858991D01*
X30405557Y-54702466D01*
X30354037Y-54532627D01*
X30336641Y-54356000D01*
X30354037Y-54179373D01*
X30405557Y-54009534D01*
X30489222Y-53853009D01*
X30518552Y-53817271D01*
X30601814Y-53715814D01*
X30703271Y-53632552D01*
X30739009Y-53603222D01*
X30895534Y-53519557D01*
X31065373Y-53468037D01*
X31131558Y-53461518D01*
X31197740Y-53455000D01*
X31286260Y-53455000D01*
X31352442Y-53461518D01*
X31352442Y-53461518D01*
G37*
G36*
X43387674Y-52346465D02*
G01*
X43425367Y-52357899D01*
X43460103Y-52376466D01*
X43490548Y-52401452D01*
X43515534Y-52431897D01*
X43534101Y-52466633D01*
X43545535Y-52504326D01*
X43550000Y-52549661D01*
X43550000Y-53386339D01*
X43545535Y-53431674D01*
X43534101Y-53469367D01*
X43515534Y-53504103D01*
X43490548Y-53534548D01*
X43460103Y-53559534D01*
X43425367Y-53578101D01*
X43387674Y-53589535D01*
X43342339Y-53594000D01*
X42255661Y-53594000D01*
X42210326Y-53589535D01*
X42172633Y-53578101D01*
X42137897Y-53559534D01*
X42107452Y-53534548D01*
X42082466Y-53504103D01*
X42063899Y-53469367D01*
X42052465Y-53431674D01*
X42048000Y-53386339D01*
X42048000Y-52549661D01*
X42052465Y-52504326D01*
X42063899Y-52466633D01*
X42082466Y-52431897D01*
X42107452Y-52401452D01*
X42137897Y-52376466D01*
X42172633Y-52357899D01*
X42210326Y-52346465D01*
X42255661Y-52342000D01*
X43342339Y-52342000D01*
X43387674Y-52346465D01*
X43387674Y-52346465D01*
G37*
G36*
X47564345Y-50899442D02*
G01*
X47654548Y-50908326D01*
X47828157Y-50960990D01*
X47988156Y-51046511D01*
X48008518Y-51063222D01*
X48128397Y-51161603D01*
X48207729Y-51258271D01*
X48243489Y-51301844D01*
X48329010Y-51461843D01*
X48381674Y-51635452D01*
X48399456Y-51816000D01*
X48381674Y-51996548D01*
X48329010Y-52170157D01*
X48243489Y-52330156D01*
X48216766Y-52362718D01*
X48128397Y-52470397D01*
X48031812Y-52549661D01*
X47988156Y-52585489D01*
X47828157Y-52671010D01*
X47654548Y-52723674D01*
X47564345Y-52732558D01*
X47519245Y-52737000D01*
X46968755Y-52737000D01*
X46923655Y-52732558D01*
X46833452Y-52723674D01*
X46659843Y-52671010D01*
X46499844Y-52585489D01*
X46456188Y-52549661D01*
X46359603Y-52470397D01*
X46271234Y-52362718D01*
X46244511Y-52330156D01*
X46158990Y-52170157D01*
X46106326Y-51996548D01*
X46088544Y-51816000D01*
X46106326Y-51635452D01*
X46158990Y-51461843D01*
X46244511Y-51301844D01*
X46280271Y-51258271D01*
X46359603Y-51161603D01*
X46479482Y-51063222D01*
X46499844Y-51046511D01*
X46659843Y-50960990D01*
X46833452Y-50908326D01*
X46923655Y-50899442D01*
X46968755Y-50895000D01*
X47519245Y-50895000D01*
X47564345Y-50899442D01*
X47564345Y-50899442D01*
G37*
G36*
X31352443Y-50921519D02*
G01*
X31418627Y-50928037D01*
X31588466Y-50979557D01*
X31744991Y-51063222D01*
X31780729Y-51092552D01*
X31882186Y-51175814D01*
X31960981Y-51271827D01*
X31994778Y-51313009D01*
X32078443Y-51469534D01*
X32129963Y-51639373D01*
X32147359Y-51816000D01*
X32129963Y-51992627D01*
X32078443Y-52162466D01*
X31994778Y-52318991D01*
X31971603Y-52347230D01*
X31882186Y-52456186D01*
X31780729Y-52539448D01*
X31744991Y-52568778D01*
X31588466Y-52652443D01*
X31418627Y-52703963D01*
X31352443Y-52710481D01*
X31286260Y-52717000D01*
X31197740Y-52717000D01*
X31131558Y-52710482D01*
X31065373Y-52703963D01*
X30895534Y-52652443D01*
X30739009Y-52568778D01*
X30703271Y-52539448D01*
X30601814Y-52456186D01*
X30512397Y-52347230D01*
X30489222Y-52318991D01*
X30405557Y-52162466D01*
X30354037Y-51992627D01*
X30336641Y-51816000D01*
X30354037Y-51639373D01*
X30405557Y-51469534D01*
X30489222Y-51313009D01*
X30523019Y-51271827D01*
X30601814Y-51175814D01*
X30703271Y-51092552D01*
X30739009Y-51063222D01*
X30895534Y-50979557D01*
X31065373Y-50928037D01*
X31131557Y-50921519D01*
X31197740Y-50915000D01*
X31286260Y-50915000D01*
X31352443Y-50921519D01*
X31352443Y-50921519D01*
G37*
G36*
X43387674Y-50296465D02*
G01*
X43425367Y-50307899D01*
X43460103Y-50326466D01*
X43490548Y-50351452D01*
X43515534Y-50381897D01*
X43534101Y-50416633D01*
X43545535Y-50454326D01*
X43550000Y-50499661D01*
X43550000Y-51336339D01*
X43545535Y-51381674D01*
X43534101Y-51419367D01*
X43515534Y-51454103D01*
X43490548Y-51484548D01*
X43460103Y-51509534D01*
X43425367Y-51528101D01*
X43387674Y-51539535D01*
X43342339Y-51544000D01*
X42255661Y-51544000D01*
X42210326Y-51539535D01*
X42172633Y-51528101D01*
X42137897Y-51509534D01*
X42107452Y-51484548D01*
X42082466Y-51454103D01*
X42063899Y-51419367D01*
X42052465Y-51381674D01*
X42048000Y-51336339D01*
X42048000Y-50499661D01*
X42052465Y-50454326D01*
X42063899Y-50416633D01*
X42082466Y-50381897D01*
X42107452Y-50351452D01*
X42137897Y-50326466D01*
X42172633Y-50307899D01*
X42210326Y-50296465D01*
X42255661Y-50292000D01*
X43342339Y-50292000D01*
X43387674Y-50296465D01*
X43387674Y-50296465D01*
G37*
G36*
X32143000Y-50177000D02*
G01*
X30341000Y-50177000D01*
X30341000Y-48375000D01*
X32143000Y-48375000D01*
X32143000Y-50177000D01*
X32143000Y-50177000D01*
G37*
G36*
X43387674Y-48536465D02*
G01*
X43425367Y-48547899D01*
X43460103Y-48566466D01*
X43490548Y-48591452D01*
X43515534Y-48621897D01*
X43534101Y-48656633D01*
X43545535Y-48694326D01*
X43550000Y-48739661D01*
X43550000Y-49576339D01*
X43545535Y-49621674D01*
X43534101Y-49659367D01*
X43515534Y-49694103D01*
X43490548Y-49724548D01*
X43460103Y-49749534D01*
X43425367Y-49768101D01*
X43387674Y-49779535D01*
X43342339Y-49784000D01*
X42255661Y-49784000D01*
X42210326Y-49779535D01*
X42172633Y-49768101D01*
X42137897Y-49749534D01*
X42107452Y-49724548D01*
X42082466Y-49694103D01*
X42063899Y-49659367D01*
X42052465Y-49621674D01*
X42048000Y-49576339D01*
X42048000Y-48739661D01*
X42052465Y-48694326D01*
X42063899Y-48656633D01*
X42082466Y-48621897D01*
X42107452Y-48591452D01*
X42137897Y-48566466D01*
X42172633Y-48547899D01*
X42210326Y-48536465D01*
X42255661Y-48532000D01*
X43342339Y-48532000D01*
X43387674Y-48536465D01*
X43387674Y-48536465D01*
G37*
G36*
X43387674Y-46486465D02*
G01*
X43425367Y-46497899D01*
X43460103Y-46516466D01*
X43490548Y-46541452D01*
X43515534Y-46571897D01*
X43534101Y-46606633D01*
X43545535Y-46644326D01*
X43550000Y-46689661D01*
X43550000Y-47526339D01*
X43545535Y-47571674D01*
X43534101Y-47609367D01*
X43515534Y-47644103D01*
X43490548Y-47674548D01*
X43460103Y-47699534D01*
X43425367Y-47718101D01*
X43387674Y-47729535D01*
X43342339Y-47734000D01*
X42255661Y-47734000D01*
X42210326Y-47729535D01*
X42172633Y-47718101D01*
X42137897Y-47699534D01*
X42107452Y-47674548D01*
X42082466Y-47644103D01*
X42063899Y-47609367D01*
X42052465Y-47571674D01*
X42048000Y-47526339D01*
X42048000Y-46689661D01*
X42052465Y-46644326D01*
X42063899Y-46606633D01*
X42082466Y-46571897D01*
X42107452Y-46541452D01*
X42137897Y-46516466D01*
X42172633Y-46497899D01*
X42210326Y-46486465D01*
X42255661Y-46482000D01*
X43342339Y-46482000D01*
X43387674Y-46486465D01*
X43387674Y-46486465D01*
G37*
G36*
X48253561Y-44548966D02*
G01*
X48286383Y-44558923D01*
X48316632Y-44575092D01*
X48343148Y-44596852D01*
X48364908Y-44623368D01*
X48381077Y-44653617D01*
X48391034Y-44686439D01*
X48395000Y-44726713D01*
X48395000Y-46205287D01*
X48391034Y-46245561D01*
X48381077Y-46278383D01*
X48364908Y-46308632D01*
X48343148Y-46335148D01*
X48316632Y-46356908D01*
X48286383Y-46373077D01*
X48253561Y-46383034D01*
X48213287Y-46387000D01*
X46274713Y-46387000D01*
X46234439Y-46383034D01*
X46201617Y-46373077D01*
X46171368Y-46356908D01*
X46144852Y-46335148D01*
X46123092Y-46308632D01*
X46106923Y-46278383D01*
X46096966Y-46245561D01*
X46093000Y-46205287D01*
X46093000Y-44726713D01*
X46096966Y-44686439D01*
X46106923Y-44653617D01*
X46123092Y-44623368D01*
X46144852Y-44596852D01*
X46171368Y-44575092D01*
X46201617Y-44558923D01*
X46234439Y-44548966D01*
X46274713Y-44545000D01*
X48213287Y-44545000D01*
X48253561Y-44548966D01*
X48253561Y-44548966D01*
G37*
G36*
X31108561Y-44421966D02*
G01*
X31141383Y-44431923D01*
X31171632Y-44448092D01*
X31198148Y-44469852D01*
X31219908Y-44496368D01*
X31236077Y-44526617D01*
X31246034Y-44559439D01*
X31250000Y-44599713D01*
X31250000Y-46078287D01*
X31246034Y-46118561D01*
X31236077Y-46151383D01*
X31219908Y-46181632D01*
X31198148Y-46208148D01*
X31171632Y-46229908D01*
X31141383Y-46246077D01*
X31108561Y-46256034D01*
X31068287Y-46260000D01*
X29129713Y-46260000D01*
X29089439Y-46256034D01*
X29056617Y-46246077D01*
X29026368Y-46229908D01*
X28999852Y-46208148D01*
X28978092Y-46181632D01*
X28961923Y-46151383D01*
X28951966Y-46118561D01*
X28948000Y-46078287D01*
X28948000Y-44599713D01*
X28951966Y-44559439D01*
X28961923Y-44526617D01*
X28978092Y-44496368D01*
X28999852Y-44469852D01*
X29026368Y-44448092D01*
X29056617Y-44431923D01*
X29089439Y-44421966D01*
X29129713Y-44418000D01*
X31068287Y-44418000D01*
X31108561Y-44421966D01*
X31108561Y-44421966D01*
G37*
G36*
X41200000Y-45943000D02*
G01*
X39318000Y-45943000D01*
X39318000Y-43841000D01*
X41200000Y-43841000D01*
X41200000Y-45943000D01*
X41200000Y-45943000D01*
G37*
G36*
X36120000Y-45943000D02*
G01*
X34238000Y-45943000D01*
X34238000Y-43841000D01*
X36120000Y-43841000D01*
X36120000Y-45943000D01*
X36120000Y-45943000D01*
G37*
G36*
X38660000Y-45943000D02*
G01*
X36778000Y-45943000D01*
X36778000Y-43841000D01*
X38660000Y-43841000D01*
X38660000Y-45943000D01*
X38660000Y-45943000D01*
G37*
G36*
X47564345Y-42009442D02*
G01*
X47654548Y-42018326D01*
X47828157Y-42070990D01*
X47988156Y-42156511D01*
X48031729Y-42192271D01*
X48128397Y-42271603D01*
X48207729Y-42368271D01*
X48243489Y-42411844D01*
X48329010Y-42571843D01*
X48381674Y-42745452D01*
X48399456Y-42926000D01*
X48381674Y-43106548D01*
X48329010Y-43280157D01*
X48243489Y-43440156D01*
X48232623Y-43453396D01*
X48128397Y-43580397D01*
X48038699Y-43654009D01*
X47988156Y-43695489D01*
X47828157Y-43781010D01*
X47654548Y-43833674D01*
X47580164Y-43841000D01*
X47519245Y-43847000D01*
X46968755Y-43847000D01*
X46907836Y-43841000D01*
X46833452Y-43833674D01*
X46659843Y-43781010D01*
X46499844Y-43695489D01*
X46449301Y-43654009D01*
X46359603Y-43580397D01*
X46255377Y-43453396D01*
X46244511Y-43440156D01*
X46158990Y-43280157D01*
X46106326Y-43106548D01*
X46088544Y-42926000D01*
X46106326Y-42745452D01*
X46158990Y-42571843D01*
X46244511Y-42411844D01*
X46280271Y-42368271D01*
X46359603Y-42271603D01*
X46456271Y-42192271D01*
X46499844Y-42156511D01*
X46659843Y-42070990D01*
X46833452Y-42018326D01*
X46923655Y-42009442D01*
X46968755Y-42005000D01*
X47519245Y-42005000D01*
X47564345Y-42009442D01*
X47564345Y-42009442D01*
G37*
G36*
X30419345Y-41882442D02*
G01*
X30509548Y-41891326D01*
X30683157Y-41943990D01*
X30843156Y-42029511D01*
X30886729Y-42065271D01*
X30983397Y-42144603D01*
X31062729Y-42241271D01*
X31098489Y-42284844D01*
X31184010Y-42444843D01*
X31236674Y-42618452D01*
X31254456Y-42799000D01*
X31236674Y-42979548D01*
X31184010Y-43153157D01*
X31098489Y-43313156D01*
X31062729Y-43356729D01*
X30983397Y-43453397D01*
X30886729Y-43532729D01*
X30843156Y-43568489D01*
X30683157Y-43654010D01*
X30509548Y-43706674D01*
X30419345Y-43715558D01*
X30374245Y-43720000D01*
X29823755Y-43720000D01*
X29778655Y-43715558D01*
X29688452Y-43706674D01*
X29514843Y-43654010D01*
X29354844Y-43568489D01*
X29311271Y-43532729D01*
X29214603Y-43453397D01*
X29135271Y-43356729D01*
X29099511Y-43313156D01*
X29013990Y-43153157D01*
X28961326Y-42979548D01*
X28943544Y-42799000D01*
X28961326Y-42618452D01*
X29013990Y-42444843D01*
X29099511Y-42284844D01*
X29135271Y-42241271D01*
X29214603Y-42144603D01*
X29311271Y-42065271D01*
X29354844Y-42029511D01*
X29514843Y-41943990D01*
X29688452Y-41891326D01*
X29778655Y-41882442D01*
X29823755Y-41878000D01*
X30374245Y-41878000D01*
X30419345Y-41882442D01*
X30419345Y-41882442D01*
G37*
M02*
