G04 #@! TF.GenerationSoftware,KiCad,Pcbnew,(5.1.0)-1*
G04 #@! TF.CreationDate,2019-06-17T22:32:11+07:00*
G04 #@! TF.ProjectId,RCswitch2,52437377-6974-4636-9832-2e6b69636164,rev?*
G04 #@! TF.SameCoordinates,Original*
G04 #@! TF.FileFunction,Copper,L2,Bot*
G04 #@! TF.FilePolarity,Positive*
%FSLAX46Y46*%
G04 Gerber Fmt 4.6, Leading zero omitted, Abs format (unit mm)*
G04 Created by KiCad (PCBNEW (5.1.0)-1) date 2019-06-17 22:32:11*
%MOMM*%
%LPD*%
G04 APERTURE LIST*
%ADD10R,1.780000X2.000000*%
%ADD11C,0.100000*%
%ADD12C,1.150000*%
%ADD13R,1.700000X1.700000*%
%ADD14O,1.700000X1.700000*%
%ADD15C,1.740000*%
%ADD16O,2.200000X1.740000*%
%ADD17C,0.800000*%
%ADD18C,0.250000*%
%ADD19C,1.000000*%
G04 APERTURE END LIST*
D10*
X40259000Y-44892000D03*
X35179000Y-54422000D03*
X37719000Y-44892000D03*
X37719000Y-54422000D03*
X35179000Y-44892000D03*
X40259000Y-54422000D03*
D11*
G36*
X43273505Y-50344204D02*
G01*
X43297773Y-50347804D01*
X43321572Y-50353765D01*
X43344671Y-50362030D01*
X43366850Y-50372520D01*
X43387893Y-50385132D01*
X43407599Y-50399747D01*
X43425777Y-50416223D01*
X43442253Y-50434401D01*
X43456868Y-50454107D01*
X43469480Y-50475150D01*
X43479970Y-50497329D01*
X43488235Y-50520428D01*
X43494196Y-50544227D01*
X43497796Y-50568495D01*
X43499000Y-50592999D01*
X43499000Y-51243001D01*
X43497796Y-51267505D01*
X43494196Y-51291773D01*
X43488235Y-51315572D01*
X43479970Y-51338671D01*
X43469480Y-51360850D01*
X43456868Y-51381893D01*
X43442253Y-51401599D01*
X43425777Y-51419777D01*
X43407599Y-51436253D01*
X43387893Y-51450868D01*
X43366850Y-51463480D01*
X43344671Y-51473970D01*
X43321572Y-51482235D01*
X43297773Y-51488196D01*
X43273505Y-51491796D01*
X43249001Y-51493000D01*
X42348999Y-51493000D01*
X42324495Y-51491796D01*
X42300227Y-51488196D01*
X42276428Y-51482235D01*
X42253329Y-51473970D01*
X42231150Y-51463480D01*
X42210107Y-51450868D01*
X42190401Y-51436253D01*
X42172223Y-51419777D01*
X42155747Y-51401599D01*
X42141132Y-51381893D01*
X42128520Y-51360850D01*
X42118030Y-51338671D01*
X42109765Y-51315572D01*
X42103804Y-51291773D01*
X42100204Y-51267505D01*
X42099000Y-51243001D01*
X42099000Y-50592999D01*
X42100204Y-50568495D01*
X42103804Y-50544227D01*
X42109765Y-50520428D01*
X42118030Y-50497329D01*
X42128520Y-50475150D01*
X42141132Y-50454107D01*
X42155747Y-50434401D01*
X42172223Y-50416223D01*
X42190401Y-50399747D01*
X42210107Y-50385132D01*
X42231150Y-50372520D01*
X42253329Y-50362030D01*
X42276428Y-50353765D01*
X42300227Y-50347804D01*
X42324495Y-50344204D01*
X42348999Y-50343000D01*
X43249001Y-50343000D01*
X43273505Y-50344204D01*
X43273505Y-50344204D01*
G37*
D12*
X42799000Y-50918000D03*
D11*
G36*
X43273505Y-52394204D02*
G01*
X43297773Y-52397804D01*
X43321572Y-52403765D01*
X43344671Y-52412030D01*
X43366850Y-52422520D01*
X43387893Y-52435132D01*
X43407599Y-52449747D01*
X43425777Y-52466223D01*
X43442253Y-52484401D01*
X43456868Y-52504107D01*
X43469480Y-52525150D01*
X43479970Y-52547329D01*
X43488235Y-52570428D01*
X43494196Y-52594227D01*
X43497796Y-52618495D01*
X43499000Y-52642999D01*
X43499000Y-53293001D01*
X43497796Y-53317505D01*
X43494196Y-53341773D01*
X43488235Y-53365572D01*
X43479970Y-53388671D01*
X43469480Y-53410850D01*
X43456868Y-53431893D01*
X43442253Y-53451599D01*
X43425777Y-53469777D01*
X43407599Y-53486253D01*
X43387893Y-53500868D01*
X43366850Y-53513480D01*
X43344671Y-53523970D01*
X43321572Y-53532235D01*
X43297773Y-53538196D01*
X43273505Y-53541796D01*
X43249001Y-53543000D01*
X42348999Y-53543000D01*
X42324495Y-53541796D01*
X42300227Y-53538196D01*
X42276428Y-53532235D01*
X42253329Y-53523970D01*
X42231150Y-53513480D01*
X42210107Y-53500868D01*
X42190401Y-53486253D01*
X42172223Y-53469777D01*
X42155747Y-53451599D01*
X42141132Y-53431893D01*
X42128520Y-53410850D01*
X42118030Y-53388671D01*
X42109765Y-53365572D01*
X42103804Y-53341773D01*
X42100204Y-53317505D01*
X42099000Y-53293001D01*
X42099000Y-52642999D01*
X42100204Y-52618495D01*
X42103804Y-52594227D01*
X42109765Y-52570428D01*
X42118030Y-52547329D01*
X42128520Y-52525150D01*
X42141132Y-52504107D01*
X42155747Y-52484401D01*
X42172223Y-52466223D01*
X42190401Y-52449747D01*
X42210107Y-52435132D01*
X42231150Y-52422520D01*
X42253329Y-52412030D01*
X42276428Y-52403765D01*
X42300227Y-52397804D01*
X42324495Y-52394204D01*
X42348999Y-52393000D01*
X43249001Y-52393000D01*
X43273505Y-52394204D01*
X43273505Y-52394204D01*
G37*
D12*
X42799000Y-52968000D03*
D11*
G36*
X43273505Y-48584204D02*
G01*
X43297773Y-48587804D01*
X43321572Y-48593765D01*
X43344671Y-48602030D01*
X43366850Y-48612520D01*
X43387893Y-48625132D01*
X43407599Y-48639747D01*
X43425777Y-48656223D01*
X43442253Y-48674401D01*
X43456868Y-48694107D01*
X43469480Y-48715150D01*
X43479970Y-48737329D01*
X43488235Y-48760428D01*
X43494196Y-48784227D01*
X43497796Y-48808495D01*
X43499000Y-48832999D01*
X43499000Y-49483001D01*
X43497796Y-49507505D01*
X43494196Y-49531773D01*
X43488235Y-49555572D01*
X43479970Y-49578671D01*
X43469480Y-49600850D01*
X43456868Y-49621893D01*
X43442253Y-49641599D01*
X43425777Y-49659777D01*
X43407599Y-49676253D01*
X43387893Y-49690868D01*
X43366850Y-49703480D01*
X43344671Y-49713970D01*
X43321572Y-49722235D01*
X43297773Y-49728196D01*
X43273505Y-49731796D01*
X43249001Y-49733000D01*
X42348999Y-49733000D01*
X42324495Y-49731796D01*
X42300227Y-49728196D01*
X42276428Y-49722235D01*
X42253329Y-49713970D01*
X42231150Y-49703480D01*
X42210107Y-49690868D01*
X42190401Y-49676253D01*
X42172223Y-49659777D01*
X42155747Y-49641599D01*
X42141132Y-49621893D01*
X42128520Y-49600850D01*
X42118030Y-49578671D01*
X42109765Y-49555572D01*
X42103804Y-49531773D01*
X42100204Y-49507505D01*
X42099000Y-49483001D01*
X42099000Y-48832999D01*
X42100204Y-48808495D01*
X42103804Y-48784227D01*
X42109765Y-48760428D01*
X42118030Y-48737329D01*
X42128520Y-48715150D01*
X42141132Y-48694107D01*
X42155747Y-48674401D01*
X42172223Y-48656223D01*
X42190401Y-48639747D01*
X42210107Y-48625132D01*
X42231150Y-48612520D01*
X42253329Y-48602030D01*
X42276428Y-48593765D01*
X42300227Y-48587804D01*
X42324495Y-48584204D01*
X42348999Y-48583000D01*
X43249001Y-48583000D01*
X43273505Y-48584204D01*
X43273505Y-48584204D01*
G37*
D12*
X42799000Y-49158000D03*
D11*
G36*
X43273505Y-46534204D02*
G01*
X43297773Y-46537804D01*
X43321572Y-46543765D01*
X43344671Y-46552030D01*
X43366850Y-46562520D01*
X43387893Y-46575132D01*
X43407599Y-46589747D01*
X43425777Y-46606223D01*
X43442253Y-46624401D01*
X43456868Y-46644107D01*
X43469480Y-46665150D01*
X43479970Y-46687329D01*
X43488235Y-46710428D01*
X43494196Y-46734227D01*
X43497796Y-46758495D01*
X43499000Y-46782999D01*
X43499000Y-47433001D01*
X43497796Y-47457505D01*
X43494196Y-47481773D01*
X43488235Y-47505572D01*
X43479970Y-47528671D01*
X43469480Y-47550850D01*
X43456868Y-47571893D01*
X43442253Y-47591599D01*
X43425777Y-47609777D01*
X43407599Y-47626253D01*
X43387893Y-47640868D01*
X43366850Y-47653480D01*
X43344671Y-47663970D01*
X43321572Y-47672235D01*
X43297773Y-47678196D01*
X43273505Y-47681796D01*
X43249001Y-47683000D01*
X42348999Y-47683000D01*
X42324495Y-47681796D01*
X42300227Y-47678196D01*
X42276428Y-47672235D01*
X42253329Y-47663970D01*
X42231150Y-47653480D01*
X42210107Y-47640868D01*
X42190401Y-47626253D01*
X42172223Y-47609777D01*
X42155747Y-47591599D01*
X42141132Y-47571893D01*
X42128520Y-47550850D01*
X42118030Y-47528671D01*
X42109765Y-47505572D01*
X42103804Y-47481773D01*
X42100204Y-47457505D01*
X42099000Y-47433001D01*
X42099000Y-46782999D01*
X42100204Y-46758495D01*
X42103804Y-46734227D01*
X42109765Y-46710428D01*
X42118030Y-46687329D01*
X42128520Y-46665150D01*
X42141132Y-46644107D01*
X42155747Y-46624401D01*
X42172223Y-46606223D01*
X42190401Y-46589747D01*
X42210107Y-46575132D01*
X42231150Y-46562520D01*
X42253329Y-46552030D01*
X42276428Y-46543765D01*
X42300227Y-46537804D01*
X42324495Y-46534204D01*
X42348999Y-46533000D01*
X43249001Y-46533000D01*
X43273505Y-46534204D01*
X43273505Y-46534204D01*
G37*
D12*
X42799000Y-47108000D03*
D13*
X31242000Y-49276000D03*
D14*
X31242000Y-51816000D03*
X31242000Y-54356000D03*
D11*
G36*
X30973505Y-44470204D02*
G01*
X30997773Y-44473804D01*
X31021572Y-44479765D01*
X31044671Y-44488030D01*
X31066850Y-44498520D01*
X31087893Y-44511132D01*
X31107599Y-44525747D01*
X31125777Y-44542223D01*
X31142253Y-44560401D01*
X31156868Y-44580107D01*
X31169480Y-44601150D01*
X31179970Y-44623329D01*
X31188235Y-44646428D01*
X31194196Y-44670227D01*
X31197796Y-44694495D01*
X31199000Y-44718999D01*
X31199000Y-45959001D01*
X31197796Y-45983505D01*
X31194196Y-46007773D01*
X31188235Y-46031572D01*
X31179970Y-46054671D01*
X31169480Y-46076850D01*
X31156868Y-46097893D01*
X31142253Y-46117599D01*
X31125777Y-46135777D01*
X31107599Y-46152253D01*
X31087893Y-46166868D01*
X31066850Y-46179480D01*
X31044671Y-46189970D01*
X31021572Y-46198235D01*
X30997773Y-46204196D01*
X30973505Y-46207796D01*
X30949001Y-46209000D01*
X29248999Y-46209000D01*
X29224495Y-46207796D01*
X29200227Y-46204196D01*
X29176428Y-46198235D01*
X29153329Y-46189970D01*
X29131150Y-46179480D01*
X29110107Y-46166868D01*
X29090401Y-46152253D01*
X29072223Y-46135777D01*
X29055747Y-46117599D01*
X29041132Y-46097893D01*
X29028520Y-46076850D01*
X29018030Y-46054671D01*
X29009765Y-46031572D01*
X29003804Y-46007773D01*
X29000204Y-45983505D01*
X28999000Y-45959001D01*
X28999000Y-44718999D01*
X29000204Y-44694495D01*
X29003804Y-44670227D01*
X29009765Y-44646428D01*
X29018030Y-44623329D01*
X29028520Y-44601150D01*
X29041132Y-44580107D01*
X29055747Y-44560401D01*
X29072223Y-44542223D01*
X29090401Y-44525747D01*
X29110107Y-44511132D01*
X29131150Y-44498520D01*
X29153329Y-44488030D01*
X29176428Y-44479765D01*
X29200227Y-44473804D01*
X29224495Y-44470204D01*
X29248999Y-44469000D01*
X30949001Y-44469000D01*
X30973505Y-44470204D01*
X30973505Y-44470204D01*
G37*
D15*
X30099000Y-45339000D03*
D16*
X30099000Y-42799000D03*
D11*
G36*
X48118505Y-53487204D02*
G01*
X48142773Y-53490804D01*
X48166572Y-53496765D01*
X48189671Y-53505030D01*
X48211850Y-53515520D01*
X48232893Y-53528132D01*
X48252599Y-53542747D01*
X48270777Y-53559223D01*
X48287253Y-53577401D01*
X48301868Y-53597107D01*
X48314480Y-53618150D01*
X48324970Y-53640329D01*
X48333235Y-53663428D01*
X48339196Y-53687227D01*
X48342796Y-53711495D01*
X48344000Y-53735999D01*
X48344000Y-54976001D01*
X48342796Y-55000505D01*
X48339196Y-55024773D01*
X48333235Y-55048572D01*
X48324970Y-55071671D01*
X48314480Y-55093850D01*
X48301868Y-55114893D01*
X48287253Y-55134599D01*
X48270777Y-55152777D01*
X48252599Y-55169253D01*
X48232893Y-55183868D01*
X48211850Y-55196480D01*
X48189671Y-55206970D01*
X48166572Y-55215235D01*
X48142773Y-55221196D01*
X48118505Y-55224796D01*
X48094001Y-55226000D01*
X46393999Y-55226000D01*
X46369495Y-55224796D01*
X46345227Y-55221196D01*
X46321428Y-55215235D01*
X46298329Y-55206970D01*
X46276150Y-55196480D01*
X46255107Y-55183868D01*
X46235401Y-55169253D01*
X46217223Y-55152777D01*
X46200747Y-55134599D01*
X46186132Y-55114893D01*
X46173520Y-55093850D01*
X46163030Y-55071671D01*
X46154765Y-55048572D01*
X46148804Y-55024773D01*
X46145204Y-55000505D01*
X46144000Y-54976001D01*
X46144000Y-53735999D01*
X46145204Y-53711495D01*
X46148804Y-53687227D01*
X46154765Y-53663428D01*
X46163030Y-53640329D01*
X46173520Y-53618150D01*
X46186132Y-53597107D01*
X46200747Y-53577401D01*
X46217223Y-53559223D01*
X46235401Y-53542747D01*
X46255107Y-53528132D01*
X46276150Y-53515520D01*
X46298329Y-53505030D01*
X46321428Y-53496765D01*
X46345227Y-53490804D01*
X46369495Y-53487204D01*
X46393999Y-53486000D01*
X48094001Y-53486000D01*
X48118505Y-53487204D01*
X48118505Y-53487204D01*
G37*
D15*
X47244000Y-54356000D03*
D16*
X47244000Y-51816000D03*
D11*
G36*
X48118505Y-44597204D02*
G01*
X48142773Y-44600804D01*
X48166572Y-44606765D01*
X48189671Y-44615030D01*
X48211850Y-44625520D01*
X48232893Y-44638132D01*
X48252599Y-44652747D01*
X48270777Y-44669223D01*
X48287253Y-44687401D01*
X48301868Y-44707107D01*
X48314480Y-44728150D01*
X48324970Y-44750329D01*
X48333235Y-44773428D01*
X48339196Y-44797227D01*
X48342796Y-44821495D01*
X48344000Y-44845999D01*
X48344000Y-46086001D01*
X48342796Y-46110505D01*
X48339196Y-46134773D01*
X48333235Y-46158572D01*
X48324970Y-46181671D01*
X48314480Y-46203850D01*
X48301868Y-46224893D01*
X48287253Y-46244599D01*
X48270777Y-46262777D01*
X48252599Y-46279253D01*
X48232893Y-46293868D01*
X48211850Y-46306480D01*
X48189671Y-46316970D01*
X48166572Y-46325235D01*
X48142773Y-46331196D01*
X48118505Y-46334796D01*
X48094001Y-46336000D01*
X46393999Y-46336000D01*
X46369495Y-46334796D01*
X46345227Y-46331196D01*
X46321428Y-46325235D01*
X46298329Y-46316970D01*
X46276150Y-46306480D01*
X46255107Y-46293868D01*
X46235401Y-46279253D01*
X46217223Y-46262777D01*
X46200747Y-46244599D01*
X46186132Y-46224893D01*
X46173520Y-46203850D01*
X46163030Y-46181671D01*
X46154765Y-46158572D01*
X46148804Y-46134773D01*
X46145204Y-46110505D01*
X46144000Y-46086001D01*
X46144000Y-44845999D01*
X46145204Y-44821495D01*
X46148804Y-44797227D01*
X46154765Y-44773428D01*
X46163030Y-44750329D01*
X46173520Y-44728150D01*
X46186132Y-44707107D01*
X46200747Y-44687401D01*
X46217223Y-44669223D01*
X46235401Y-44652747D01*
X46255107Y-44638132D01*
X46276150Y-44625520D01*
X46298329Y-44615030D01*
X46321428Y-44606765D01*
X46345227Y-44600804D01*
X46369495Y-44597204D01*
X46393999Y-44596000D01*
X48094001Y-44596000D01*
X48118505Y-44597204D01*
X48118505Y-44597204D01*
G37*
D15*
X47244000Y-45466000D03*
D16*
X47244000Y-42926000D03*
D17*
X33528000Y-48133000D03*
X37973000Y-48133000D03*
X40259000Y-53086000D03*
D18*
X33528000Y-52070000D02*
X31242000Y-54356000D01*
X33528000Y-48133000D02*
X33528000Y-52070000D01*
X42799000Y-49158000D02*
X42799000Y-50918000D01*
X34553000Y-49158000D02*
X33528000Y-48133000D01*
X42799000Y-49158000D02*
X34553000Y-49158000D01*
X38538685Y-48133000D02*
X37973000Y-48133000D01*
X40974000Y-48133000D02*
X38538685Y-48133000D01*
X41999000Y-47108000D02*
X40974000Y-48133000D01*
X42799000Y-47108000D02*
X41999000Y-47108000D01*
X37719000Y-54312000D02*
X37719000Y-54422000D01*
X40607001Y-52360999D02*
X38317001Y-52360999D01*
X42799000Y-52968000D02*
X41214002Y-52968000D01*
X41214002Y-52968000D02*
X40607001Y-52360999D01*
X37719000Y-52959000D02*
X37719000Y-54422000D01*
X38317001Y-52360999D02*
X37719000Y-52959000D01*
X40259000Y-53086000D02*
X40259000Y-54422000D01*
D19*
X38311939Y-41991989D02*
X45674989Y-41991989D01*
X30099000Y-42799000D02*
X37504928Y-42799000D01*
X37504928Y-42799000D02*
X38311939Y-41991989D01*
X46609000Y-42926000D02*
X47244000Y-42926000D01*
X45674989Y-41991989D02*
X46609000Y-42926000D01*
X47244000Y-49946000D02*
X47244000Y-51816000D01*
X49044010Y-48145990D02*
X47244000Y-49946000D01*
X49044010Y-44452490D02*
X49044010Y-48145990D01*
X47517520Y-42926000D02*
X49044010Y-44452490D01*
X47244000Y-42926000D02*
X47517520Y-42926000D01*
X34732000Y-45339000D02*
X35179000Y-44892000D01*
X30099000Y-45339000D02*
X34732000Y-45339000D01*
X40259000Y-45502002D02*
X40259000Y-44892000D01*
X39169001Y-46592001D02*
X40259000Y-45502002D01*
X36268999Y-46592001D02*
X39169001Y-46592001D01*
X35179000Y-45502002D02*
X36268999Y-46592001D01*
X35179000Y-44892000D02*
X35179000Y-45502002D01*
X46304227Y-44526227D02*
X47244000Y-45466000D01*
X44969999Y-43191999D02*
X46304227Y-44526227D01*
X38808999Y-43191999D02*
X44969999Y-43191999D01*
X37719000Y-44281998D02*
X38808999Y-43191999D01*
X37719000Y-44892000D02*
X37719000Y-44281998D01*
X46304227Y-53416227D02*
X47244000Y-54356000D01*
X45443990Y-52555990D02*
X46304227Y-53416227D01*
X45443990Y-47266010D02*
X45443990Y-52555990D01*
X47244000Y-45466000D02*
X45443990Y-47266010D01*
M02*
