G04 #@! TF.GenerationSoftware,KiCad,Pcbnew,(5.1.0)-1*
G04 #@! TF.CreationDate,2019-06-17T22:32:11+07:00*
G04 #@! TF.ProjectId,RCswitch2,52437377-6974-4636-9832-2e6b69636164,rev?*
G04 #@! TF.SameCoordinates,Original*
G04 #@! TF.FileFunction,Copper,L1,Top*
G04 #@! TF.FilePolarity,Positive*
%FSLAX46Y46*%
G04 Gerber Fmt 4.6, Leading zero omitted, Abs format (unit mm)*
G04 Created by KiCad (PCBNEW (5.1.0)-1) date 2019-06-17 22:32:11*
%MOMM*%
%LPD*%
G04 APERTURE LIST*
%ADD10R,0.600000X1.500000*%
%ADD11R,1.300000X1.300000*%
%ADD12R,1.300000X2.000000*%
%ADD13C,0.100000*%
%ADD14C,0.950000*%
%ADD15R,1.700000X1.700000*%
%ADD16O,1.700000X1.700000*%
%ADD17C,1.740000*%
%ADD18O,2.200000X1.740000*%
%ADD19C,0.800000*%
%ADD20C,0.250000*%
G04 APERTURE END LIST*
D10*
X41783000Y-55151000D03*
X40513000Y-55151000D03*
X39243000Y-55151000D03*
X37973000Y-55151000D03*
X36703000Y-55151000D03*
X35433000Y-55151000D03*
X34163000Y-55151000D03*
X34163000Y-49751000D03*
X35433000Y-49751000D03*
X36703000Y-49751000D03*
X37973000Y-49751000D03*
X39243000Y-49751000D03*
X40513000Y-49751000D03*
X41783000Y-49751000D03*
D11*
X35096000Y-46997000D03*
D12*
X40596000Y-45847000D03*
D11*
X35096000Y-44697000D03*
D13*
G36*
X43059779Y-47341144D02*
G01*
X43082834Y-47344563D01*
X43105443Y-47350227D01*
X43127387Y-47358079D01*
X43148457Y-47368044D01*
X43168448Y-47380026D01*
X43187168Y-47393910D01*
X43204438Y-47409562D01*
X43220090Y-47426832D01*
X43233974Y-47445552D01*
X43245956Y-47465543D01*
X43255921Y-47486613D01*
X43263773Y-47508557D01*
X43269437Y-47531166D01*
X43272856Y-47554221D01*
X43274000Y-47577500D01*
X43274000Y-48152500D01*
X43272856Y-48175779D01*
X43269437Y-48198834D01*
X43263773Y-48221443D01*
X43255921Y-48243387D01*
X43245956Y-48264457D01*
X43233974Y-48284448D01*
X43220090Y-48303168D01*
X43204438Y-48320438D01*
X43187168Y-48336090D01*
X43168448Y-48349974D01*
X43148457Y-48361956D01*
X43127387Y-48371921D01*
X43105443Y-48379773D01*
X43082834Y-48385437D01*
X43059779Y-48388856D01*
X43036500Y-48390000D01*
X42561500Y-48390000D01*
X42538221Y-48388856D01*
X42515166Y-48385437D01*
X42492557Y-48379773D01*
X42470613Y-48371921D01*
X42449543Y-48361956D01*
X42429552Y-48349974D01*
X42410832Y-48336090D01*
X42393562Y-48320438D01*
X42377910Y-48303168D01*
X42364026Y-48284448D01*
X42352044Y-48264457D01*
X42342079Y-48243387D01*
X42334227Y-48221443D01*
X42328563Y-48198834D01*
X42325144Y-48175779D01*
X42324000Y-48152500D01*
X42324000Y-47577500D01*
X42325144Y-47554221D01*
X42328563Y-47531166D01*
X42334227Y-47508557D01*
X42342079Y-47486613D01*
X42352044Y-47465543D01*
X42364026Y-47445552D01*
X42377910Y-47426832D01*
X42393562Y-47409562D01*
X42410832Y-47393910D01*
X42429552Y-47380026D01*
X42449543Y-47368044D01*
X42470613Y-47358079D01*
X42492557Y-47350227D01*
X42515166Y-47344563D01*
X42538221Y-47341144D01*
X42561500Y-47340000D01*
X43036500Y-47340000D01*
X43059779Y-47341144D01*
X43059779Y-47341144D01*
G37*
D14*
X42799000Y-47865000D03*
D13*
G36*
X43059779Y-45591144D02*
G01*
X43082834Y-45594563D01*
X43105443Y-45600227D01*
X43127387Y-45608079D01*
X43148457Y-45618044D01*
X43168448Y-45630026D01*
X43187168Y-45643910D01*
X43204438Y-45659562D01*
X43220090Y-45676832D01*
X43233974Y-45695552D01*
X43245956Y-45715543D01*
X43255921Y-45736613D01*
X43263773Y-45758557D01*
X43269437Y-45781166D01*
X43272856Y-45804221D01*
X43274000Y-45827500D01*
X43274000Y-46402500D01*
X43272856Y-46425779D01*
X43269437Y-46448834D01*
X43263773Y-46471443D01*
X43255921Y-46493387D01*
X43245956Y-46514457D01*
X43233974Y-46534448D01*
X43220090Y-46553168D01*
X43204438Y-46570438D01*
X43187168Y-46586090D01*
X43168448Y-46599974D01*
X43148457Y-46611956D01*
X43127387Y-46621921D01*
X43105443Y-46629773D01*
X43082834Y-46635437D01*
X43059779Y-46638856D01*
X43036500Y-46640000D01*
X42561500Y-46640000D01*
X42538221Y-46638856D01*
X42515166Y-46635437D01*
X42492557Y-46629773D01*
X42470613Y-46621921D01*
X42449543Y-46611956D01*
X42429552Y-46599974D01*
X42410832Y-46586090D01*
X42393562Y-46570438D01*
X42377910Y-46553168D01*
X42364026Y-46534448D01*
X42352044Y-46514457D01*
X42342079Y-46493387D01*
X42334227Y-46471443D01*
X42328563Y-46448834D01*
X42325144Y-46425779D01*
X42324000Y-46402500D01*
X42324000Y-45827500D01*
X42325144Y-45804221D01*
X42328563Y-45781166D01*
X42334227Y-45758557D01*
X42342079Y-45736613D01*
X42352044Y-45715543D01*
X42364026Y-45695552D01*
X42377910Y-45676832D01*
X42393562Y-45659562D01*
X42410832Y-45643910D01*
X42429552Y-45630026D01*
X42449543Y-45618044D01*
X42470613Y-45608079D01*
X42492557Y-45600227D01*
X42515166Y-45594563D01*
X42538221Y-45591144D01*
X42561500Y-45590000D01*
X43036500Y-45590000D01*
X43059779Y-45591144D01*
X43059779Y-45591144D01*
G37*
D14*
X42799000Y-46115000D03*
D15*
X31242000Y-49276000D03*
D16*
X31242000Y-51816000D03*
X31242000Y-54356000D03*
D13*
G36*
X30973505Y-44470204D02*
G01*
X30997773Y-44473804D01*
X31021572Y-44479765D01*
X31044671Y-44488030D01*
X31066850Y-44498520D01*
X31087893Y-44511132D01*
X31107599Y-44525747D01*
X31125777Y-44542223D01*
X31142253Y-44560401D01*
X31156868Y-44580107D01*
X31169480Y-44601150D01*
X31179970Y-44623329D01*
X31188235Y-44646428D01*
X31194196Y-44670227D01*
X31197796Y-44694495D01*
X31199000Y-44718999D01*
X31199000Y-45959001D01*
X31197796Y-45983505D01*
X31194196Y-46007773D01*
X31188235Y-46031572D01*
X31179970Y-46054671D01*
X31169480Y-46076850D01*
X31156868Y-46097893D01*
X31142253Y-46117599D01*
X31125777Y-46135777D01*
X31107599Y-46152253D01*
X31087893Y-46166868D01*
X31066850Y-46179480D01*
X31044671Y-46189970D01*
X31021572Y-46198235D01*
X30997773Y-46204196D01*
X30973505Y-46207796D01*
X30949001Y-46209000D01*
X29248999Y-46209000D01*
X29224495Y-46207796D01*
X29200227Y-46204196D01*
X29176428Y-46198235D01*
X29153329Y-46189970D01*
X29131150Y-46179480D01*
X29110107Y-46166868D01*
X29090401Y-46152253D01*
X29072223Y-46135777D01*
X29055747Y-46117599D01*
X29041132Y-46097893D01*
X29028520Y-46076850D01*
X29018030Y-46054671D01*
X29009765Y-46031572D01*
X29003804Y-46007773D01*
X29000204Y-45983505D01*
X28999000Y-45959001D01*
X28999000Y-44718999D01*
X29000204Y-44694495D01*
X29003804Y-44670227D01*
X29009765Y-44646428D01*
X29018030Y-44623329D01*
X29028520Y-44601150D01*
X29041132Y-44580107D01*
X29055747Y-44560401D01*
X29072223Y-44542223D01*
X29090401Y-44525747D01*
X29110107Y-44511132D01*
X29131150Y-44498520D01*
X29153329Y-44488030D01*
X29176428Y-44479765D01*
X29200227Y-44473804D01*
X29224495Y-44470204D01*
X29248999Y-44469000D01*
X30949001Y-44469000D01*
X30973505Y-44470204D01*
X30973505Y-44470204D01*
G37*
D17*
X30099000Y-45339000D03*
D18*
X30099000Y-42799000D03*
D13*
G36*
X48118505Y-53487204D02*
G01*
X48142773Y-53490804D01*
X48166572Y-53496765D01*
X48189671Y-53505030D01*
X48211850Y-53515520D01*
X48232893Y-53528132D01*
X48252599Y-53542747D01*
X48270777Y-53559223D01*
X48287253Y-53577401D01*
X48301868Y-53597107D01*
X48314480Y-53618150D01*
X48324970Y-53640329D01*
X48333235Y-53663428D01*
X48339196Y-53687227D01*
X48342796Y-53711495D01*
X48344000Y-53735999D01*
X48344000Y-54976001D01*
X48342796Y-55000505D01*
X48339196Y-55024773D01*
X48333235Y-55048572D01*
X48324970Y-55071671D01*
X48314480Y-55093850D01*
X48301868Y-55114893D01*
X48287253Y-55134599D01*
X48270777Y-55152777D01*
X48252599Y-55169253D01*
X48232893Y-55183868D01*
X48211850Y-55196480D01*
X48189671Y-55206970D01*
X48166572Y-55215235D01*
X48142773Y-55221196D01*
X48118505Y-55224796D01*
X48094001Y-55226000D01*
X46393999Y-55226000D01*
X46369495Y-55224796D01*
X46345227Y-55221196D01*
X46321428Y-55215235D01*
X46298329Y-55206970D01*
X46276150Y-55196480D01*
X46255107Y-55183868D01*
X46235401Y-55169253D01*
X46217223Y-55152777D01*
X46200747Y-55134599D01*
X46186132Y-55114893D01*
X46173520Y-55093850D01*
X46163030Y-55071671D01*
X46154765Y-55048572D01*
X46148804Y-55024773D01*
X46145204Y-55000505D01*
X46144000Y-54976001D01*
X46144000Y-53735999D01*
X46145204Y-53711495D01*
X46148804Y-53687227D01*
X46154765Y-53663428D01*
X46163030Y-53640329D01*
X46173520Y-53618150D01*
X46186132Y-53597107D01*
X46200747Y-53577401D01*
X46217223Y-53559223D01*
X46235401Y-53542747D01*
X46255107Y-53528132D01*
X46276150Y-53515520D01*
X46298329Y-53505030D01*
X46321428Y-53496765D01*
X46345227Y-53490804D01*
X46369495Y-53487204D01*
X46393999Y-53486000D01*
X48094001Y-53486000D01*
X48118505Y-53487204D01*
X48118505Y-53487204D01*
G37*
D17*
X47244000Y-54356000D03*
D18*
X47244000Y-51816000D03*
D13*
G36*
X48118505Y-44597204D02*
G01*
X48142773Y-44600804D01*
X48166572Y-44606765D01*
X48189671Y-44615030D01*
X48211850Y-44625520D01*
X48232893Y-44638132D01*
X48252599Y-44652747D01*
X48270777Y-44669223D01*
X48287253Y-44687401D01*
X48301868Y-44707107D01*
X48314480Y-44728150D01*
X48324970Y-44750329D01*
X48333235Y-44773428D01*
X48339196Y-44797227D01*
X48342796Y-44821495D01*
X48344000Y-44845999D01*
X48344000Y-46086001D01*
X48342796Y-46110505D01*
X48339196Y-46134773D01*
X48333235Y-46158572D01*
X48324970Y-46181671D01*
X48314480Y-46203850D01*
X48301868Y-46224893D01*
X48287253Y-46244599D01*
X48270777Y-46262777D01*
X48252599Y-46279253D01*
X48232893Y-46293868D01*
X48211850Y-46306480D01*
X48189671Y-46316970D01*
X48166572Y-46325235D01*
X48142773Y-46331196D01*
X48118505Y-46334796D01*
X48094001Y-46336000D01*
X46393999Y-46336000D01*
X46369495Y-46334796D01*
X46345227Y-46331196D01*
X46321428Y-46325235D01*
X46298329Y-46316970D01*
X46276150Y-46306480D01*
X46255107Y-46293868D01*
X46235401Y-46279253D01*
X46217223Y-46262777D01*
X46200747Y-46244599D01*
X46186132Y-46224893D01*
X46173520Y-46203850D01*
X46163030Y-46181671D01*
X46154765Y-46158572D01*
X46148804Y-46134773D01*
X46145204Y-46110505D01*
X46144000Y-46086001D01*
X46144000Y-44845999D01*
X46145204Y-44821495D01*
X46148804Y-44797227D01*
X46154765Y-44773428D01*
X46163030Y-44750329D01*
X46173520Y-44728150D01*
X46186132Y-44707107D01*
X46200747Y-44687401D01*
X46217223Y-44669223D01*
X46235401Y-44652747D01*
X46255107Y-44638132D01*
X46276150Y-44625520D01*
X46298329Y-44615030D01*
X46321428Y-44606765D01*
X46345227Y-44600804D01*
X46369495Y-44597204D01*
X46393999Y-44596000D01*
X48094001Y-44596000D01*
X48118505Y-44597204D01*
X48118505Y-44597204D01*
G37*
D17*
X47244000Y-45466000D03*
D18*
X47244000Y-42926000D03*
D19*
X33528000Y-48133000D03*
X37973000Y-48133000D03*
X40259000Y-53086000D03*
D20*
X35433000Y-49751000D02*
X34163000Y-49751000D01*
X34163000Y-49751000D02*
X34163000Y-48768000D01*
X34163000Y-48768000D02*
X33528000Y-48133000D01*
X32037000Y-55151000D02*
X31242000Y-54356000D01*
X34163000Y-55151000D02*
X32037000Y-55151000D01*
X36703000Y-55601000D02*
X36703000Y-55151000D01*
X36077999Y-56226001D02*
X36703000Y-55601000D01*
X34788001Y-56226001D02*
X36077999Y-56226001D01*
X34163000Y-55601000D02*
X34788001Y-56226001D01*
X34163000Y-55151000D02*
X34163000Y-55601000D01*
X37973000Y-48133000D02*
X37973000Y-49751000D01*
X36837000Y-46997000D02*
X37973000Y-48133000D01*
X35096000Y-46997000D02*
X36837000Y-46997000D01*
X36077999Y-50826001D02*
X36703000Y-50201000D01*
X32231999Y-50826001D02*
X36077999Y-50826001D01*
X31242000Y-51816000D02*
X32231999Y-50826001D01*
X41783000Y-54701000D02*
X41783000Y-55151000D01*
X36703000Y-50201000D02*
X36703000Y-49751000D01*
X37328001Y-50826001D02*
X36703000Y-50201000D01*
X39072003Y-50826001D02*
X37328001Y-50826001D01*
X41783000Y-53536998D02*
X39072003Y-50826001D01*
X41783000Y-55151000D02*
X41783000Y-53536998D01*
X39243000Y-48751000D02*
X39243000Y-49751000D01*
X39243000Y-47694998D02*
X39243000Y-48751000D01*
X37570001Y-46021999D02*
X39243000Y-47694998D01*
X33396001Y-46021999D02*
X37570001Y-46021999D01*
X31242000Y-48176000D02*
X33396001Y-46021999D01*
X31242000Y-49276000D02*
X31242000Y-48176000D01*
X33912999Y-53180999D02*
X35433000Y-54701000D01*
X30867997Y-53180999D02*
X33912999Y-53180999D01*
X30066999Y-52380001D02*
X30867997Y-53180999D01*
X30066999Y-49351001D02*
X30066999Y-52380001D01*
X30142000Y-49276000D02*
X30066999Y-49351001D01*
X35433000Y-54701000D02*
X35433000Y-55151000D01*
X31242000Y-49276000D02*
X30142000Y-49276000D01*
X41783000Y-48751000D02*
X41783000Y-49751000D01*
X41783000Y-48306000D02*
X41783000Y-48751000D01*
X42224000Y-47865000D02*
X41783000Y-48306000D01*
X42799000Y-47865000D02*
X42224000Y-47865000D01*
X35996000Y-44697000D02*
X35096000Y-44697000D01*
X38546000Y-44697000D02*
X35996000Y-44697000D01*
X39696000Y-45847000D02*
X38546000Y-44697000D01*
X40596000Y-45847000D02*
X39696000Y-45847000D01*
X42531000Y-45847000D02*
X42799000Y-46115000D01*
X40596000Y-45847000D02*
X42531000Y-45847000D01*
X40513000Y-55151000D02*
X40513000Y-54883439D01*
X40513000Y-55151000D02*
X40513000Y-53340000D01*
X40513000Y-53340000D02*
X40259000Y-53086000D01*
X38598001Y-56226001D02*
X37973000Y-55601000D01*
X37973000Y-55601000D02*
X37973000Y-55151000D01*
X42408001Y-56161001D02*
X42343001Y-56226001D01*
X42408001Y-52646001D02*
X42408001Y-56161001D01*
X40513000Y-50751000D02*
X42408001Y-52646001D01*
X42343001Y-56226001D02*
X38598001Y-56226001D01*
X40513000Y-49751000D02*
X40513000Y-50751000D01*
M02*
