G04 #@! TF.GenerationSoftware,KiCad,Pcbnew,(5.1.0)-1*
G04 #@! TF.CreationDate,2019-06-17T22:32:11+07:00*
G04 #@! TF.ProjectId,RCswitch2,52437377-6974-4636-9832-2e6b69636164,rev?*
G04 #@! TF.SameCoordinates,Original*
G04 #@! TF.FileFunction,Legend,Top*
G04 #@! TF.FilePolarity,Positive*
%FSLAX46Y46*%
G04 Gerber Fmt 4.6, Leading zero omitted, Abs format (unit mm)*
G04 Created by KiCad (PCBNEW (5.1.0)-1) date 2019-06-17 22:32:11*
%MOMM*%
%LPD*%
G04 APERTURE LIST*
%ADD10C,0.100000*%
%ADD11C,0.200000*%
%ADD12C,0.300000*%
%ADD13C,0.150000*%
%ADD14C,0.120000*%
%ADD15R,0.702000X1.602000*%
%ADD16R,1.402000X1.402000*%
%ADD17R,1.402000X2.102000*%
%ADD18C,1.052000*%
%ADD19R,1.802000X1.802000*%
%ADD20O,1.802000X1.802000*%
%ADD21C,1.842000*%
%ADD22O,2.302000X1.842000*%
G04 APERTURE END LIST*
D10*
X29281380Y-56863809D02*
X29281380Y-57435238D01*
X29281380Y-57149523D02*
X28281380Y-57149523D01*
X28424238Y-57244761D01*
X28519476Y-57340000D01*
X28567095Y-57435238D01*
X28281380Y-56530476D02*
X28281380Y-55863809D01*
X29281380Y-56292380D01*
X29186142Y-55482857D02*
X29233761Y-55435238D01*
X29281380Y-55482857D01*
X29233761Y-55530476D01*
X29186142Y-55482857D01*
X29281380Y-55482857D01*
X28281380Y-54816190D02*
X28281380Y-54720952D01*
X28329000Y-54625714D01*
X28376619Y-54578095D01*
X28471857Y-54530476D01*
X28662333Y-54482857D01*
X28900428Y-54482857D01*
X29090904Y-54530476D01*
X29186142Y-54578095D01*
X29233761Y-54625714D01*
X29281380Y-54720952D01*
X29281380Y-54816190D01*
X29233761Y-54911428D01*
X29186142Y-54959047D01*
X29090904Y-55006666D01*
X28900428Y-55054285D01*
X28662333Y-55054285D01*
X28471857Y-55006666D01*
X28376619Y-54959047D01*
X28329000Y-54911428D01*
X28281380Y-54816190D01*
X28281380Y-53625714D02*
X28281380Y-53816190D01*
X28329000Y-53911428D01*
X28376619Y-53959047D01*
X28519476Y-54054285D01*
X28709952Y-54101904D01*
X29090904Y-54101904D01*
X29186142Y-54054285D01*
X29233761Y-54006666D01*
X29281380Y-53911428D01*
X29281380Y-53720952D01*
X29233761Y-53625714D01*
X29186142Y-53578095D01*
X29090904Y-53530476D01*
X28852809Y-53530476D01*
X28757571Y-53578095D01*
X28709952Y-53625714D01*
X28662333Y-53720952D01*
X28662333Y-53911428D01*
X28709952Y-54006666D01*
X28757571Y-54054285D01*
X28852809Y-54101904D01*
X29186142Y-53101904D02*
X29233761Y-53054285D01*
X29281380Y-53101904D01*
X29233761Y-53149523D01*
X29186142Y-53101904D01*
X29281380Y-53101904D01*
X28376619Y-52673333D02*
X28329000Y-52625714D01*
X28281380Y-52530476D01*
X28281380Y-52292380D01*
X28329000Y-52197142D01*
X28376619Y-52149523D01*
X28471857Y-52101904D01*
X28567095Y-52101904D01*
X28709952Y-52149523D01*
X29281380Y-52720952D01*
X29281380Y-52101904D01*
X28281380Y-51482857D02*
X28281380Y-51387619D01*
X28329000Y-51292380D01*
X28376619Y-51244761D01*
X28471857Y-51197142D01*
X28662333Y-51149523D01*
X28900428Y-51149523D01*
X29090904Y-51197142D01*
X29186142Y-51244761D01*
X29233761Y-51292380D01*
X29281380Y-51387619D01*
X29281380Y-51482857D01*
X29233761Y-51578095D01*
X29186142Y-51625714D01*
X29090904Y-51673333D01*
X28900428Y-51720952D01*
X28662333Y-51720952D01*
X28471857Y-51673333D01*
X28376619Y-51625714D01*
X28329000Y-51578095D01*
X28281380Y-51482857D01*
X29281380Y-50197142D02*
X29281380Y-50768571D01*
X29281380Y-50482857D02*
X28281380Y-50482857D01*
X28424238Y-50578095D01*
X28519476Y-50673333D01*
X28567095Y-50768571D01*
X29281380Y-49720952D02*
X29281380Y-49530476D01*
X29233761Y-49435238D01*
X29186142Y-49387619D01*
X29043285Y-49292380D01*
X28852809Y-49244761D01*
X28471857Y-49244761D01*
X28376619Y-49292380D01*
X28329000Y-49340000D01*
X28281380Y-49435238D01*
X28281380Y-49625714D01*
X28329000Y-49720952D01*
X28376619Y-49768571D01*
X28471857Y-49816190D01*
X28709952Y-49816190D01*
X28805190Y-49768571D01*
X28852809Y-49720952D01*
X28900428Y-49625714D01*
X28900428Y-49435238D01*
X28852809Y-49340000D01*
X28805190Y-49292380D01*
X28709952Y-49244761D01*
D11*
X30481095Y-56475380D02*
X30814428Y-57475380D01*
X31147761Y-56475380D01*
X31481095Y-57380142D02*
X31528714Y-57427761D01*
X31481095Y-57475380D01*
X31433476Y-57427761D01*
X31481095Y-57380142D01*
X31481095Y-57475380D01*
X31814428Y-56475380D02*
X32147761Y-57475380D01*
X32481095Y-56475380D01*
X32814428Y-57380142D02*
X32862047Y-57427761D01*
X32814428Y-57475380D01*
X32766809Y-57427761D01*
X32814428Y-57380142D01*
X32814428Y-57475380D01*
X33290619Y-57475380D02*
X33290619Y-56475380D01*
X33671571Y-56475380D01*
X33766809Y-56523000D01*
X33814428Y-56570619D01*
X33862047Y-56665857D01*
X33862047Y-56808714D01*
X33814428Y-56903952D01*
X33766809Y-56951571D01*
X33671571Y-56999190D01*
X33290619Y-56999190D01*
X34719190Y-57475380D02*
X34719190Y-56951571D01*
X34671571Y-56856333D01*
X34576333Y-56808714D01*
X34385857Y-56808714D01*
X34290619Y-56856333D01*
X34719190Y-57427761D02*
X34623952Y-57475380D01*
X34385857Y-57475380D01*
X34290619Y-57427761D01*
X34243000Y-57332523D01*
X34243000Y-57237285D01*
X34290619Y-57142047D01*
X34385857Y-57094428D01*
X34623952Y-57094428D01*
X34719190Y-57046809D01*
X35195380Y-56808714D02*
X35195380Y-57475380D01*
X35195380Y-56903952D02*
X35243000Y-56856333D01*
X35338238Y-56808714D01*
X35481095Y-56808714D01*
X35576333Y-56856333D01*
X35623952Y-56951571D01*
X35623952Y-57475380D01*
X35957285Y-56808714D02*
X36338238Y-56808714D01*
X36100142Y-57475380D02*
X36100142Y-56618238D01*
X36147761Y-56523000D01*
X36243000Y-56475380D01*
X36338238Y-56475380D01*
X36671571Y-57475380D02*
X36671571Y-56808714D01*
X36671571Y-56475380D02*
X36623952Y-56523000D01*
X36671571Y-56570619D01*
X36719190Y-56523000D01*
X36671571Y-56475380D01*
X36671571Y-56570619D01*
X37290619Y-57475380D02*
X37195380Y-57427761D01*
X37147761Y-57332523D01*
X37147761Y-56475380D01*
X37814428Y-57475380D02*
X37719190Y-57427761D01*
X37671571Y-57380142D01*
X37623952Y-57284904D01*
X37623952Y-56999190D01*
X37671571Y-56903952D01*
X37719190Y-56856333D01*
X37814428Y-56808714D01*
X37957285Y-56808714D01*
X38052523Y-56856333D01*
X38100142Y-56903952D01*
X38147761Y-56999190D01*
X38147761Y-57284904D01*
X38100142Y-57380142D01*
X38052523Y-57427761D01*
X37957285Y-57475380D01*
X37814428Y-57475380D01*
X38481095Y-56808714D02*
X38719190Y-57475380D01*
X38957285Y-56808714D01*
X39957285Y-56999190D02*
X39909666Y-56951571D01*
X39814428Y-56903952D01*
X39719190Y-56903952D01*
X39623952Y-56951571D01*
X39576333Y-56999190D01*
X39528714Y-57094428D01*
X39528714Y-57189666D01*
X39576333Y-57284904D01*
X39623952Y-57332523D01*
X39719190Y-57380142D01*
X39814428Y-57380142D01*
X39909666Y-57332523D01*
X39957285Y-57284904D01*
X39957285Y-56903952D02*
X39957285Y-57284904D01*
X40004904Y-57332523D01*
X40052523Y-57332523D01*
X40147761Y-57284904D01*
X40195380Y-57189666D01*
X40195380Y-56951571D01*
X40100142Y-56808714D01*
X39957285Y-56713476D01*
X39766809Y-56665857D01*
X39576333Y-56713476D01*
X39433476Y-56808714D01*
X39338238Y-56951571D01*
X39290619Y-57142047D01*
X39338238Y-57332523D01*
X39433476Y-57475380D01*
X39576333Y-57570619D01*
X39766809Y-57618238D01*
X39957285Y-57570619D01*
X40100142Y-57475380D01*
X41052523Y-56808714D02*
X41052523Y-57618238D01*
X41004904Y-57713476D01*
X40957285Y-57761095D01*
X40862047Y-57808714D01*
X40719190Y-57808714D01*
X40623952Y-57761095D01*
X41052523Y-57427761D02*
X40957285Y-57475380D01*
X40766809Y-57475380D01*
X40671571Y-57427761D01*
X40623952Y-57380142D01*
X40576333Y-57284904D01*
X40576333Y-56999190D01*
X40623952Y-56903952D01*
X40671571Y-56856333D01*
X40766809Y-56808714D01*
X40957285Y-56808714D01*
X41052523Y-56856333D01*
X41528714Y-57475380D02*
X41528714Y-56808714D01*
X41528714Y-56903952D02*
X41576333Y-56856333D01*
X41671571Y-56808714D01*
X41814428Y-56808714D01*
X41909666Y-56856333D01*
X41957285Y-56951571D01*
X41957285Y-57475380D01*
X41957285Y-56951571D02*
X42004904Y-56856333D01*
X42100142Y-56808714D01*
X42243000Y-56808714D01*
X42338238Y-56856333D01*
X42385857Y-56951571D01*
X42385857Y-57475380D01*
X43290619Y-57475380D02*
X43290619Y-56951571D01*
X43243000Y-56856333D01*
X43147761Y-56808714D01*
X42957285Y-56808714D01*
X42862047Y-56856333D01*
X43290619Y-57427761D02*
X43195380Y-57475380D01*
X42957285Y-57475380D01*
X42862047Y-57427761D01*
X42814428Y-57332523D01*
X42814428Y-57237285D01*
X42862047Y-57142047D01*
X42957285Y-57094428D01*
X43195380Y-57094428D01*
X43290619Y-57046809D01*
X43766809Y-57475380D02*
X43766809Y-56808714D01*
X43766809Y-56475380D02*
X43719190Y-56523000D01*
X43766809Y-56570619D01*
X43814428Y-56523000D01*
X43766809Y-56475380D01*
X43766809Y-56570619D01*
X44385857Y-57475380D02*
X44290619Y-57427761D01*
X44243000Y-57332523D01*
X44243000Y-56475380D01*
X44766809Y-57380142D02*
X44814428Y-57427761D01*
X44766809Y-57475380D01*
X44719190Y-57427761D01*
X44766809Y-57380142D01*
X44766809Y-57475380D01*
X45671571Y-57427761D02*
X45576333Y-57475380D01*
X45385857Y-57475380D01*
X45290619Y-57427761D01*
X45243000Y-57380142D01*
X45195380Y-57284904D01*
X45195380Y-56999190D01*
X45243000Y-56903952D01*
X45290619Y-56856333D01*
X45385857Y-56808714D01*
X45576333Y-56808714D01*
X45671571Y-56856333D01*
X46243000Y-57475380D02*
X46147761Y-57427761D01*
X46100142Y-57380142D01*
X46052523Y-57284904D01*
X46052523Y-56999190D01*
X46100142Y-56903952D01*
X46147761Y-56856333D01*
X46243000Y-56808714D01*
X46385857Y-56808714D01*
X46481095Y-56856333D01*
X46528714Y-56903952D01*
X46576333Y-56999190D01*
X46576333Y-57284904D01*
X46528714Y-57380142D01*
X46481095Y-57427761D01*
X46385857Y-57475380D01*
X46243000Y-57475380D01*
X47004904Y-57475380D02*
X47004904Y-56808714D01*
X47004904Y-56903952D02*
X47052523Y-56856333D01*
X47147761Y-56808714D01*
X47290619Y-56808714D01*
X47385857Y-56856333D01*
X47433476Y-56951571D01*
X47433476Y-57475380D01*
X47433476Y-56951571D02*
X47481095Y-56856333D01*
X47576333Y-56808714D01*
X47719190Y-56808714D01*
X47814428Y-56856333D01*
X47862047Y-56951571D01*
X47862047Y-57475380D01*
D12*
X30278714Y-40683571D02*
X29778714Y-39969285D01*
X29421571Y-40683571D02*
X29421571Y-39183571D01*
X29993000Y-39183571D01*
X30135857Y-39255000D01*
X30207285Y-39326428D01*
X30278714Y-39469285D01*
X30278714Y-39683571D01*
X30207285Y-39826428D01*
X30135857Y-39897857D01*
X29993000Y-39969285D01*
X29421571Y-39969285D01*
X31778714Y-40540714D02*
X31707285Y-40612142D01*
X31493000Y-40683571D01*
X31350142Y-40683571D01*
X31135857Y-40612142D01*
X30993000Y-40469285D01*
X30921571Y-40326428D01*
X30850142Y-40040714D01*
X30850142Y-39826428D01*
X30921571Y-39540714D01*
X30993000Y-39397857D01*
X31135857Y-39255000D01*
X31350142Y-39183571D01*
X31493000Y-39183571D01*
X31707285Y-39255000D01*
X31778714Y-39326428D01*
X33493000Y-40612142D02*
X33635857Y-40683571D01*
X33921571Y-40683571D01*
X34064428Y-40612142D01*
X34135857Y-40469285D01*
X34135857Y-40397857D01*
X34064428Y-40255000D01*
X33921571Y-40183571D01*
X33707285Y-40183571D01*
X33564428Y-40112142D01*
X33493000Y-39969285D01*
X33493000Y-39897857D01*
X33564428Y-39755000D01*
X33707285Y-39683571D01*
X33921571Y-39683571D01*
X34064428Y-39755000D01*
X34635857Y-39683571D02*
X34921571Y-40683571D01*
X35207285Y-39969285D01*
X35493000Y-40683571D01*
X35778714Y-39683571D01*
X36350142Y-40683571D02*
X36350142Y-39683571D01*
X36350142Y-39183571D02*
X36278714Y-39255000D01*
X36350142Y-39326428D01*
X36421571Y-39255000D01*
X36350142Y-39183571D01*
X36350142Y-39326428D01*
X36850142Y-39683571D02*
X37421571Y-39683571D01*
X37064428Y-39183571D02*
X37064428Y-40469285D01*
X37135857Y-40612142D01*
X37278714Y-40683571D01*
X37421571Y-40683571D01*
X38564428Y-40612142D02*
X38421571Y-40683571D01*
X38135857Y-40683571D01*
X37993000Y-40612142D01*
X37921571Y-40540714D01*
X37850142Y-40397857D01*
X37850142Y-39969285D01*
X37921571Y-39826428D01*
X37993000Y-39755000D01*
X38135857Y-39683571D01*
X38421571Y-39683571D01*
X38564428Y-39755000D01*
X39207285Y-40683571D02*
X39207285Y-39183571D01*
X39850142Y-40683571D02*
X39850142Y-39897857D01*
X39778714Y-39755000D01*
X39635857Y-39683571D01*
X39421571Y-39683571D01*
X39278714Y-39755000D01*
X39207285Y-39826428D01*
X42135857Y-41255000D02*
X42064428Y-41183571D01*
X41921571Y-40969285D01*
X41850142Y-40826428D01*
X41778714Y-40612142D01*
X41707285Y-40255000D01*
X41707285Y-39969285D01*
X41778714Y-39612142D01*
X41850142Y-39397857D01*
X41921571Y-39255000D01*
X42064428Y-39040714D01*
X42135857Y-38969285D01*
X42635857Y-39326428D02*
X42707285Y-39255000D01*
X42850142Y-39183571D01*
X43207285Y-39183571D01*
X43350142Y-39255000D01*
X43421571Y-39326428D01*
X43493000Y-39469285D01*
X43493000Y-39612142D01*
X43421571Y-39826428D01*
X42564428Y-40683571D01*
X43493000Y-40683571D01*
X44064428Y-40255000D02*
X44778714Y-40255000D01*
X43921571Y-40683571D02*
X44421571Y-39183571D01*
X44921571Y-40683571D01*
X45421571Y-40683571D02*
X45421571Y-39683571D01*
X45421571Y-39826428D02*
X45493000Y-39755000D01*
X45635857Y-39683571D01*
X45850142Y-39683571D01*
X45993000Y-39755000D01*
X46064428Y-39897857D01*
X46064428Y-40683571D01*
X46064428Y-39897857D02*
X46135857Y-39755000D01*
X46278714Y-39683571D01*
X46493000Y-39683571D01*
X46635857Y-39755000D01*
X46707285Y-39897857D01*
X46707285Y-40683571D01*
X47421571Y-39683571D02*
X47421571Y-41183571D01*
X47421571Y-39755000D02*
X47564428Y-39683571D01*
X47850142Y-39683571D01*
X47993000Y-39755000D01*
X48064428Y-39826428D01*
X48135857Y-39969285D01*
X48135857Y-40397857D01*
X48064428Y-40540714D01*
X47993000Y-40612142D01*
X47850142Y-40683571D01*
X47564428Y-40683571D01*
X47421571Y-40612142D01*
X48635857Y-41255000D02*
X48707285Y-41183571D01*
X48850142Y-40969285D01*
X48921571Y-40826428D01*
X48993000Y-40612142D01*
X49064428Y-40255000D01*
X49064428Y-39969285D01*
X48993000Y-39612142D01*
X48921571Y-39397857D01*
X48850142Y-39255000D01*
X48707285Y-39040714D01*
X48635857Y-38969285D01*
D13*
X42398000Y-50376000D02*
X42398000Y-49001000D01*
X33523000Y-50376000D02*
X33523000Y-54526000D01*
X42423000Y-50376000D02*
X42423000Y-54526000D01*
X33523000Y-50376000D02*
X33638000Y-50376000D01*
X33523000Y-54526000D02*
X33638000Y-54526000D01*
X42423000Y-54526000D02*
X42308000Y-54526000D01*
X42423000Y-50376000D02*
X42398000Y-50376000D01*
D14*
X35476000Y-43477000D02*
X40216000Y-43477000D01*
X35476000Y-48217000D02*
X40216000Y-48217000D01*
X40216000Y-44607000D02*
X40216000Y-43477000D01*
X40216000Y-48217000D02*
X40216000Y-47087000D01*
X35476000Y-46106000D02*
X35476000Y-45587000D01*
X35476000Y-48217000D02*
X35476000Y-47886000D01*
X35476000Y-43807000D02*
X35476000Y-43477000D01*
X42289000Y-46818733D02*
X42289000Y-47161267D01*
X43309000Y-46818733D02*
X43309000Y-47161267D01*
D13*
X42800380Y-53212904D02*
X43609904Y-53212904D01*
X43705142Y-53165285D01*
X43752761Y-53117666D01*
X43800380Y-53022428D01*
X43800380Y-52831952D01*
X43752761Y-52736714D01*
X43705142Y-52689095D01*
X43609904Y-52641476D01*
X42800380Y-52641476D01*
X43800380Y-51641476D02*
X43800380Y-52212904D01*
X43800380Y-51927190D02*
X42800380Y-51927190D01*
X42943238Y-52022428D01*
X43038476Y-52117666D01*
X43086095Y-52212904D01*
X37250761Y-43124380D02*
X36917428Y-42648190D01*
X36679333Y-43124380D02*
X36679333Y-42124380D01*
X37060285Y-42124380D01*
X37155523Y-42172000D01*
X37203142Y-42219619D01*
X37250761Y-42314857D01*
X37250761Y-42457714D01*
X37203142Y-42552952D01*
X37155523Y-42600571D01*
X37060285Y-42648190D01*
X36679333Y-42648190D01*
X37536476Y-42124380D02*
X37869809Y-43124380D01*
X38203142Y-42124380D01*
X39060285Y-43124380D02*
X38488857Y-43124380D01*
X38774571Y-43124380D02*
X38774571Y-42124380D01*
X38679333Y-42267238D01*
X38584095Y-42362476D01*
X38488857Y-42410095D01*
X44681380Y-47156666D02*
X44205190Y-47490000D01*
X44681380Y-47728095D02*
X43681380Y-47728095D01*
X43681380Y-47347142D01*
X43729000Y-47251904D01*
X43776619Y-47204285D01*
X43871857Y-47156666D01*
X44014714Y-47156666D01*
X44109952Y-47204285D01*
X44157571Y-47251904D01*
X44205190Y-47347142D01*
X44205190Y-47728095D01*
X44681380Y-46204285D02*
X44681380Y-46775714D01*
X44681380Y-46490000D02*
X43681380Y-46490000D01*
X43824238Y-46585238D01*
X43919476Y-46680476D01*
X43967095Y-46775714D01*
%LPC*%
D15*
X41783000Y-55151000D03*
X40513000Y-55151000D03*
X39243000Y-55151000D03*
X37973000Y-55151000D03*
X36703000Y-55151000D03*
X35433000Y-55151000D03*
X34163000Y-55151000D03*
X34163000Y-49751000D03*
X35433000Y-49751000D03*
X36703000Y-49751000D03*
X37973000Y-49751000D03*
X39243000Y-49751000D03*
X40513000Y-49751000D03*
X41783000Y-49751000D03*
D16*
X35096000Y-46997000D03*
D17*
X40596000Y-45847000D03*
D16*
X35096000Y-44697000D03*
D10*
G36*
X43087779Y-47290266D02*
G01*
X43113309Y-47294053D01*
X43138345Y-47300325D01*
X43162646Y-47309020D01*
X43185977Y-47320055D01*
X43208115Y-47333323D01*
X43228845Y-47348698D01*
X43247969Y-47366031D01*
X43265302Y-47385155D01*
X43280677Y-47405885D01*
X43293945Y-47428023D01*
X43304980Y-47451354D01*
X43313675Y-47475655D01*
X43319947Y-47500691D01*
X43323734Y-47526221D01*
X43325000Y-47552000D01*
X43325000Y-48178000D01*
X43323734Y-48203779D01*
X43319947Y-48229309D01*
X43313675Y-48254345D01*
X43304980Y-48278646D01*
X43293945Y-48301977D01*
X43280677Y-48324115D01*
X43265302Y-48344845D01*
X43247969Y-48363969D01*
X43228845Y-48381302D01*
X43208115Y-48396677D01*
X43185977Y-48409945D01*
X43162646Y-48420980D01*
X43138345Y-48429675D01*
X43113309Y-48435947D01*
X43087779Y-48439734D01*
X43062000Y-48441000D01*
X42536000Y-48441000D01*
X42510221Y-48439734D01*
X42484691Y-48435947D01*
X42459655Y-48429675D01*
X42435354Y-48420980D01*
X42412023Y-48409945D01*
X42389885Y-48396677D01*
X42369155Y-48381302D01*
X42350031Y-48363969D01*
X42332698Y-48344845D01*
X42317323Y-48324115D01*
X42304055Y-48301977D01*
X42293020Y-48278646D01*
X42284325Y-48254345D01*
X42278053Y-48229309D01*
X42274266Y-48203779D01*
X42273000Y-48178000D01*
X42273000Y-47552000D01*
X42274266Y-47526221D01*
X42278053Y-47500691D01*
X42284325Y-47475655D01*
X42293020Y-47451354D01*
X42304055Y-47428023D01*
X42317323Y-47405885D01*
X42332698Y-47385155D01*
X42350031Y-47366031D01*
X42369155Y-47348698D01*
X42389885Y-47333323D01*
X42412023Y-47320055D01*
X42435354Y-47309020D01*
X42459655Y-47300325D01*
X42484691Y-47294053D01*
X42510221Y-47290266D01*
X42536000Y-47289000D01*
X43062000Y-47289000D01*
X43087779Y-47290266D01*
X43087779Y-47290266D01*
G37*
D18*
X42799000Y-47865000D03*
D10*
G36*
X43087779Y-45540266D02*
G01*
X43113309Y-45544053D01*
X43138345Y-45550325D01*
X43162646Y-45559020D01*
X43185977Y-45570055D01*
X43208115Y-45583323D01*
X43228845Y-45598698D01*
X43247969Y-45616031D01*
X43265302Y-45635155D01*
X43280677Y-45655885D01*
X43293945Y-45678023D01*
X43304980Y-45701354D01*
X43313675Y-45725655D01*
X43319947Y-45750691D01*
X43323734Y-45776221D01*
X43325000Y-45802000D01*
X43325000Y-46428000D01*
X43323734Y-46453779D01*
X43319947Y-46479309D01*
X43313675Y-46504345D01*
X43304980Y-46528646D01*
X43293945Y-46551977D01*
X43280677Y-46574115D01*
X43265302Y-46594845D01*
X43247969Y-46613969D01*
X43228845Y-46631302D01*
X43208115Y-46646677D01*
X43185977Y-46659945D01*
X43162646Y-46670980D01*
X43138345Y-46679675D01*
X43113309Y-46685947D01*
X43087779Y-46689734D01*
X43062000Y-46691000D01*
X42536000Y-46691000D01*
X42510221Y-46689734D01*
X42484691Y-46685947D01*
X42459655Y-46679675D01*
X42435354Y-46670980D01*
X42412023Y-46659945D01*
X42389885Y-46646677D01*
X42369155Y-46631302D01*
X42350031Y-46613969D01*
X42332698Y-46594845D01*
X42317323Y-46574115D01*
X42304055Y-46551977D01*
X42293020Y-46528646D01*
X42284325Y-46504345D01*
X42278053Y-46479309D01*
X42274266Y-46453779D01*
X42273000Y-46428000D01*
X42273000Y-45802000D01*
X42274266Y-45776221D01*
X42278053Y-45750691D01*
X42284325Y-45725655D01*
X42293020Y-45701354D01*
X42304055Y-45678023D01*
X42317323Y-45655885D01*
X42332698Y-45635155D01*
X42350031Y-45616031D01*
X42369155Y-45598698D01*
X42389885Y-45583323D01*
X42412023Y-45570055D01*
X42435354Y-45559020D01*
X42459655Y-45550325D01*
X42484691Y-45544053D01*
X42510221Y-45540266D01*
X42536000Y-45539000D01*
X43062000Y-45539000D01*
X43087779Y-45540266D01*
X43087779Y-45540266D01*
G37*
D18*
X42799000Y-46115000D03*
D19*
X31242000Y-49276000D03*
D20*
X31242000Y-51816000D03*
X31242000Y-54356000D03*
D10*
G36*
X31011287Y-44419274D02*
G01*
X31036977Y-44423085D01*
X31062171Y-44429396D01*
X31086625Y-44438146D01*
X31110103Y-44449250D01*
X31132380Y-44462602D01*
X31153241Y-44478074D01*
X31172485Y-44495515D01*
X31189926Y-44514759D01*
X31205398Y-44535620D01*
X31218750Y-44557897D01*
X31229854Y-44581375D01*
X31238604Y-44605829D01*
X31244915Y-44631023D01*
X31248726Y-44656713D01*
X31250000Y-44682654D01*
X31250000Y-45995346D01*
X31248726Y-46021287D01*
X31244915Y-46046977D01*
X31238604Y-46072171D01*
X31229854Y-46096625D01*
X31218750Y-46120103D01*
X31205398Y-46142380D01*
X31189926Y-46163241D01*
X31172485Y-46182485D01*
X31153241Y-46199926D01*
X31132380Y-46215398D01*
X31110103Y-46228750D01*
X31086625Y-46239854D01*
X31062171Y-46248604D01*
X31036977Y-46254915D01*
X31011287Y-46258726D01*
X30985346Y-46260000D01*
X29212654Y-46260000D01*
X29186713Y-46258726D01*
X29161023Y-46254915D01*
X29135829Y-46248604D01*
X29111375Y-46239854D01*
X29087897Y-46228750D01*
X29065620Y-46215398D01*
X29044759Y-46199926D01*
X29025515Y-46182485D01*
X29008074Y-46163241D01*
X28992602Y-46142380D01*
X28979250Y-46120103D01*
X28968146Y-46096625D01*
X28959396Y-46072171D01*
X28953085Y-46046977D01*
X28949274Y-46021287D01*
X28948000Y-45995346D01*
X28948000Y-44682654D01*
X28949274Y-44656713D01*
X28953085Y-44631023D01*
X28959396Y-44605829D01*
X28968146Y-44581375D01*
X28979250Y-44557897D01*
X28992602Y-44535620D01*
X29008074Y-44514759D01*
X29025515Y-44495515D01*
X29044759Y-44478074D01*
X29065620Y-44462602D01*
X29087897Y-44449250D01*
X29111375Y-44438146D01*
X29135829Y-44429396D01*
X29161023Y-44423085D01*
X29186713Y-44419274D01*
X29212654Y-44418000D01*
X30985346Y-44418000D01*
X31011287Y-44419274D01*
X31011287Y-44419274D01*
G37*
D21*
X30099000Y-45339000D03*
D22*
X30099000Y-42799000D03*
D10*
G36*
X48156287Y-53436274D02*
G01*
X48181977Y-53440085D01*
X48207171Y-53446396D01*
X48231625Y-53455146D01*
X48255103Y-53466250D01*
X48277380Y-53479602D01*
X48298241Y-53495074D01*
X48317485Y-53512515D01*
X48334926Y-53531759D01*
X48350398Y-53552620D01*
X48363750Y-53574897D01*
X48374854Y-53598375D01*
X48383604Y-53622829D01*
X48389915Y-53648023D01*
X48393726Y-53673713D01*
X48395000Y-53699654D01*
X48395000Y-55012346D01*
X48393726Y-55038287D01*
X48389915Y-55063977D01*
X48383604Y-55089171D01*
X48374854Y-55113625D01*
X48363750Y-55137103D01*
X48350398Y-55159380D01*
X48334926Y-55180241D01*
X48317485Y-55199485D01*
X48298241Y-55216926D01*
X48277380Y-55232398D01*
X48255103Y-55245750D01*
X48231625Y-55256854D01*
X48207171Y-55265604D01*
X48181977Y-55271915D01*
X48156287Y-55275726D01*
X48130346Y-55277000D01*
X46357654Y-55277000D01*
X46331713Y-55275726D01*
X46306023Y-55271915D01*
X46280829Y-55265604D01*
X46256375Y-55256854D01*
X46232897Y-55245750D01*
X46210620Y-55232398D01*
X46189759Y-55216926D01*
X46170515Y-55199485D01*
X46153074Y-55180241D01*
X46137602Y-55159380D01*
X46124250Y-55137103D01*
X46113146Y-55113625D01*
X46104396Y-55089171D01*
X46098085Y-55063977D01*
X46094274Y-55038287D01*
X46093000Y-55012346D01*
X46093000Y-53699654D01*
X46094274Y-53673713D01*
X46098085Y-53648023D01*
X46104396Y-53622829D01*
X46113146Y-53598375D01*
X46124250Y-53574897D01*
X46137602Y-53552620D01*
X46153074Y-53531759D01*
X46170515Y-53512515D01*
X46189759Y-53495074D01*
X46210620Y-53479602D01*
X46232897Y-53466250D01*
X46256375Y-53455146D01*
X46280829Y-53446396D01*
X46306023Y-53440085D01*
X46331713Y-53436274D01*
X46357654Y-53435000D01*
X48130346Y-53435000D01*
X48156287Y-53436274D01*
X48156287Y-53436274D01*
G37*
D21*
X47244000Y-54356000D03*
D22*
X47244000Y-51816000D03*
D10*
G36*
X48156287Y-44546274D02*
G01*
X48181977Y-44550085D01*
X48207171Y-44556396D01*
X48231625Y-44565146D01*
X48255103Y-44576250D01*
X48277380Y-44589602D01*
X48298241Y-44605074D01*
X48317485Y-44622515D01*
X48334926Y-44641759D01*
X48350398Y-44662620D01*
X48363750Y-44684897D01*
X48374854Y-44708375D01*
X48383604Y-44732829D01*
X48389915Y-44758023D01*
X48393726Y-44783713D01*
X48395000Y-44809654D01*
X48395000Y-46122346D01*
X48393726Y-46148287D01*
X48389915Y-46173977D01*
X48383604Y-46199171D01*
X48374854Y-46223625D01*
X48363750Y-46247103D01*
X48350398Y-46269380D01*
X48334926Y-46290241D01*
X48317485Y-46309485D01*
X48298241Y-46326926D01*
X48277380Y-46342398D01*
X48255103Y-46355750D01*
X48231625Y-46366854D01*
X48207171Y-46375604D01*
X48181977Y-46381915D01*
X48156287Y-46385726D01*
X48130346Y-46387000D01*
X46357654Y-46387000D01*
X46331713Y-46385726D01*
X46306023Y-46381915D01*
X46280829Y-46375604D01*
X46256375Y-46366854D01*
X46232897Y-46355750D01*
X46210620Y-46342398D01*
X46189759Y-46326926D01*
X46170515Y-46309485D01*
X46153074Y-46290241D01*
X46137602Y-46269380D01*
X46124250Y-46247103D01*
X46113146Y-46223625D01*
X46104396Y-46199171D01*
X46098085Y-46173977D01*
X46094274Y-46148287D01*
X46093000Y-46122346D01*
X46093000Y-44809654D01*
X46094274Y-44783713D01*
X46098085Y-44758023D01*
X46104396Y-44732829D01*
X46113146Y-44708375D01*
X46124250Y-44684897D01*
X46137602Y-44662620D01*
X46153074Y-44641759D01*
X46170515Y-44622515D01*
X46189759Y-44605074D01*
X46210620Y-44589602D01*
X46232897Y-44576250D01*
X46256375Y-44565146D01*
X46280829Y-44556396D01*
X46306023Y-44550085D01*
X46331713Y-44546274D01*
X46357654Y-44545000D01*
X48130346Y-44545000D01*
X48156287Y-44546274D01*
X48156287Y-44546274D01*
G37*
D21*
X47244000Y-45466000D03*
D22*
X47244000Y-42926000D03*
M02*
