G04 #@! TF.GenerationSoftware,KiCad,Pcbnew,(5.1.0)-1*
G04 #@! TF.CreationDate,2019-06-17T22:32:11+07:00*
G04 #@! TF.ProjectId,RCswitch2,52437377-6974-4636-9832-2e6b69636164,rev?*
G04 #@! TF.SameCoordinates,Original*
G04 #@! TF.FileFunction,Paste,Top*
G04 #@! TF.FilePolarity,Positive*
%FSLAX46Y46*%
G04 Gerber Fmt 4.6, Leading zero omitted, Abs format (unit mm)*
G04 Created by KiCad (PCBNEW (5.1.0)-1) date 2019-06-17 22:32:11*
%MOMM*%
%LPD*%
G04 APERTURE LIST*
%ADD10R,0.600000X1.500000*%
%ADD11R,1.300000X1.300000*%
%ADD12R,1.300000X2.000000*%
%ADD13C,0.100000*%
%ADD14C,0.950000*%
G04 APERTURE END LIST*
D10*
X41783000Y-55151000D03*
X40513000Y-55151000D03*
X39243000Y-55151000D03*
X37973000Y-55151000D03*
X36703000Y-55151000D03*
X35433000Y-55151000D03*
X34163000Y-55151000D03*
X34163000Y-49751000D03*
X35433000Y-49751000D03*
X36703000Y-49751000D03*
X37973000Y-49751000D03*
X39243000Y-49751000D03*
X40513000Y-49751000D03*
X41783000Y-49751000D03*
D11*
X35096000Y-46997000D03*
D12*
X40596000Y-45847000D03*
D11*
X35096000Y-44697000D03*
D13*
G36*
X43059779Y-47341144D02*
G01*
X43082834Y-47344563D01*
X43105443Y-47350227D01*
X43127387Y-47358079D01*
X43148457Y-47368044D01*
X43168448Y-47380026D01*
X43187168Y-47393910D01*
X43204438Y-47409562D01*
X43220090Y-47426832D01*
X43233974Y-47445552D01*
X43245956Y-47465543D01*
X43255921Y-47486613D01*
X43263773Y-47508557D01*
X43269437Y-47531166D01*
X43272856Y-47554221D01*
X43274000Y-47577500D01*
X43274000Y-48152500D01*
X43272856Y-48175779D01*
X43269437Y-48198834D01*
X43263773Y-48221443D01*
X43255921Y-48243387D01*
X43245956Y-48264457D01*
X43233974Y-48284448D01*
X43220090Y-48303168D01*
X43204438Y-48320438D01*
X43187168Y-48336090D01*
X43168448Y-48349974D01*
X43148457Y-48361956D01*
X43127387Y-48371921D01*
X43105443Y-48379773D01*
X43082834Y-48385437D01*
X43059779Y-48388856D01*
X43036500Y-48390000D01*
X42561500Y-48390000D01*
X42538221Y-48388856D01*
X42515166Y-48385437D01*
X42492557Y-48379773D01*
X42470613Y-48371921D01*
X42449543Y-48361956D01*
X42429552Y-48349974D01*
X42410832Y-48336090D01*
X42393562Y-48320438D01*
X42377910Y-48303168D01*
X42364026Y-48284448D01*
X42352044Y-48264457D01*
X42342079Y-48243387D01*
X42334227Y-48221443D01*
X42328563Y-48198834D01*
X42325144Y-48175779D01*
X42324000Y-48152500D01*
X42324000Y-47577500D01*
X42325144Y-47554221D01*
X42328563Y-47531166D01*
X42334227Y-47508557D01*
X42342079Y-47486613D01*
X42352044Y-47465543D01*
X42364026Y-47445552D01*
X42377910Y-47426832D01*
X42393562Y-47409562D01*
X42410832Y-47393910D01*
X42429552Y-47380026D01*
X42449543Y-47368044D01*
X42470613Y-47358079D01*
X42492557Y-47350227D01*
X42515166Y-47344563D01*
X42538221Y-47341144D01*
X42561500Y-47340000D01*
X43036500Y-47340000D01*
X43059779Y-47341144D01*
X43059779Y-47341144D01*
G37*
D14*
X42799000Y-47865000D03*
D13*
G36*
X43059779Y-45591144D02*
G01*
X43082834Y-45594563D01*
X43105443Y-45600227D01*
X43127387Y-45608079D01*
X43148457Y-45618044D01*
X43168448Y-45630026D01*
X43187168Y-45643910D01*
X43204438Y-45659562D01*
X43220090Y-45676832D01*
X43233974Y-45695552D01*
X43245956Y-45715543D01*
X43255921Y-45736613D01*
X43263773Y-45758557D01*
X43269437Y-45781166D01*
X43272856Y-45804221D01*
X43274000Y-45827500D01*
X43274000Y-46402500D01*
X43272856Y-46425779D01*
X43269437Y-46448834D01*
X43263773Y-46471443D01*
X43255921Y-46493387D01*
X43245956Y-46514457D01*
X43233974Y-46534448D01*
X43220090Y-46553168D01*
X43204438Y-46570438D01*
X43187168Y-46586090D01*
X43168448Y-46599974D01*
X43148457Y-46611956D01*
X43127387Y-46621921D01*
X43105443Y-46629773D01*
X43082834Y-46635437D01*
X43059779Y-46638856D01*
X43036500Y-46640000D01*
X42561500Y-46640000D01*
X42538221Y-46638856D01*
X42515166Y-46635437D01*
X42492557Y-46629773D01*
X42470613Y-46621921D01*
X42449543Y-46611956D01*
X42429552Y-46599974D01*
X42410832Y-46586090D01*
X42393562Y-46570438D01*
X42377910Y-46553168D01*
X42364026Y-46534448D01*
X42352044Y-46514457D01*
X42342079Y-46493387D01*
X42334227Y-46471443D01*
X42328563Y-46448834D01*
X42325144Y-46425779D01*
X42324000Y-46402500D01*
X42324000Y-45827500D01*
X42325144Y-45804221D01*
X42328563Y-45781166D01*
X42334227Y-45758557D01*
X42342079Y-45736613D01*
X42352044Y-45715543D01*
X42364026Y-45695552D01*
X42377910Y-45676832D01*
X42393562Y-45659562D01*
X42410832Y-45643910D01*
X42429552Y-45630026D01*
X42449543Y-45618044D01*
X42470613Y-45608079D01*
X42492557Y-45600227D01*
X42515166Y-45594563D01*
X42538221Y-45591144D01*
X42561500Y-45590000D01*
X43036500Y-45590000D01*
X43059779Y-45591144D01*
X43059779Y-45591144D01*
G37*
D14*
X42799000Y-46115000D03*
M02*
