G04 #@! TF.GenerationSoftware,KiCad,Pcbnew,(5.1.0)-1*
G04 #@! TF.CreationDate,2019-06-17T22:32:11+07:00*
G04 #@! TF.ProjectId,RCswitch2,52437377-6974-4636-9832-2e6b69636164,rev?*
G04 #@! TF.SameCoordinates,Original*
G04 #@! TF.FileFunction,Paste,Bot*
G04 #@! TF.FilePolarity,Positive*
%FSLAX46Y46*%
G04 Gerber Fmt 4.6, Leading zero omitted, Abs format (unit mm)*
G04 Created by KiCad (PCBNEW (5.1.0)-1) date 2019-06-17 22:32:11*
%MOMM*%
%LPD*%
G04 APERTURE LIST*
%ADD10R,1.780000X2.000000*%
%ADD11C,0.100000*%
%ADD12C,1.150000*%
G04 APERTURE END LIST*
D10*
X40259000Y-44892000D03*
X35179000Y-54422000D03*
X37719000Y-44892000D03*
X37719000Y-54422000D03*
X35179000Y-44892000D03*
X40259000Y-54422000D03*
D11*
G36*
X43273505Y-50344204D02*
G01*
X43297773Y-50347804D01*
X43321572Y-50353765D01*
X43344671Y-50362030D01*
X43366850Y-50372520D01*
X43387893Y-50385132D01*
X43407599Y-50399747D01*
X43425777Y-50416223D01*
X43442253Y-50434401D01*
X43456868Y-50454107D01*
X43469480Y-50475150D01*
X43479970Y-50497329D01*
X43488235Y-50520428D01*
X43494196Y-50544227D01*
X43497796Y-50568495D01*
X43499000Y-50592999D01*
X43499000Y-51243001D01*
X43497796Y-51267505D01*
X43494196Y-51291773D01*
X43488235Y-51315572D01*
X43479970Y-51338671D01*
X43469480Y-51360850D01*
X43456868Y-51381893D01*
X43442253Y-51401599D01*
X43425777Y-51419777D01*
X43407599Y-51436253D01*
X43387893Y-51450868D01*
X43366850Y-51463480D01*
X43344671Y-51473970D01*
X43321572Y-51482235D01*
X43297773Y-51488196D01*
X43273505Y-51491796D01*
X43249001Y-51493000D01*
X42348999Y-51493000D01*
X42324495Y-51491796D01*
X42300227Y-51488196D01*
X42276428Y-51482235D01*
X42253329Y-51473970D01*
X42231150Y-51463480D01*
X42210107Y-51450868D01*
X42190401Y-51436253D01*
X42172223Y-51419777D01*
X42155747Y-51401599D01*
X42141132Y-51381893D01*
X42128520Y-51360850D01*
X42118030Y-51338671D01*
X42109765Y-51315572D01*
X42103804Y-51291773D01*
X42100204Y-51267505D01*
X42099000Y-51243001D01*
X42099000Y-50592999D01*
X42100204Y-50568495D01*
X42103804Y-50544227D01*
X42109765Y-50520428D01*
X42118030Y-50497329D01*
X42128520Y-50475150D01*
X42141132Y-50454107D01*
X42155747Y-50434401D01*
X42172223Y-50416223D01*
X42190401Y-50399747D01*
X42210107Y-50385132D01*
X42231150Y-50372520D01*
X42253329Y-50362030D01*
X42276428Y-50353765D01*
X42300227Y-50347804D01*
X42324495Y-50344204D01*
X42348999Y-50343000D01*
X43249001Y-50343000D01*
X43273505Y-50344204D01*
X43273505Y-50344204D01*
G37*
D12*
X42799000Y-50918000D03*
D11*
G36*
X43273505Y-52394204D02*
G01*
X43297773Y-52397804D01*
X43321572Y-52403765D01*
X43344671Y-52412030D01*
X43366850Y-52422520D01*
X43387893Y-52435132D01*
X43407599Y-52449747D01*
X43425777Y-52466223D01*
X43442253Y-52484401D01*
X43456868Y-52504107D01*
X43469480Y-52525150D01*
X43479970Y-52547329D01*
X43488235Y-52570428D01*
X43494196Y-52594227D01*
X43497796Y-52618495D01*
X43499000Y-52642999D01*
X43499000Y-53293001D01*
X43497796Y-53317505D01*
X43494196Y-53341773D01*
X43488235Y-53365572D01*
X43479970Y-53388671D01*
X43469480Y-53410850D01*
X43456868Y-53431893D01*
X43442253Y-53451599D01*
X43425777Y-53469777D01*
X43407599Y-53486253D01*
X43387893Y-53500868D01*
X43366850Y-53513480D01*
X43344671Y-53523970D01*
X43321572Y-53532235D01*
X43297773Y-53538196D01*
X43273505Y-53541796D01*
X43249001Y-53543000D01*
X42348999Y-53543000D01*
X42324495Y-53541796D01*
X42300227Y-53538196D01*
X42276428Y-53532235D01*
X42253329Y-53523970D01*
X42231150Y-53513480D01*
X42210107Y-53500868D01*
X42190401Y-53486253D01*
X42172223Y-53469777D01*
X42155747Y-53451599D01*
X42141132Y-53431893D01*
X42128520Y-53410850D01*
X42118030Y-53388671D01*
X42109765Y-53365572D01*
X42103804Y-53341773D01*
X42100204Y-53317505D01*
X42099000Y-53293001D01*
X42099000Y-52642999D01*
X42100204Y-52618495D01*
X42103804Y-52594227D01*
X42109765Y-52570428D01*
X42118030Y-52547329D01*
X42128520Y-52525150D01*
X42141132Y-52504107D01*
X42155747Y-52484401D01*
X42172223Y-52466223D01*
X42190401Y-52449747D01*
X42210107Y-52435132D01*
X42231150Y-52422520D01*
X42253329Y-52412030D01*
X42276428Y-52403765D01*
X42300227Y-52397804D01*
X42324495Y-52394204D01*
X42348999Y-52393000D01*
X43249001Y-52393000D01*
X43273505Y-52394204D01*
X43273505Y-52394204D01*
G37*
D12*
X42799000Y-52968000D03*
D11*
G36*
X43273505Y-48584204D02*
G01*
X43297773Y-48587804D01*
X43321572Y-48593765D01*
X43344671Y-48602030D01*
X43366850Y-48612520D01*
X43387893Y-48625132D01*
X43407599Y-48639747D01*
X43425777Y-48656223D01*
X43442253Y-48674401D01*
X43456868Y-48694107D01*
X43469480Y-48715150D01*
X43479970Y-48737329D01*
X43488235Y-48760428D01*
X43494196Y-48784227D01*
X43497796Y-48808495D01*
X43499000Y-48832999D01*
X43499000Y-49483001D01*
X43497796Y-49507505D01*
X43494196Y-49531773D01*
X43488235Y-49555572D01*
X43479970Y-49578671D01*
X43469480Y-49600850D01*
X43456868Y-49621893D01*
X43442253Y-49641599D01*
X43425777Y-49659777D01*
X43407599Y-49676253D01*
X43387893Y-49690868D01*
X43366850Y-49703480D01*
X43344671Y-49713970D01*
X43321572Y-49722235D01*
X43297773Y-49728196D01*
X43273505Y-49731796D01*
X43249001Y-49733000D01*
X42348999Y-49733000D01*
X42324495Y-49731796D01*
X42300227Y-49728196D01*
X42276428Y-49722235D01*
X42253329Y-49713970D01*
X42231150Y-49703480D01*
X42210107Y-49690868D01*
X42190401Y-49676253D01*
X42172223Y-49659777D01*
X42155747Y-49641599D01*
X42141132Y-49621893D01*
X42128520Y-49600850D01*
X42118030Y-49578671D01*
X42109765Y-49555572D01*
X42103804Y-49531773D01*
X42100204Y-49507505D01*
X42099000Y-49483001D01*
X42099000Y-48832999D01*
X42100204Y-48808495D01*
X42103804Y-48784227D01*
X42109765Y-48760428D01*
X42118030Y-48737329D01*
X42128520Y-48715150D01*
X42141132Y-48694107D01*
X42155747Y-48674401D01*
X42172223Y-48656223D01*
X42190401Y-48639747D01*
X42210107Y-48625132D01*
X42231150Y-48612520D01*
X42253329Y-48602030D01*
X42276428Y-48593765D01*
X42300227Y-48587804D01*
X42324495Y-48584204D01*
X42348999Y-48583000D01*
X43249001Y-48583000D01*
X43273505Y-48584204D01*
X43273505Y-48584204D01*
G37*
D12*
X42799000Y-49158000D03*
D11*
G36*
X43273505Y-46534204D02*
G01*
X43297773Y-46537804D01*
X43321572Y-46543765D01*
X43344671Y-46552030D01*
X43366850Y-46562520D01*
X43387893Y-46575132D01*
X43407599Y-46589747D01*
X43425777Y-46606223D01*
X43442253Y-46624401D01*
X43456868Y-46644107D01*
X43469480Y-46665150D01*
X43479970Y-46687329D01*
X43488235Y-46710428D01*
X43494196Y-46734227D01*
X43497796Y-46758495D01*
X43499000Y-46782999D01*
X43499000Y-47433001D01*
X43497796Y-47457505D01*
X43494196Y-47481773D01*
X43488235Y-47505572D01*
X43479970Y-47528671D01*
X43469480Y-47550850D01*
X43456868Y-47571893D01*
X43442253Y-47591599D01*
X43425777Y-47609777D01*
X43407599Y-47626253D01*
X43387893Y-47640868D01*
X43366850Y-47653480D01*
X43344671Y-47663970D01*
X43321572Y-47672235D01*
X43297773Y-47678196D01*
X43273505Y-47681796D01*
X43249001Y-47683000D01*
X42348999Y-47683000D01*
X42324495Y-47681796D01*
X42300227Y-47678196D01*
X42276428Y-47672235D01*
X42253329Y-47663970D01*
X42231150Y-47653480D01*
X42210107Y-47640868D01*
X42190401Y-47626253D01*
X42172223Y-47609777D01*
X42155747Y-47591599D01*
X42141132Y-47571893D01*
X42128520Y-47550850D01*
X42118030Y-47528671D01*
X42109765Y-47505572D01*
X42103804Y-47481773D01*
X42100204Y-47457505D01*
X42099000Y-47433001D01*
X42099000Y-46782999D01*
X42100204Y-46758495D01*
X42103804Y-46734227D01*
X42109765Y-46710428D01*
X42118030Y-46687329D01*
X42128520Y-46665150D01*
X42141132Y-46644107D01*
X42155747Y-46624401D01*
X42172223Y-46606223D01*
X42190401Y-46589747D01*
X42210107Y-46575132D01*
X42231150Y-46562520D01*
X42253329Y-46552030D01*
X42276428Y-46543765D01*
X42300227Y-46537804D01*
X42324495Y-46534204D01*
X42348999Y-46533000D01*
X43249001Y-46533000D01*
X43273505Y-46534204D01*
X43273505Y-46534204D01*
G37*
D12*
X42799000Y-47108000D03*
M02*
